<?xml version="1.0" encoding="UTF-8" standalone="no"?>
<!DOCTYPE svg PUBLIC "-//W3C//DTD SVG 1.1//EN"
"http://www.w3.org/Graphics/SVG/1.1/DTD/svg11.dtd">
<svg viewBox="0 0 935 1210" version="1.1" xmlns="http://www.w3.org/2000/svg" xmlns:xlink="http://www.w3.org/1999/xlink">
<defs>
<style type="text/css"><![CDATA[
.g1_26{
fill: none;
stroke: #000000;
stroke-width: 0.5683333;
stroke-linecap: butt;
stroke-linejoin: miter;
}
.g2_26{
}
]]></style>
</defs>
<path d="M666.9,129.9c0,0.1,0,0.2,0,0.3c0,0,0,0.1,0,0.1c-0.1,0.1,-0.2,0.1,-0.3,0.1c0,0,-0.1,0,-0.3,0c-0.1,0,-0.2,0,-0.3,0c-0.1,0,-0.1,0,-0.2,0c0,-0.1,-0.1,-0.1,-0.1,-0.1c0,-0.1,0,-0.1,-0.1,-0.1l-1.1,-3.4l-5.6,0l-1.1,3.3c0,0.1,-0.1,0.1,-0.1,0.2c0,0,-0.1,0,-0.1,0.1c0,0,-0.1,0,-0.2,0c0,0,-0.2,0,-0.3,0c-0.1,0,-0.2,0,-0.3,0c-0.1,0,-0.2,0,-0.2,-0.1c-0.1,0,-0.1,-0.1,-0.1,-0.1c0,-0.1,0,-0.2,0.1,-0.3L661,118c0,-0.1,0,-0.1,0,-0.1c0.1,-0.1,0.1,-0.1,0.2,-0.1c0.1,0,0.1,-0.1,0.2,-0.1c0.1,0,0.2,0,0.3,0c0.1,0,0.2,0,0.3,0c0.1,0,0.2,0.1,0.3,0.1c0,0,0.1,0,0.1,0.1c0,0,0.1,0,0.1,0.1Zm-5.2,-10.8l-2.4,6.7l4.8,0Z" class="g1_26" />
<path d="M676.5,125.6c0,0.8,-0.1,1.5,-0.2,2.1c-0.2,0.6,-0.4,1.1,-0.8,1.5c-0.3,0.4,-0.7,0.7,-1.2,1c-0.4,0.2,-1,0.3,-1.6,0.3c-0.2,0,-0.5,0,-0.7,-0.1c-0.2,0,-0.5,-0.1,-0.7,-0.2c-0.2,-0.1,-0.4,-0.3,-0.6,-0.5c-0.2,-0.1,-0.5,-0.4,-0.7,-0.6l0,4.5c0,0.1,0,0.1,0,0.1c-0.1,0.1,-0.1,0.1,-0.1,0.1c-0.1,0,-0.1,0.1,-0.2,0.1c-0.1,0,-0.2,0,-0.3,0c-0.1,0,-0.2,0,-0.3,0c0,0,-0.1,-0.1,-0.1,-0.1c-0.1,0,-0.1,0,-0.1,-0.1c0,0,-0.1,0,-0.1,-0.1l0,-12.2c0,-0.1,0.1,-0.1,0.1,-0.1c0,-0.1,0,-0.1,0,-0.1c0.1,0,0.1,-0.1,0.2,-0.1c0.1,0,0.2,0,0.3,0c0.1,0,0.1,0,0.2,0c0.1,0,0.1,0.1,0.2,0.1c0,0,0.1,0,0.1,0.1l0,0.1l0,1.2c0.3,-0.2,0.5,-0.5,0.8,-0.7c0.2,-0.2,0.5,-0.3,0.7,-0.5c0.2,-0.1,0.5,-0.2,0.8,-0.3c0.2,0,0.5,-0.1,0.8,-0.1c0.6,0,1.2,0.1,1.6,0.4c0.5,0.2,0.8,0.5,1.1,1c0.3,0.4,0.5,0.9,0.6,1.4c0.1,0.6,0.2,1.2,0.2,1.8Zm-1.2,0.2c0,-0.5,-0.1,-0.9,-0.1,-1.4c-0.1,-0.5,-0.2,-0.9,-0.4,-1.2c-0.2,-0.4,-0.5,-0.7,-0.8,-0.9c-0.3,-0.2,-0.6,-0.3,-1.1,-0.3c-0.2,0,-0.5,0,-0.7,0.1c-0.2,0.1,-0.4,0.2,-0.7,0.3c-0.2,0.2,-0.4,0.4,-0.7,0.6c-0.3,0.2,-0.5,0.5,-0.8,0.9l0,3.8c0.5,0.6,1,1,1.4,1.4c0.4,0.3,0.9,0.4,1.4,0.4c0.4,0,0.8,-0.1,1.1,-0.3c0.3,-0.2,0.6,-0.5,0.8,-0.9c0.2,-0.3,0.4,-0.7,0.4,-1.1c0.1,-0.5,0.2,-0.9,0.2,-1.4Z" class="g1_26" />
<path d="M685.3,130.2c0,0,-0.1,0.1,-0.1,0.1c0,0,-0.1,0.1,-0.2,0.1c0,0,-0.1,0,-0.2,0c-0.1,0,-0.2,0,-0.3,0c-0.1,0,-0.2,-0.1,-0.2,-0.1c0,0,-0.1,-0.1,-0.1,-0.1l0,-1c-0.4,0.4,-0.8,0.7,-1.3,1c-0.4,0.2,-0.9,0.3,-1.5,0.3c-0.4,0,-0.8,0,-1.2,-0.1c-0.4,-0.2,-0.7,-0.3,-0.9,-0.6c-0.3,-0.2,-0.5,-0.5,-0.6,-0.8c-0.2,-0.3,-0.2,-0.7,-0.2,-1.1c0,-0.4,0.1,-0.9,0.3,-1.2c0.2,-0.4,0.5,-0.7,0.9,-0.9c0.3,-0.3,0.8,-0.4,1.3,-0.6c0.5,-0.1,1.1,-0.1,1.7,-0.1l1.4,0l0,-0.8c0,-0.4,0,-0.7,-0.1,-1c-0.1,-0.3,-0.2,-0.5,-0.4,-0.7c-0.2,-0.2,-0.4,-0.4,-0.7,-0.5c-0.2,-0.1,-0.6,-0.1,-1,-0.1c-0.4,0,-0.7,0,-1,0.1c-0.4,0.1,-0.6,0.2,-0.9,0.4c-0.2,0.1,-0.4,0.2,-0.5,0.3c-0.2,0.1,-0.3,0.1,-0.3,0.1c-0.1,0,-0.1,0,-0.2,0l-0.1,-0.1c0,0,0,-0.1,0,-0.1c0,-0.1,0,-0.1,0,-0.2c0,-0.1,0,-0.3,0,-0.3c0,-0.1,0.1,-0.2,0.2,-0.3c0.1,-0.1,0.2,-0.1,0.4,-0.3c0.2,-0.1,0.5,-0.2,0.7,-0.3c0.3,-0.1,0.6,-0.1,0.9,-0.2c0.3,0,0.6,-0.1,0.9,-0.1c0.6,0,1.1,0.1,1.5,0.2c0.5,0.2,0.8,0.4,1.1,0.7c0.2,0.2,0.4,0.6,0.5,1c0.1,0.4,0.2,0.8,0.2,1.3ZM684.1,126l-1.6,0c-0.5,0,-0.9,0.1,-1.2,0.1c-0.4,0.1,-0.7,0.3,-0.9,0.4c-0.2,0.2,-0.4,0.4,-0.5,0.6c-0.1,0.2,-0.2,0.5,-0.2,0.8c0,0.5,0.2,0.9,0.5,1.2c0.3,0.3,0.8,0.4,1.3,0.4c0.5,0,0.9,-0.1,1.3,-0.3c0.4,-0.3,0.9,-0.6,1.3,-1.1Z" class="g1_26" />
<path d="M694.5,128.8c0,0.1,0,0.2,0,0.3c0,0,0,0.1,-0.1,0.1c0,0.1,0,0.1,0,0.1c0,0.1,-0.1,0.1,-0.2,0.2c-0.1,0.1,-0.2,0.2,-0.4,0.3c-0.2,0.2,-0.4,0.3,-0.7,0.4c-0.2,0.1,-0.5,0.2,-0.8,0.2c-0.2,0.1,-0.5,0.1,-0.8,0.1c-0.7,0,-1.2,-0.1,-1.7,-0.3c-0.4,-0.2,-0.8,-0.5,-1.1,-0.9c-0.4,-0.4,-0.6,-0.9,-0.8,-1.5c-0.1,-0.5,-0.2,-1.2,-0.2,-2c0,-0.8,0.1,-1.5,0.3,-2.2c0.2,-0.6,0.5,-1.1,0.8,-1.4c0.4,-0.4,0.8,-0.7,1.3,-0.9c0.5,-0.2,1,-0.3,1.5,-0.3c0.3,0,0.6,0.1,0.9,0.1c0.2,0.1,0.5,0.1,0.7,0.2c0.2,0.1,0.4,0.2,0.6,0.3c0.2,0.2,0.3,0.2,0.4,0.3c0.1,0.1,0.1,0.2,0.1,0.2c0.1,0.1,0.1,0.1,0.1,0.2c0,0,0,0.1,0,0.1c0,0.1,0,0.1,0,0.2c0,0.2,0,0.3,-0.1,0.4c0,0.1,-0.1,0.1,-0.1,0.1c-0.1,0,-0.2,0,-0.4,-0.1c-0.1,-0.2,-0.3,-0.3,-0.5,-0.4c-0.2,-0.2,-0.4,-0.3,-0.7,-0.4c-0.3,-0.1,-0.7,-0.2,-1.1,-0.2c-0.8,0,-1.5,0.3,-1.9,1c-0.5,0.6,-0.7,1.6,-0.7,2.8c0,0.6,0.1,1.2,0.2,1.6c0.1,0.5,0.3,0.9,0.5,1.2c0.2,0.3,0.5,0.5,0.9,0.7c0.3,0.1,0.7,0.2,1.1,0.2c0.4,0,0.7,-0.1,1,-0.2c0.3,-0.1,0.6,-0.3,0.8,-0.4c0.2,-0.1,0.4,-0.3,0.5,-0.4c0.2,-0.1,0.3,-0.2,0.3,-0.2c0.1,0,0.1,0,0.1,0c0.1,0.1,0.1,0.1,0.1,0.1c0,0.1,0.1,0.2,0.1,0.2c0,0.1,0,0.2,0,0.2Zm9.4,1.4l0,0.1l-0.1,0.1c0,0,-0.1,0,-0.2,0c0,0,-0.1,0,-0.2,0c-0.2,0,-0.3,0,-0.3,0c-0.1,0,-0.2,0,-0.2,0c0,-0.1,-0.1,-0.1,-0.1,-0.1c0,-0.1,0,-0.1,0,-0.1l0,-5.3c0,-0.5,-0.1,-0.9,-0.2,-1.3c0,-0.3,-0.2,-0.6,-0.3,-0.8c-0.2,-0.3,-0.4,-0.5,-0.7,-0.6C701.4,122,701,122,700.7,122c-0.4,0,-0.9,0.1,-1.3,0.4c-0.5,0.4,-1,0.8,-1.4,1.5l0,6.3c0,0,-0.1,0,-0.1,0.1l-0.1,0.1c0,0,-0.1,0,-0.1,0c-0.1,0,-0.2,0,-0.3,0c-0.1,0,-0.2,0,-0.3,0c-0.1,0,-0.1,0,-0.2,0c0,-0.1,-0.1,-0.1,-0.1,-0.1c0,-0.1,0,-0.1,0,-0.1l0,-13.1c0,-0.1,0,-0.1,0,-0.1c0,-0.1,0.1,-0.1,0.1,-0.1c0.1,0,0.1,-0.1,0.2,-0.1c0.1,0,0.2,0,0.3,0c0.1,0,0.2,0,0.3,0c0,0,0.1,0.1,0.1,0.1c0.1,0,0.1,0,0.1,0.1c0,0,0.1,0,0.1,0.1l0,5.4c0.4,-0.5,0.9,-0.9,1.4,-1.1c0.5,-0.3,1,-0.4,1.4,-0.4c0.6,0,1.1,0.1,1.5,0.3c0.4,0.2,0.7,0.5,1,0.8c0.2,0.3,0.4,0.7,0.5,1.2c0.1,0.4,0.1,0.9,0.1,1.5Z" class="g1_26" />
<path d="M714.2,125.3c0,0.3,0,0.4,-0.2,0.5c-0.1,0.1,-0.2,0.1,-0.3,0.1l-6,0c0,0.6,0,1.1,0.1,1.5c0.2,0.4,0.3,0.8,0.6,1.1c0.2,0.3,0.5,0.6,0.9,0.8c0.4,0.1,0.9,0.2,1.5,0.2c0.4,0,0.8,0,1.1,-0.1c0.3,-0.1,0.6,-0.1,0.8,-0.2c0.3,-0.1,0.5,-0.2,0.6,-0.3c0.2,0,0.3,-0.1,0.3,-0.1c0.1,0,0.1,0,0.1,0c0.1,0.1,0.1,0.1,0.1,0.1c0,0.1,0.1,0.1,0.1,0.2c0,0.1,0,0.2,0,0.2c0,0.1,0,0.1,0,0.2c0,0,-0.1,0.1,-0.1,0.1c0,0,0,0.1,0,0.1c0,0,-0.1,0,-0.1,0.1c0,0,-0.1,0.1,-0.3,0.2c-0.2,0.1,-0.4,0.1,-0.6,0.2c-0.3,0.1,-0.6,0.2,-1,0.2c-0.3,0.1,-0.7,0.1,-1.1,0.1c-0.7,0,-1.3,-0.1,-1.9,-0.3c-0.5,-0.2,-0.9,-0.5,-1.3,-0.9c-0.3,-0.4,-0.6,-0.9,-0.8,-1.5c-0.2,-0.6,-0.3,-1.3,-0.3,-2c0,-0.8,0.1,-1.4,0.3,-2c0.2,-0.6,0.5,-1.1,0.8,-1.5c0.4,-0.4,0.8,-0.7,1.3,-0.9c0.5,-0.3,1.1,-0.4,1.7,-0.4c0.7,0,1.2,0.1,1.7,0.4c0.5,0.2,0.9,0.5,1.2,0.8c0.3,0.4,0.5,0.8,0.6,1.3c0.1,0.5,0.2,1,0.2,1.6ZM713,125c0,-1,-0.2,-1.7,-0.6,-2.2c-0.5,-0.5,-1.1,-0.8,-2,-0.8c-0.4,0,-0.8,0.1,-1.1,0.3c-0.4,0.1,-0.6,0.3,-0.9,0.6c-0.2,0.3,-0.4,0.6,-0.5,1c-0.1,0.3,-0.2,0.7,-0.2,1.1Z" class="g1_26" />
<image preserveAspectRatio="none" x="744" y="725" width="31" height="22" xlink:href="img/1.png" />
<image preserveAspectRatio="none" x="744" y="774" width="31" height="22" xlink:href="img/2.png" />
<image preserveAspectRatio="none" x="744" y="823" width="31" height="22" xlink:href="img/3.png" />
<image preserveAspectRatio="none" x="744" y="872" width="31" height="22" xlink:href="img/4.png" />
<path fill-rule="evenodd" d="M539.1,999.9l220,0l0,1l-220,0l0,-1Z" class="g2_26" />
</svg>