<?xml version="1.0" encoding="UTF-8" standalone="no"?>
<!DOCTYPE svg PUBLIC "-//W3C//DTD SVG 1.1//EN"
"http://www.w3.org/Graphics/SVG/1.1/DTD/svg11.dtd">
<svg viewBox="0 0 935 1210" version="1.1" xmlns="http://www.w3.org/2000/svg" xmlns:xlink="http://www.w3.org/1999/xlink">
<defs>
<style type="text/css"><![CDATA[
.g1_25{
fill: #E0FFB8;
}
]]></style>
</defs>
<path fill-rule="evenodd" d="M107.7,349.5l719.7,0l0,21l-719.7,0l0,-21Z" class="g1_25" />
<path fill-rule="evenodd" d="M107.7,370.5l719.7,0l0,21.1l-719.7,0l0,-21.1Z" class="g1_25" />
<path fill-rule="evenodd" d="M107.7,391.6l719.7,0l0,21.1l-719.7,0l0,-21.1Z" class="g1_25" />
<path fill-rule="evenodd" d="M107.7,412.7l719.7,0l0,21.1l-719.7,0l0,-21.1Z" class="g1_25" />
<path fill-rule="evenodd" d="M107.7,433.8l719.7,0l0,21.1l-719.7,0l0,-21.1Z" class="g1_25" />
<path fill-rule="evenodd" d="M107.7,454.9l719.7,0l0,21.1l-719.7,0l0,-21.1Z" class="g1_25" />
<path fill-rule="evenodd" d="M107.7,476l719.7,0l0,21l-719.7,0l0,-21Z" class="g1_25" />
<path fill-rule="evenodd" d="M107.7,626.2l719.7,0l0,21.1l-719.7,0l0,-21.1Z" class="g1_25" />
<path fill-rule="evenodd" d="M107.7,647.3l719.7,0l0,21.1l-719.7,0l0,-21.1Z" class="g1_25" />
<path fill-rule="evenodd" d="M107.7,668.4l719.7,0l0,21.1l-719.7,0l0,-21.1Z" class="g1_25" />
<path fill-rule="evenodd" d="M107.7,689.5l719.7,0l0,21.1l-719.7,0l0,-21.1Z" class="g1_25" />
<path fill-rule="evenodd" d="M107.7,710.6l719.7,0l0,21.1l-719.7,0l0,-21.1Z" class="g1_25" />
<path fill-rule="evenodd" d="M107.7,731.6l719.7,0l0,21.1l-719.7,0l0,-21.1Z" class="g1_25" />
<path fill-rule="evenodd" d="M107.7,752.7l719.7,0l0,21.1l-719.7,0l0,-21.1Z" class="g1_25" />
<path fill-rule="evenodd" d="M107.7,773.8l719.7,0l0,21.1l-719.7,0l0,-21.1Z" class="g1_25" />
<path fill-rule="evenodd" d="M107.7,794.9l719.7,0l0,21.1l-719.7,0l0,-21.1Z" class="g1_25" />
</svg>