<?xml version="1.0" encoding="UTF-8" standalone="no"?>
<!DOCTYPE svg PUBLIC "-//W3C//DTD SVG 1.1//EN"
"http://www.w3.org/Graphics/SVG/1.1/DTD/svg11.dtd">
<svg viewBox="0 0 935 1210" version="1.1" xmlns="http://www.w3.org/2000/svg" xmlns:xlink="http://www.w3.org/1999/xlink">
<defs>
<style type="text/css"><![CDATA[
.g1_23{
}
]]></style>
</defs>
<path fill-rule="evenodd" d="M80.7,842.3l1.4,0l0,1.6l-1.4,0l0,-1.6Z" class="g1_23" />
<path fill-rule="evenodd" d="M80.7,842.3l1.4,0l0,1.5l-1.4,0l0,-1.5Z" class="g1_23" />
<path fill-rule="evenodd" d="M82.1,842.3l170.5,0l0,1.5l-170.5,0l0,-1.5Z" class="g1_23" />
<path fill-rule="evenodd" d="M252.6,843.8l1.4,0l0,0.1l-1.4,0l0,-0.1Z" class="g1_23" />
<path fill-rule="evenodd" d="M252.6,842.3l1.4,0l0,1.5l-1.4,0l0,-1.5Z" class="g1_23" />
<path fill-rule="evenodd" d="M254,842.3l418,0l0,1.5l-418,0l0,-1.5Z" class="g1_23" />
<path fill-rule="evenodd" d="M672,843.8l1.4,0l0,0.1l-1.4,0l0,-0.1Z" class="g1_23" />
<path fill-rule="evenodd" d="M672,842.3l1.4,0l0,1.5l-1.4,0l0,-1.5Z" class="g1_23" />
<path fill-rule="evenodd" d="M673.4,842.3l177.3,0l0,1.5l-177.3,0l0,-1.5Z" class="g1_23" />
<path fill-rule="evenodd" d="M850.7,842.3l1.5,0l0,1.6l-1.5,0l0,-1.6Z" class="g1_23" />
<path fill-rule="evenodd" d="M850.7,842.3l1.5,0l0,1.5l-1.5,0l0,-1.5Z" class="g1_23" />
<path fill-rule="evenodd" d="M80.7,843.9l1.4,0l0,31.4l-1.4,0l0,-31.4Z" class="g1_23" />
<path fill-rule="evenodd" d="M252.6,843.9l1.4,0l0,31.4l-1.4,0l0,-31.4Z" class="g1_23" />
<path fill-rule="evenodd" d="M672,843.9l1.4,0l0,31.4l-1.4,0l0,-31.4Z" class="g1_23" />
<path fill-rule="evenodd" d="M850.7,843.9l1.5,0l0,31.4l-1.5,0l0,-31.4Z" class="g1_23" />
<path fill-rule="evenodd" d="M80.7,875.3l1.4,0l0,1.6l-1.4,0l0,-1.6Z" class="g1_23" />
<path fill-rule="evenodd" d="M82.1,875.3l170.5,0l0,1.5l-170.5,0l0,-1.5Z" class="g1_23" />
<path fill-rule="evenodd" d="M252.6,875.3l1.4,0l0,1.6l-1.4,0l0,-1.6Z" class="g1_23" />
<path fill-rule="evenodd" d="M254,875.3l418,0l0,1.5l-418,0l0,-1.5Z" class="g1_23" />
<path fill-rule="evenodd" d="M672,875.3l1.4,0l0,1.6l-1.4,0l0,-1.6Z" class="g1_23" />
<path fill-rule="evenodd" d="M673.4,875.3l177.3,0l0,1.5l-177.3,0l0,-1.5Z" class="g1_23" />
<path fill-rule="evenodd" d="M850.7,875.3l1.5,0l0,1.6l-1.5,0l0,-1.6Z" class="g1_23" />
<path fill-rule="evenodd" d="M80.7,876.9l1.4,0l0,45.6l-1.4,0l0,-45.6Z" class="g1_23" />
<path fill-rule="evenodd" d="M252.6,876.9l1.4,0l0,45.6l-1.4,0l0,-45.6Z" class="g1_23" />
<path fill-rule="evenodd" d="M672,876.9l1.4,0l0,45.6l-1.4,0l0,-45.6Z" class="g1_23" />
<path fill-rule="evenodd" d="M850.7,876.9l1.5,0l0,45.6l-1.5,0l0,-45.6Z" class="g1_23" />
<path fill-rule="evenodd" d="M80.7,922.5l1.4,0l0,1.6l-1.4,0l0,-1.6Z" class="g1_23" />
<path fill-rule="evenodd" d="M82.1,922.5l170.5,0l0,1.5L82.1,924l0,-1.5Z" class="g1_23" />
<path fill-rule="evenodd" d="M252.6,922.5l1.4,0l0,1.6l-1.4,0l0,-1.6Z" class="g1_23" />
<path fill-rule="evenodd" d="M254,922.5l418,0l0,1.5l-418,0l0,-1.5Z" class="g1_23" />
<path fill-rule="evenodd" d="M672,922.5l1.4,0l0,1.6l-1.4,0l0,-1.6Z" class="g1_23" />
<path fill-rule="evenodd" d="M673.4,922.5l177.3,0l0,1.5l-177.3,0l0,-1.5Z" class="g1_23" />
<path fill-rule="evenodd" d="M850.7,922.5l1.5,0l0,1.6l-1.5,0l0,-1.6Z" class="g1_23" />
<path fill-rule="evenodd" d="M80.7,924.1l1.4,0l0,45.6l-1.4,0l0,-45.6Z" class="g1_23" />
<path fill-rule="evenodd" d="M252.6,924.1l1.4,0l0,45.6l-1.4,0l0,-45.6Z" class="g1_23" />
<path fill-rule="evenodd" d="M672,924.1l1.4,0l0,45.6l-1.4,0l0,-45.6Z" class="g1_23" />
<path fill-rule="evenodd" d="M850.7,924.1l1.5,0l0,45.6l-1.5,0l0,-45.6Z" class="g1_23" />
<path fill-rule="evenodd" d="M80.7,969.7l1.4,0l0,1.6l-1.4,0l0,-1.6Z" class="g1_23" />
<path fill-rule="evenodd" d="M82.1,969.7l170.5,0l0,1.5l-170.5,0l0,-1.5Z" class="g1_23" />
<path fill-rule="evenodd" d="M252.6,969.7l1.4,0l0,1.6l-1.4,0l0,-1.6Z" class="g1_23" />
<path fill-rule="evenodd" d="M254,969.7l418,0l0,1.5l-418,0l0,-1.5Z" class="g1_23" />
<path fill-rule="evenodd" d="M672,969.7l1.4,0l0,1.6l-1.4,0l0,-1.6Z" class="g1_23" />
<path fill-rule="evenodd" d="M673.4,969.7l177.3,0l0,1.5l-177.3,0l0,-1.5Z" class="g1_23" />
<path fill-rule="evenodd" d="M850.7,969.7l1.5,0l0,1.6l-1.5,0l0,-1.6Z" class="g1_23" />
<path fill-rule="evenodd" d="M80.7,971.3l1.4,0l0,22.8l-1.4,0l0,-22.8Z" class="g1_23" />
<path fill-rule="evenodd" d="M252.6,971.3l1.4,0l0,22.8l-1.4,0l0,-22.8Z" class="g1_23" />
<path fill-rule="evenodd" d="M672,971.3l1.4,0l0,22.8l-1.4,0l0,-22.8Z" class="g1_23" />
<path fill-rule="evenodd" d="M850.7,971.3l1.5,0l0,22.8l-1.5,0l0,-22.8Z" class="g1_23" />
<path fill-rule="evenodd" d="M80.7,994.1l1.4,0l0,1.6l-1.4,0l0,-1.6Z" class="g1_23" />
<path fill-rule="evenodd" d="M82.1,994.1l170.5,0l0,1.5l-170.5,0l0,-1.5Z" class="g1_23" />
<path fill-rule="evenodd" d="M252.6,994.1l1.4,0l0,1.6l-1.4,0l0,-1.6Z" class="g1_23" />
<path fill-rule="evenodd" d="M254,994.1l418,0l0,1.5l-418,0l0,-1.5Z" class="g1_23" />
<path fill-rule="evenodd" d="M672,994.1l1.4,0l0,1.6l-1.4,0l0,-1.6Z" class="g1_23" />
<path fill-rule="evenodd" d="M673.4,994.1l177.3,0l0,1.5l-177.3,0l0,-1.5Z" class="g1_23" />
<path fill-rule="evenodd" d="M850.7,994.1l1.5,0l0,1.6l-1.5,0l0,-1.6Z" class="g1_23" />
<path fill-rule="evenodd" d="M80.7,995.7l1.4,0l0,81.6l-1.4,0l0,-81.6Z" class="g1_23" />
<path fill-rule="evenodd" d="M80.7,1077.3l1.4,0l0,1.5l-1.4,0l0,-1.5Z" class="g1_23" />
<path fill-rule="evenodd" d="M80.7,1077.3l1.4,0l0,1.5l-1.4,0l0,-1.5Z" class="g1_23" />
<path fill-rule="evenodd" d="M82.1,1077.3l170.5,0l0,1.5l-170.5,0l0,-1.5Z" class="g1_23" />
<path fill-rule="evenodd" d="M252.6,995.7l1.4,0l0,81.6l-1.4,0l0,-81.6Z" class="g1_23" />
<path fill-rule="evenodd" d="M252.6,1077.3l1.4,0l0,1.5l-1.4,0l0,-1.5Z" class="g1_23" />
<path fill-rule="evenodd" d="M254,1077.3l418,0l0,1.5l-418,0l0,-1.5Z" class="g1_23" />
<path fill-rule="evenodd" d="M672,995.7l1.4,0l0,81.6l-1.4,0l0,-81.6Z" class="g1_23" />
<path fill-rule="evenodd" d="M672,1077.3l1.4,0l0,1.5l-1.4,0l0,-1.5Z" class="g1_23" />
<path fill-rule="evenodd" d="M673.4,1077.3l177.3,0l0,1.5l-177.3,0l0,-1.5Z" class="g1_23" />
<path fill-rule="evenodd" d="M850.7,995.7l1.5,0l0,81.6l-1.5,0l0,-81.6Z" class="g1_23" />
<path fill-rule="evenodd" d="M850.7,1077.3l1.5,0l0,1.5l-1.5,0l0,-1.5Z" class="g1_23" />
<path fill-rule="evenodd" d="M850.7,1077.3l1.5,0l0,1.5l-1.5,0l0,-1.5Z" class="g1_23" />
</svg>