<?xml version="1.0" encoding="UTF-8" standalone="no"?>
<!DOCTYPE svg PUBLIC "-//W3C//DTD SVG 1.1//EN"
"http://www.w3.org/Graphics/SVG/1.1/DTD/svg11.dtd">
<svg viewBox="0 0 935 1210" version="1.1" xmlns="http://www.w3.org/2000/svg" xmlns:xlink="http://www.w3.org/1999/xlink">
<defs>
<style type="text/css"><![CDATA[
.g1_29{
fill: none;
stroke: #000000;
stroke-width: 0.5683333;
stroke-linecap: butt;
stroke-linejoin: miter;
}
.g2_29{
}
]]></style>
</defs>
<path d="M664.7,485.5c0,0.5,0,0.9,-0.1,1.3c-0.1,0.4,-0.2,0.7,-0.4,1c-0.2,0.3,-0.5,0.5,-0.8,0.7c-0.3,0.1,-0.7,0.2,-1.2,0.2c-0.2,0,-0.4,0,-0.6,-0.1c-0.1,0,-0.3,0,-0.4,-0.1c-0.1,0,-0.3,-0.1,-0.4,-0.1c-0.1,-0.1,-0.2,-0.1,-0.2,-0.2c0,0,-0.1,0,-0.1,-0.1c0,0,0,-0.1,0,-0.1c-0.1,0,-0.1,-0.1,-0.1,-0.2c0,0,0,-0.1,0,-0.2c0,-0.1,0,-0.2,0,-0.2c0,-0.1,0.1,-0.2,0.1,-0.2l0.1,-0.1l0.1,0c0,0,0.1,0.1,0.2,0.1c0.1,0.1,0.2,0.1,0.3,0.2c0.1,0,0.3,0.1,0.4,0.1c0.2,0.1,0.4,0.1,0.6,0.1c0.2,0,0.4,0,0.6,-0.1c0.2,0,0.3,-0.1,0.4,-0.3c0.1,-0.2,0.2,-0.4,0.3,-0.7c0,-0.3,0.1,-0.7,0.1,-1.1l0,-9.2c0,-0.1,0,-0.1,0,-0.2l0.1,0c0,0,0.1,-0.1,0.2,-0.1c0,0,0.1,0,0.3,0c0.1,0,0.2,0,0.2,0c0.1,0,0.2,0.1,0.2,0.1c0.1,0,0.1,0,0.1,0c0,0.1,0,0.1,0,0.2Zm15.5,4.1c0,0.1,0,0.2,0,0.2c0,0.1,0,0.2,-0.1,0.2c0,0.1,0,0.1,0,0.1c-0.1,0,-0.1,0,-0.1,0c-0.1,0,-0.3,0,-0.5,-0.1c-0.3,-0.1,-0.6,-0.3,-1,-0.4c-0.3,-0.2,-0.7,-0.5,-1.2,-0.8c-0.4,-0.2,-0.8,-0.6,-1.3,-0.9c-0.3,0.2,-0.7,0.4,-1.2,0.6c-0.5,0.1,-1.1,0.2,-1.9,0.2c-0.9,0,-1.7,-0.2,-2.4,-0.4c-0.6,-0.3,-1.2,-0.8,-1.6,-1.3c-0.4,-0.6,-0.8,-1.2,-1,-2c-0.2,-0.8,-0.3,-1.7,-0.3,-2.7c0,-1,0.1,-1.9,0.4,-2.7c0.2,-0.8,0.5,-1.4,1,-2c0.5,-0.6,1,-1,1.7,-1.3c0.7,-0.3,1.6,-0.5,2.5,-0.5c0.9,0,1.6,0.1,2.3,0.4c0.7,0.3,1.2,0.7,1.7,1.3c0.4,0.5,0.7,1.2,1,2c0.2,0.7,0.3,1.6,0.3,2.6c0,0.5,0,1,-0.1,1.5c0,0.4,-0.1,0.9,-0.3,1.3c-0.1,0.4,-0.3,0.8,-0.5,1.2c-0.1,0.4,-0.4,0.7,-0.7,1c0.6,0.4,1,0.8,1.4,1c0.4,0.2,0.7,0.4,0.9,0.5c0.3,0.1,0.5,0.2,0.6,0.3c0.1,0,0.2,0.1,0.3,0.1c0,0.1,0.1,0.2,0.1,0.3c0,0,0,0.1,0,0.3Zm-3,-7.4c0,-0.7,0,-1.4,-0.2,-2.1c-0.1,-0.6,-0.3,-1.2,-0.6,-1.7c-0.4,-0.5,-0.8,-0.8,-1.3,-1.1c-0.6,-0.3,-1.2,-0.4,-2,-0.4c-0.8,0,-1.4,0.1,-2,0.4c-0.5,0.3,-0.9,0.7,-1.3,1.2c-0.3,0.5,-0.5,1,-0.7,1.7c-0.1,0.6,-0.2,1.3,-0.2,2c0,0.8,0.1,1.5,0.2,2.1c0.1,0.7,0.3,1.3,0.7,1.8c0.3,0.4,0.7,0.8,1.2,1.1c0.6,0.3,1.2,0.4,2,0.4c0.8,0,1.5,-0.1,2,-0.4c0.6,-0.3,1,-0.7,1.3,-1.2c0.4,-0.5,0.6,-1.1,0.7,-1.7c0.2,-0.7,0.2,-1.4,0.2,-2.1Z" class="g1_29" />
<path d="M688.4,488.3c0,0.1,0,0.1,0,0.1c-0.1,0.1,-0.1,0.1,-0.1,0.1c-0.1,0,-0.1,0,-0.2,0c-0.1,0.1,-0.2,0.1,-0.3,0.1c-0.1,0,-0.2,0,-0.3,-0.1c0,0,-0.1,0,-0.1,0c-0.1,0,-0.1,0,-0.1,-0.1l0,-0.1l0,-1.2c-0.5,0.6,-1,1,-1.5,1.2c-0.5,0.3,-1,0.4,-1.5,0.4c-0.5,0,-1,-0.1,-1.4,-0.3c-0.4,-0.2,-0.7,-0.4,-1,-0.8c-0.2,-0.3,-0.4,-0.7,-0.5,-1.2c-0.1,-0.4,-0.2,-0.9,-0.2,-1.6l0,-5.3c0,0,0.1,0,0.1,-0.1l0.1,0c0,-0.1,0.1,-0.1,0.1,-0.1c0.1,0,0.2,0,0.3,0c0.1,0,0.2,0,0.3,0c0.1,0,0.1,0,0.2,0.1l0.1,0c0,0.1,0,0.1,0,0.1l0,5.3c0,0.5,0.1,0.9,0.1,1.3c0.1,0.3,0.2,0.6,0.4,0.9c0.2,0.2,0.4,0.4,0.6,0.5c0.3,0.2,0.6,0.2,1,0.2c0.4,0,0.9,-0.1,1.3,-0.5c0.4,-0.3,0.9,-0.7,1.4,-1.3l0,-6.4l0,-0.1c0,0,0.1,0,0.1,0c0.1,-0.1,0.1,-0.1,0.2,-0.1c0.1,0,0.2,0,0.3,0c0.1,0,0.2,0,0.3,0c0.1,0,0.1,0,0.1,0.1c0.1,0,0.1,0,0.1,0c0.1,0.1,0.1,0.1,0.1,0.1Z" class="g1_29" />
<path d="M698.7,483.5c0,0.2,0,0.4,-0.2,0.5c-0.1,0.1,-0.2,0.1,-0.3,0.1l-6,0c0,0.6,0,1,0.1,1.5c0.2,0.4,0.3,0.8,0.6,1.1c0.2,0.3,0.5,0.6,0.9,0.7c0.4,0.2,0.9,0.3,1.5,0.3c0.4,0,0.8,0,1.1,-0.1c0.3,-0.1,0.6,-0.2,0.8,-0.2c0.3,-0.1,0.5,-0.2,0.6,-0.3c0.2,-0.1,0.3,-0.1,0.3,-0.1c0.1,0,0.1,0,0.1,0c0.1,0,0.1,0.1,0.1,0.1c0,0.1,0.1,0.1,0.1,0.2c0,0,0,0.1,0,0.2c0,0.1,0,0.1,0,0.2l-0.1,0.1l0,0.1c0,0,-0.1,0,-0.1,0.1c0,0,-0.1,0,-0.3,0.1c-0.2,0.1,-0.4,0.2,-0.6,0.3c-0.3,0.1,-0.6,0.1,-1,0.2c-0.3,0.1,-0.7,0.1,-1.1,0.1c-0.7,0,-1.3,-0.1,-1.9,-0.3c-0.5,-0.2,-0.9,-0.5,-1.3,-0.9c-0.3,-0.4,-0.6,-0.9,-0.8,-1.5c-0.2,-0.6,-0.3,-1.3,-0.3,-2.1c0,-0.7,0.1,-1.3,0.3,-1.9c0.2,-0.6,0.5,-1.1,0.8,-1.5c0.4,-0.5,0.8,-0.8,1.3,-1c0.5,-0.2,1.1,-0.3,1.7,-0.3c0.7,0,1.2,0.1,1.7,0.3c0.5,0.2,0.9,0.5,1.2,0.9c0.3,0.4,0.5,0.8,0.6,1.3c0.1,0.5,0.2,1,0.2,1.5Zm-1.2,-0.3c0,-1,-0.2,-1.7,-0.6,-2.2c-0.5,-0.6,-1.1,-0.8,-2,-0.8c-0.4,0,-0.8,0.1,-1.1,0.2c-0.4,0.2,-0.6,0.4,-0.9,0.7c-0.2,0.3,-0.4,0.6,-0.5,0.9c-0.1,0.4,-0.2,0.8,-0.2,1.2Z" class="g1_29" />
<path d="M706.1,480c0,0.1,0,0.2,0,0.2c0,0.1,0,0.2,0,0.2c0,0,-0.1,0.1,-0.1,0.1l-0.1,0c0,0,-0.1,0,-0.2,0c0,0,-0.1,-0.1,-0.2,-0.1c-0.1,0,-0.2,-0.1,-0.4,-0.1c-0.1,0,-0.2,0,-0.4,0c-0.1,0,-0.3,0,-0.5,0.1c-0.2,0.1,-0.3,0.2,-0.5,0.3c-0.2,0.2,-0.4,0.4,-0.6,0.7c-0.2,0.3,-0.4,0.6,-0.7,1l0,5.9c0,0.1,0,0.1,0,0.1c0,0.1,-0.1,0.1,-0.1,0.1c0,0,-0.1,0,-0.2,0c-0.1,0.1,-0.2,0.1,-0.3,0.1c-0.1,0,-0.2,0,-0.2,-0.1c-0.1,0,-0.2,0,-0.2,0c-0.1,0,-0.1,0,-0.1,-0.1l0,-0.1l0,-8.8l0,-0.1l0.1,0c0,-0.1,0.1,-0.1,0.2,-0.1c0,0,0.1,0,0.2,0c0.1,0,0.2,0,0.3,0c0.1,0,0.1,0,0.1,0.1c0.1,0,0.1,0,0.1,0c0.1,0.1,0.1,0.1,0.1,0.1l0,1.4c0.2,-0.3,0.4,-0.6,0.7,-0.8c0.2,-0.3,0.4,-0.5,0.6,-0.6c0.2,-0.1,0.3,-0.2,0.5,-0.2c0.2,-0.1,0.4,-0.1,0.6,-0.1c0.1,0,0.2,0,0.3,0c0.1,0,0.2,0,0.3,0.1c0.2,0,0.3,0,0.4,0.1c0.1,0,0.2,0,0.2,0.1c0,0,0.1,0,0.1,0c0,0,0,0.1,0,0.1c0,0.1,0,0.1,0,0.2c0,0,0,0.1,0,0.2Z" class="g1_29" />
<path d="M711.5,488.5l-1.3,3.3c0,0.1,-0.1,0.1,-0.2,0.2c-0.1,0,-0.2,0.1,-0.4,0.1c-0.2,0,-0.3,-0.1,-0.4,-0.1c0,0,-0.1,0,-0.2,0c0,-0.1,0,-0.1,0,-0.2c0,0,0,-0.1,0,-0.1l1.3,-3.2c-0.1,0,-0.1,0,-0.2,-0.1c0,0,0,-0.1,0,-0.1l-3.2,-8.6c-0.1,-0.1,-0.1,-0.2,-0.1,-0.2c0,-0.1,0,-0.1,0.1,-0.1c0,-0.1,0.1,-0.1,0.1,-0.1c0.1,0,0.2,0,0.4,0c0.1,0,0.2,0,0.3,0c0.1,0,0.2,0,0.2,0.1c0.1,0,0.1,0,0.1,0c0,0.1,0.1,0.1,0.1,0.1l2.7,7.7l0.1,0l2.7,-7.7c0,0,0,-0.1,0.1,-0.1c0,-0.1,0.1,-0.1,0.2,-0.1c0.1,0,0.2,0,0.4,0c0.1,0,0.2,0,0.3,0c0,0,0.1,0.1,0.1,0.1c0.1,0,0.1,0.1,0.1,0.1c0,0.1,0,0.1,0,0.2Z" class="g1_29" />
<path d="M645.5,529.7c0,0.3,0,0.7,-0.1,1c-0.1,0.3,-0.2,0.6,-0.4,0.8c-0.1,0.3,-0.3,0.5,-0.6,0.7c-0.2,0.2,-0.5,0.4,-0.8,0.6c-0.3,0.1,-0.6,0.2,-0.9,0.3c-0.4,0,-0.8,0.1,-1.2,0.1l-3.3,0c-0.1,0,-0.2,-0.1,-0.3,-0.2c-0.1,-0.1,-0.2,-0.2,-0.2,-0.5l0,-11.3c0,-0.2,0.1,-0.4,0.2,-0.4c0.1,-0.1,0.2,-0.2,0.3,-0.2l2.7,0c0.8,0,1.4,0.1,1.8,0.2c0.5,0.2,0.8,0.4,1.1,0.7c0.3,0.2,0.6,0.6,0.7,1c0.1,0.4,0.2,0.8,0.2,1.3c0,0.3,0,0.6,-0.1,0.8c-0.1,0.3,-0.2,0.5,-0.3,0.8c-0.1,0.2,-0.3,0.4,-0.5,0.6c-0.2,0.2,-0.4,0.4,-0.7,0.5c0.3,0,0.6,0.2,0.9,0.4c0.3,0.1,0.6,0.4,0.8,0.6c0.2,0.3,0.4,0.6,0.5,1c0.2,0.3,0.2,0.7,0.2,1.2Zm-2,-5.8c0,-0.4,-0.1,-0.7,-0.2,-1c-0.1,-0.2,-0.2,-0.5,-0.4,-0.6c-0.2,-0.2,-0.5,-0.4,-0.8,-0.5c-0.3,-0.1,-0.7,-0.1,-1.3,-0.1l-1.9,0l0,4.5l2.1,0c0.5,0,0.9,-0.1,1.2,-0.2c0.3,-0.1,0.5,-0.3,0.7,-0.5c0.2,-0.2,0.3,-0.5,0.4,-0.8c0.1,-0.2,0.2,-0.5,0.2,-0.8Zm0.8,5.9c0,-0.5,-0.1,-0.8,-0.2,-1.1c-0.2,-0.4,-0.4,-0.6,-0.6,-0.8c-0.3,-0.3,-0.6,-0.4,-1,-0.5c-0.4,-0.1,-0.8,-0.2,-1.4,-0.2l-2.2,0l0,4.9l2.7,0c0.4,0,0.8,0,1.1,-0.1c0.3,-0.1,0.6,-0.3,0.8,-0.5c0.2,-0.2,0.4,-0.4,0.5,-0.7c0.2,-0.3,0.3,-0.7,0.3,-1Z" class="g1_29" />
<path d="M655.8,528.5c0,0.7,-0.1,1.3,-0.3,1.9c-0.2,0.6,-0.4,1.1,-0.8,1.5c-0.3,0.5,-0.8,0.8,-1.3,1.1c-0.6,0.2,-1.2,0.3,-1.9,0.3c-0.7,0,-1.3,-0.1,-1.8,-0.3c-0.5,-0.2,-0.9,-0.5,-1.3,-0.9c-0.3,-0.4,-0.6,-0.9,-0.8,-1.5c-0.1,-0.6,-0.2,-1.2,-0.2,-1.9c0,-0.7,0.1,-1.4,0.2,-2c0.2,-0.6,0.5,-1.1,0.8,-1.5c0.4,-0.4,0.9,-0.8,1.4,-1c0.5,-0.3,1.2,-0.4,1.9,-0.4c0.7,0,1.3,0.1,1.8,0.4c0.5,0.2,0.9,0.5,1.3,0.9c0.3,0.4,0.6,0.9,0.7,1.5c0.2,0.5,0.3,1.2,0.3,1.9Zm-1.2,0.1c0,-0.5,-0.1,-1,-0.2,-1.4c-0.1,-0.5,-0.2,-0.9,-0.5,-1.2c-0.2,-0.4,-0.5,-0.6,-0.9,-0.9c-0.3,-0.2,-0.8,-0.3,-1.4,-0.3c-0.5,0,-1,0.1,-1.4,0.3c-0.3,0.2,-0.6,0.5,-0.9,0.8c-0.2,0.3,-0.4,0.7,-0.5,1.2c-0.1,0.4,-0.2,0.9,-0.2,1.4c0,0.5,0,1,0.1,1.5c0.1,0.4,0.3,0.8,0.5,1.2c0.3,0.3,0.6,0.6,1,0.8c0.3,0.2,0.8,0.3,1.4,0.3c0.5,0,0.9,-0.1,1.3,-0.3c0.4,-0.2,0.7,-0.4,1,-0.7c0.2,-0.4,0.4,-0.8,0.5,-1.2c0.1,-0.5,0.2,-1,0.2,-1.5Z" class="g1_29" />
<path d="M666.1,528.5c0,0.7,-0.1,1.3,-0.3,1.9c-0.2,0.6,-0.5,1.1,-0.8,1.5c-0.4,0.5,-0.8,0.8,-1.4,1.1c-0.5,0.2,-1.1,0.3,-1.8,0.3c-0.7,0,-1.3,-0.1,-1.8,-0.3c-0.5,-0.2,-1,-0.5,-1.3,-0.9c-0.4,-0.4,-0.6,-0.9,-0.8,-1.5c-0.2,-0.6,-0.3,-1.2,-0.3,-1.9c0,-0.7,0.1,-1.4,0.3,-2c0.2,-0.6,0.4,-1.1,0.8,-1.5c0.4,-0.4,0.8,-0.8,1.4,-1c0.5,-0.3,1.1,-0.4,1.8,-0.4c0.7,0,1.3,0.1,1.8,0.4c0.6,0.2,1,0.5,1.3,0.9c0.4,0.4,0.6,0.9,0.8,1.5c0.2,0.5,0.3,1.2,0.3,1.9Zm-1.3,0.1c0,-0.5,0,-1,-0.1,-1.4c-0.1,-0.5,-0.3,-0.9,-0.5,-1.2c-0.2,-0.4,-0.5,-0.6,-0.9,-0.9c-0.4,-0.2,-0.9,-0.3,-1.4,-0.3c-0.6,0,-1,0.1,-1.4,0.3c-0.4,0.2,-0.7,0.5,-0.9,0.8c-0.3,0.3,-0.4,0.7,-0.6,1.2c-0.1,0.4,-0.1,0.9,-0.1,1.4c0,0.5,0,1,0.1,1.5c0.1,0.4,0.3,0.8,0.5,1.2c0.2,0.3,0.5,0.6,0.9,0.8c0.4,0.2,0.9,0.3,1.4,0.3c0.6,0,1,-0.1,1.4,-0.3c0.4,-0.2,0.7,-0.4,0.9,-0.7c0.3,-0.4,0.5,-0.8,0.6,-1.2c0.1,-0.5,0.1,-1,0.1,-1.5Z" class="g1_29" />
<path d="M672.8,532.4c0,0.2,0,0.3,-0.1,0.4c0,0.1,0,0.1,-0.1,0.2c0,0,-0.1,0.1,-0.2,0.1c-0.1,0.1,-0.2,0.1,-0.3,0.1c-0.1,0,-0.2,0.1,-0.4,0.1c-0.1,0,-0.2,0,-0.4,0c-0.4,0,-0.8,-0.1,-1.1,-0.2c-0.3,-0.1,-0.5,-0.3,-0.7,-0.5c-0.2,-0.2,-0.4,-0.5,-0.5,-0.9c0,-0.4,-0.1,-0.8,-0.1,-1.3l0,-5.4l-1.3,0c-0.1,0,-0.2,-0.1,-0.2,-0.2c-0.1,0,-0.1,-0.2,-0.1,-0.3c0,-0.1,0,-0.2,0,-0.2c0,-0.1,0.1,-0.1,0.1,-0.2c0,0,0,-0.1,0.1,-0.1c0,0,0.1,0,0.1,0l1.3,0l0,-2.2c0,0,0,-0.1,0,-0.1c0.1,0,0.1,0,0.1,-0.1c0.1,0,0.1,0,0.2,0c0.1,0,0.2,0,0.3,0c0.1,0,0.2,0,0.3,0c0.1,0,0.1,0,0.1,0c0.1,0.1,0.1,0.1,0.1,0.1c0,0,0.1,0.1,0.1,0.1l0,2.2l2.4,0c0,0,0.1,0,0.1,0c0,0,0.1,0.1,0.1,0.1c0,0.1,0.1,0.1,0.1,0.2c0,0,0,0.1,0,0.2c0,0.1,-0.1,0.3,-0.1,0.3c-0.1,0.1,-0.1,0.2,-0.2,0.2l-2.4,0l0,5.3c0,0.6,0.1,1.2,0.2,1.5c0.2,0.4,0.6,0.5,1.1,0.5c0.2,0,0.3,0,0.4,0c0.2,0,0.3,-0.1,0.4,-0.1c0.1,-0.1,0.1,-0.1,0.2,-0.1c0.1,-0.1,0.1,-0.1,0.2,-0.1l0.1,0c0,0,0,0.1,0,0.1c0,0,0.1,0.1,0.1,0.2c0,0,0,0.1,0,0.1Zm8.9,-2.6c0,0.5,-0.1,1,-0.3,1.5c-0.2,0.4,-0.5,0.8,-0.9,1.1c-0.3,0.3,-0.8,0.5,-1.3,0.7c-0.5,0.1,-1,0.2,-1.6,0.2c-0.4,0,-0.8,0,-1.1,-0.1c-0.4,0,-0.7,-0.1,-1,-0.2c-0.3,-0.1,-0.5,-0.2,-0.7,-0.4c-0.2,-0.1,-0.3,-0.2,-0.4,-0.2c-0.1,-0.1,-0.1,-0.2,-0.1,-0.3c-0.1,-0.1,-0.1,-0.2,-0.1,-0.4c0,-0.1,0,-0.2,0,-0.2c0.1,-0.1,0.1,-0.2,0.1,-0.2c0,-0.1,0,-0.1,0.1,-0.1l0.1,0c0.1,0,0.2,0,0.4,0.1c0.1,0.1,0.3,0.3,0.6,0.4c0.3,0.1,0.6,0.3,1,0.4c0.3,0.1,0.7,0.1,1.2,0.1c0.4,0,0.8,0,1.1,-0.1c0.3,-0.1,0.6,-0.3,0.9,-0.5c0.2,-0.2,0.4,-0.4,0.5,-0.7c0.2,-0.3,0.2,-0.6,0.2,-1c0,-0.4,-0.1,-0.7,-0.2,-1c-0.2,-0.3,-0.4,-0.5,-0.7,-0.7c-0.3,-0.3,-0.6,-0.5,-0.9,-0.6c-0.4,-0.2,-0.7,-0.4,-1.1,-0.5c-0.4,-0.2,-0.7,-0.4,-1.1,-0.6c-0.3,-0.2,-0.6,-0.4,-0.9,-0.7c-0.3,-0.3,-0.5,-0.6,-0.7,-0.9c-0.1,-0.4,-0.2,-0.8,-0.2,-1.4c0,-0.4,0.1,-0.9,0.2,-1.2c0.2,-0.4,0.5,-0.8,0.8,-1c0.3,-0.3,0.7,-0.5,1.1,-0.6c0.5,-0.2,1,-0.3,1.5,-0.3c0.2,0,0.5,0.1,0.8,0.1c0.3,0.1,0.5,0.1,0.8,0.2c0.2,0.1,0.4,0.2,0.6,0.3c0.2,0.1,0.3,0.2,0.4,0.2c0,0.1,0.1,0.1,0.1,0.2l0,0.1c0.1,0,0.1,0.1,0.1,0.1c0,0.1,0,0.2,0,0.3c0,0.1,0,0.1,-0.1,0.2c0,0.1,0,0.1,0,0.2l0,0.1c-0.1,0,-0.1,0,-0.1,0c-0.1,0,-0.2,0,-0.4,-0.1c-0.1,-0.1,-0.3,-0.2,-0.5,-0.3c-0.3,-0.2,-0.5,-0.3,-0.8,-0.3c-0.3,-0.1,-0.7,-0.2,-1,-0.2c-0.4,0,-0.8,0.1,-1,0.2c-0.3,0.1,-0.6,0.2,-0.8,0.4c-0.2,0.2,-0.3,0.4,-0.4,0.6c-0.1,0.2,-0.1,0.5,-0.1,0.8c0,0.4,0.1,0.7,0.2,1c0.2,0.3,0.4,0.5,0.7,0.7c0.3,0.2,0.6,0.4,1,0.6c0.3,0.1,0.7,0.3,1,0.5c0.4,0.2,0.7,0.4,1.1,0.6c0.3,0.2,0.7,0.4,0.9,0.7c0.3,0.2,0.5,0.5,0.7,0.9c0.2,0.4,0.3,0.8,0.3,1.3Z" class="g1_29" />
<path d="M688.2,532.4c0,0.2,0,0.3,-0.1,0.4c0,0.1,0,0.1,-0.1,0.2c0,0,-0.1,0.1,-0.2,0.1c-0.1,0.1,-0.2,0.1,-0.3,0.1c-0.1,0,-0.3,0.1,-0.4,0.1c-0.1,0,-0.3,0,-0.4,0c-0.4,0,-0.8,-0.1,-1.1,-0.2c-0.3,-0.1,-0.6,-0.3,-0.7,-0.5c-0.2,-0.2,-0.4,-0.5,-0.5,-0.9c-0.1,-0.4,-0.1,-0.8,-0.1,-1.3l0,-5.4l-1.3,0c-0.1,0,-0.2,-0.1,-0.2,-0.2c-0.1,0,-0.1,-0.2,-0.1,-0.3c0,-0.1,0,-0.2,0,-0.2c0,-0.1,0,-0.1,0.1,-0.2c0,0,0,-0.1,0.1,-0.1l0.1,0l1.3,0l0,-2.2c0,0,0,-0.1,0,-0.1c0,0,0.1,0,0.1,-0.1c0.1,0,0.1,0,0.2,0c0.1,0,0.2,0,0.3,0c0.1,0,0.2,0,0.3,0c0,0,0.1,0,0.1,0c0.1,0.1,0.1,0.1,0.1,0.1c0,0,0.1,0.1,0.1,0.1l0,2.2l2.4,0c0,0,0.1,0,0.1,0c0,0,0.1,0.1,0.1,0.1c0,0.1,0.1,0.1,0.1,0.2c0,0,0,0.1,0,0.2c0,0.1,-0.1,0.3,-0.1,0.3c-0.1,0.1,-0.1,0.2,-0.2,0.2l-2.4,0l0,5.3c0,0.6,0,1.2,0.2,1.5c0.2,0.4,0.6,0.5,1.1,0.5c0.1,0,0.3,0,0.4,0c0.1,0,0.3,-0.1,0.4,-0.1c0,-0.1,0.1,-0.1,0.2,-0.1c0.1,-0.1,0.1,-0.1,0.2,-0.1l0.1,0c0,0,0,0.1,0,0.1c0,0,0.1,0.1,0.1,0.2c0,0,0,0.1,0,0.1Zm7.2,-7.8c0,0.1,0,0.2,-0.1,0.3c0,0,0,0.1,0,0.1c0,0.1,0,0.1,-0.1,0.1c0,0.1,0,0.1,0,0.1c-0.1,0,-0.2,0,-0.2,-0.1c-0.1,0,-0.2,0,-0.3,-0.1c-0.1,0,-0.2,0,-0.3,0c-0.2,-0.1,-0.3,-0.1,-0.4,-0.1c-0.2,0,-0.4,0,-0.6,0.1c-0.1,0.1,-0.3,0.2,-0.5,0.4c-0.2,0.1,-0.4,0.4,-0.6,0.6c-0.2,0.3,-0.4,0.6,-0.7,1l0,6l0,0.1l-0.1,0.1c0,0,-0.1,0,-0.1,0c-0.1,0,-0.2,0,-0.3,0c-0.1,0,-0.2,0,-0.3,0c-0.1,0,-0.1,0,-0.2,0c0,-0.1,-0.1,-0.1,-0.1,-0.1c0,-0.1,0,-0.1,0,-0.1l0,-8.8c0,-0.1,0,-0.1,0,-0.1c0,-0.1,0.1,-0.1,0.1,-0.1c0.1,0,0.1,-0.1,0.2,-0.1c0,0,0.1,0,0.2,0c0.2,0,0.2,0,0.3,0c0.1,0,0.1,0.1,0.2,0.1c0,0,0.1,0,0.1,0.1l0,0.1l0,1.4c0.2,-0.4,0.5,-0.7,0.7,-0.9c0.2,-0.2,0.4,-0.4,0.6,-0.6c0.2,-0.1,0.4,-0.2,0.6,-0.2c0.1,0,0.3,-0.1,0.5,-0.1c0.1,0,0.2,0,0.3,0.1c0.1,0,0.3,0,0.4,0c0.1,0,0.2,0,0.3,0.1c0.1,0,0.2,0.1,0.2,0.1c0.1,0,0.1,0,0.1,0.1l0,0.1c0.1,0,0.1,0,0.1,0.1c0,0.1,0,0.1,0,0.2Z" class="g1_29" />
<path d="M703.4,533c0,0,0,0.1,-0.1,0.1c0,0.1,-0.1,0.1,-0.1,0.1c-0.1,0,-0.2,0,-0.3,0c-0.1,0,-0.2,0,-0.3,0c-0.1,0,-0.1,0,-0.2,-0.1c0,0,0,-0.1,0,-0.1l0,-1c-0.4,0.4,-0.9,0.8,-1.3,1c-0.5,0.2,-1,0.3,-1.5,0.3c-0.5,0,-0.9,0,-1.3,-0.1c-0.3,-0.2,-0.6,-0.3,-0.9,-0.6c-0.3,-0.2,-0.4,-0.5,-0.6,-0.8c-0.1,-0.3,-0.2,-0.6,-0.2,-1c0,-0.5,0.1,-0.9,0.3,-1.3c0.2,-0.4,0.5,-0.7,0.9,-0.9c0.4,-0.3,0.8,-0.4,1.3,-0.5c0.5,-0.2,1.1,-0.2,1.7,-0.2l1.4,0l0,-0.8c0,-0.4,0,-0.7,-0.1,-1c-0.1,-0.3,-0.2,-0.5,-0.3,-0.7c-0.2,-0.2,-0.5,-0.4,-0.7,-0.4c-0.3,-0.1,-0.7,-0.2,-1.1,-0.2c-0.3,0,-0.7,0.1,-1,0.2c-0.3,0,-0.6,0.2,-0.8,0.3c-0.3,0.1,-0.4,0.2,-0.6,0.3c-0.1,0.1,-0.3,0.1,-0.3,0.1c-0.1,0,-0.1,0,-0.1,0c-0.1,0,-0.1,0,-0.1,-0.1c0,0,-0.1,-0.1,-0.1,-0.1c0,-0.1,0,-0.1,0,-0.2c0,-0.1,0,-0.2,0,-0.3c0.1,-0.1,0.1,-0.2,0.2,-0.3c0.1,0,0.2,-0.1,0.4,-0.2c0.2,-0.2,0.5,-0.3,0.7,-0.4c0.3,-0.1,0.6,-0.1,0.9,-0.2c0.3,0,0.6,-0.1,1,-0.1c0.6,0,1.1,0.1,1.5,0.2c0.4,0.2,0.7,0.4,1,0.7c0.2,0.2,0.4,0.6,0.5,1c0.1,0.4,0.2,0.8,0.2,1.3Zm-1.2,-4.2l-1.6,0c-0.4,0,-0.8,0.1,-1.2,0.2c-0.3,0,-0.6,0.2,-0.9,0.3c-0.2,0.2,-0.4,0.4,-0.5,0.6c-0.1,0.2,-0.1,0.5,-0.1,0.8c0,0.5,0.1,0.9,0.4,1.2c0.4,0.3,0.8,0.4,1.4,0.4c0.4,0,0.9,-0.1,1.3,-0.3c0.4,-0.2,0.8,-0.6,1.2,-1.1Z" class="g1_29" />
<path d="M714.2,528.4c0,0.8,-0.1,1.5,-0.3,2.1c-0.1,0.6,-0.4,1.1,-0.7,1.5c-0.3,0.4,-0.7,0.8,-1.2,1c-0.5,0.2,-1,0.3,-1.6,0.3c-0.3,0,-0.5,0,-0.8,-0.1c-0.2,0,-0.4,-0.1,-0.6,-0.2c-0.2,-0.1,-0.5,-0.3,-0.7,-0.5c-0.2,-0.1,-0.4,-0.3,-0.7,-0.6l0,4.6l0,0.1l-0.1,0c0,0.1,-0.1,0.1,-0.2,0.1c0,0,-0.1,0,-0.2,0c-0.2,0,-0.2,0,-0.3,0c-0.1,0,-0.1,0,-0.2,-0.1c0,0,-0.1,0,-0.1,0c0,-0.1,0,-0.1,0,-0.1l0,-12.3c0,-0.1,0,-0.1,0,-0.1c0,-0.1,0,-0.1,0.1,-0.1c0,0,0.1,-0.1,0.2,-0.1c0,0,0.1,0,0.2,0c0.1,0,0.2,0,0.3,0c0,0,0.1,0.1,0.1,0.1c0.1,0,0.1,0,0.1,0.1l0,0.1l0,1.3c0.3,-0.3,0.6,-0.6,0.8,-0.8c0.3,-0.2,0.5,-0.3,0.7,-0.5c0.3,-0.1,0.6,-0.2,0.8,-0.3c0.3,0,0.6,-0.1,0.8,-0.1c0.7,0,1.2,0.1,1.7,0.4c0.4,0.2,0.8,0.6,1,1c0.3,0.4,0.5,0.9,0.7,1.4c0.1,0.6,0.2,1.2,0.2,1.8Zm-1.3,0.2c0,-0.5,0,-0.9,-0.1,-1.4c-0.1,-0.4,-0.2,-0.8,-0.4,-1.2c-0.2,-0.4,-0.4,-0.6,-0.7,-0.9c-0.3,-0.2,-0.7,-0.3,-1.2,-0.3c-0.2,0,-0.4,0,-0.6,0.1c-0.3,0.1,-0.5,0.2,-0.7,0.3c-0.3,0.2,-0.5,0.4,-0.8,0.6c-0.2,0.3,-0.5,0.5,-0.8,0.9l0,3.8c0.5,0.6,1,1.1,1.4,1.4c0.5,0.3,1,0.4,1.4,0.4c0.5,0,0.9,-0.1,1.2,-0.3c0.3,-0.2,0.6,-0.5,0.8,-0.8c0.2,-0.4,0.3,-0.8,0.4,-1.2c0.1,-0.5,0.1,-0.9,0.1,-1.4Z" class="g1_29" />
<path fill-rule="evenodd" d="M539.1,1002.6l220,0l0,1l-220,0l0,-1Z" class="g2_29" />
</svg>