<?xml version="1.0" encoding="UTF-8" standalone="no"?>
<!DOCTYPE svg PUBLIC "-//W3C//DTD SVG 1.1//EN"
"http://www.w3.org/Graphics/SVG/1.1/DTD/svg11.dtd">
<svg viewBox="0 0 935 1210" version="1.1" xmlns="http://www.w3.org/2000/svg" xmlns:xlink="http://www.w3.org/1999/xlink">
<defs>
<style type="text/css"><![CDATA[
.g1_71{
fill: #FFFFFF;
}
.g2_71{
fill: none;
stroke: #000000;
stroke-width: 0.61024034;
stroke-linecap: butt;
stroke-linejoin: miter;
}
]]></style>
</defs>
<path fill-rule="evenodd" d="M107.8,110l686.6,0l0,33.8l-686.6,0l0,-33.8Z" class="g1_71" />
<path fill-rule="evenodd" d="M107.8,203.7l686.6,0l0,33.8l-686.6,0l0,-33.8Z" class="g1_71" />
<path fill-rule="evenodd" d="M107.8,237.5l686.6,0l0,33.9l-686.6,0l0,-33.9Z" class="g1_71" />
<path fill-rule="evenodd" d="M107.8,271.4l686.6,0l0,33.9l-686.6,0l0,-33.9Z" class="g1_71" />
<path fill-rule="evenodd" d="M107.8,305.3l686.6,0l0,49.1l-686.6,0l0,-49.1Z" class="g1_71" />
<path fill-rule="evenodd" d="M107.8,354.4l686.6,0l0,33.8l-686.6,0l0,-33.8Z" class="g1_71" />
<path fill-rule="evenodd" d="M107.8,448.1l686.6,0l0,33.8l-686.6,0l0,-33.8Z" class="g1_71" />
<path fill-rule="evenodd" d="M107.8,481.9l686.6,0l0,33.8l-686.6,0l0,-33.8Z" class="g1_71" />
<path fill-rule="evenodd" d="M107.8,515.7l686.6,0l0,33.9l-686.6,0l0,-33.9Z" class="g1_71" />
<path fill-rule="evenodd" d="M107.8,549.6l686.6,0l0,49.1l-686.6,0l0,-49.1Z" class="g1_71" />
<path fill-rule="evenodd" d="M107.8,598.7l686.6,0l0,33.8l-686.6,0l0,-33.8Z" class="g1_71" />
<path d="M384.1,671.4c0,0.1,0,0.2,0,0.2c0,0.1,0,0.2,0,0.2c-0.1,0.1,-0.1,0.1,-0.1,0.1c0,0.1,-0.1,0.1,-0.1,0.2c-0.1,0.1,-0.2,0.2,-0.5,0.3c-0.2,0.2,-0.5,0.3,-0.8,0.5c-0.4,0.1,-0.7,0.3,-1.2,0.4c-0.4,0.1,-0.9,0.1,-1.4,0.1c-0.9,0,-1.6,-0.1,-2.3,-0.4c-0.7,-0.3,-1.3,-0.8,-1.8,-1.3c-0.5,-0.6,-0.8,-1.3,-1.1,-2.1c-0.3,-0.9,-0.4,-1.8,-0.4,-2.9c0,-1.1,0.2,-2.1,0.4,-3c0.3,-0.8,0.7,-1.6,1.2,-2.2c0.5,-0.6,1.1,-1.1,1.8,-1.4c0.7,-0.3,1.5,-0.5,2.4,-0.5c0.4,0,0.8,0.1,1.1,0.1c0.4,0.1,0.8,0.2,1.1,0.3c0.3,0.1,0.6,0.3,0.9,0.4c0.2,0.2,0.4,0.3,0.5,0.4c0,0.1,0.1,0.2,0.1,0.2c0.1,0.1,0.1,0.1,0.1,0.2c0,0,0,0.1,0,0.1c0,0.1,0,0.2,0,0.3c0,0.1,0,0.1,0,0.2c0,0.1,0,0.2,0,0.2c-0.1,0.1,-0.1,0.1,-0.1,0.1c-0.1,0.1,-0.1,0.1,-0.1,0.1c-0.1,0,-0.3,-0.1,-0.5,-0.3c-0.1,-0.1,-0.4,-0.3,-0.6,-0.4c-0.3,-0.2,-0.7,-0.4,-1.1,-0.5c-0.4,-0.2,-0.9,-0.2,-1.5,-0.2c-0.6,0,-1.2,0.1,-1.7,0.4c-0.6,0.2,-1,0.6,-1.4,1.1c-0.4,0.5,-0.7,1.1,-0.9,1.8c-0.2,0.7,-0.3,1.6,-0.3,2.5c0,0.9,0.1,1.7,0.3,2.4c0.2,0.7,0.5,1.3,0.8,1.8c0.4,0.4,0.8,0.8,1.4,1.1c0.5,0.2,1.1,0.3,1.8,0.3c0.6,0,1.1,-0.1,1.5,-0.2c0.4,-0.1,0.8,-0.3,1.1,-0.5c0.3,-0.1,0.6,-0.3,0.7,-0.4c0.2,-0.2,0.4,-0.2,0.5,-0.2l0.1,0l0,0.1c0.1,0,0.1,0.1,0.1,0.1c0,0.1,0,0.2,0,0.3Zm7.6,-7.3c0,0.1,0,0.2,0,0.3c0,0,0,0.1,-0.1,0.1c0,0.1,0,0.1,0,0.1c0,0.1,-0.1,0.1,-0.1,0.1c-0.1,0,-0.1,0,-0.2,-0.1c-0.1,0,-0.2,0,-0.3,-0.1c-0.1,0,-0.3,0,-0.4,-0.1c-0.1,0,-0.3,0,-0.4,0c-0.2,0,-0.4,0,-0.6,0.1c-0.2,0.1,-0.4,0.2,-0.6,0.4c-0.1,0.2,-0.4,0.4,-0.6,0.7c-0.2,0.3,-0.4,0.6,-0.7,1.1l0,6.3c0,0.1,0,0.1,0,0.2c-0.1,0,-0.1,0,-0.1,0.1c-0.1,0,-0.1,0,-0.2,0c-0.1,0,-0.2,0,-0.3,0c-0.1,0,-0.2,0,-0.3,0c-0.1,0,-0.2,0,-0.2,0c-0.1,-0.1,-0.1,-0.1,-0.1,-0.1c0,-0.1,0,-0.1,0,-0.2l0,-9.4c0,0,0,-0.1,0,-0.1c0,0,0,-0.1,0.1,-0.1c0,0,0.1,0,0.2,0c0,-0.1,0.1,-0.1,0.3,-0.1c0.1,0,0.2,0,0.3,0.1c0,0,0.1,0,0.1,0c0.1,0,0.1,0.1,0.1,0.1c0,0,0,0.1,0,0.1l0,1.5c0.3,-0.4,0.6,-0.7,0.8,-1c0.2,-0.2,0.4,-0.4,0.6,-0.5c0.2,-0.2,0.5,-0.2,0.6,-0.3c0.2,0,0.5,-0.1,0.7,-0.1c0.1,0,0.2,0,0.3,0.1c0.1,0,0.2,0,0.4,0c0.1,0,0.2,0.1,0.3,0.1c0.1,0,0.2,0.1,0.3,0.1c0,0,0,0.1,0,0.1c0.1,0,0.1,0,0.1,0.1c0,0,0,0.1,0,0.1c0,0.1,0,0.2,0,0.3Z" class="g2_71" />
<path d="M402.1,668.2c0,0.8,-0.1,1.5,-0.3,2.1c-0.2,0.6,-0.5,1.2,-0.9,1.7c-0.3,0.4,-0.8,0.8,-1.4,1c-0.6,0.3,-1.3,0.4,-2,0.4c-0.8,0,-1.4,-0.1,-2,-0.3c-0.5,-0.2,-1,-0.6,-1.3,-1c-0.4,-0.4,-0.7,-1,-0.9,-1.6c-0.2,-0.6,-0.2,-1.3,-0.2,-2.1c0,-0.7,0.1,-1.4,0.2,-2.1c0.2,-0.6,0.5,-1.1,0.9,-1.6c0.4,-0.5,0.9,-0.8,1.4,-1.1c0.6,-0.2,1.3,-0.4,2.1,-0.4c0.7,0,1.4,0.1,1.9,0.4c0.6,0.2,1,0.5,1.4,1c0.3,0.4,0.6,0.9,0.8,1.5c0.2,0.7,0.3,1.4,0.3,2.1Zm-1.3,0.1c0,-0.5,-0.1,-1,-0.2,-1.5c-0.1,-0.5,-0.3,-0.9,-0.5,-1.3c-0.2,-0.3,-0.6,-0.6,-1,-0.9c-0.4,-0.2,-0.9,-0.3,-1.5,-0.3c-0.6,0,-1.1,0.1,-1.5,0.3c-0.4,0.2,-0.7,0.5,-1,0.9c-0.2,0.3,-0.4,0.7,-0.6,1.2c-0.1,0.5,-0.1,1,-0.1,1.6c0,0.5,0,1.1,0.1,1.5c0.1,0.5,0.3,1,0.5,1.3c0.3,0.4,0.6,0.7,1,0.9c0.4,0.2,0.9,0.3,1.5,0.3c0.6,0,1.1,-0.1,1.5,-0.3c0.4,-0.2,0.7,-0.4,1,-0.8c0.3,-0.4,0.5,-0.8,0.6,-1.3c0.1,-0.4,0.2,-1,0.2,-1.6Z" class="g2_71" />
<path d="M410.3,670.5c0,0.5,-0.1,0.9,-0.3,1.3c-0.1,0.3,-0.4,0.6,-0.7,0.9c-0.3,0.2,-0.6,0.4,-1.1,0.5c-0.4,0.2,-0.9,0.2,-1.4,0.2c-0.3,0,-0.7,0,-1,0c-0.2,-0.1,-0.5,-0.2,-0.7,-0.2c-0.3,-0.1,-0.5,-0.2,-0.6,-0.3c-0.2,-0.1,-0.3,-0.2,-0.4,-0.2c-0.1,-0.1,-0.1,-0.2,-0.2,-0.3c0,-0.1,0,-0.2,0,-0.4c0,-0.1,0,-0.2,0,-0.2c0,-0.1,0,-0.2,0.1,-0.2c0,-0.1,0,-0.1,0.1,-0.1c0,-0.1,0,-0.1,0.1,-0.1c0,0,0.1,0.1,0.3,0.2c0.1,0.1,0.3,0.2,0.5,0.3c0.3,0.1,0.5,0.2,0.8,0.3c0.3,0.1,0.7,0.2,1.1,0.2c0.3,0,0.6,-0.1,0.8,-0.1c0.3,-0.1,0.5,-0.2,0.7,-0.4c0.2,-0.1,0.4,-0.3,0.5,-0.5c0.1,-0.2,0.1,-0.5,0.1,-0.8c0,-0.3,0,-0.5,-0.2,-0.7c-0.1,-0.2,-0.3,-0.4,-0.5,-0.5c-0.2,-0.2,-0.5,-0.3,-0.8,-0.4c-0.3,-0.1,-0.6,-0.3,-0.9,-0.4c-0.3,-0.1,-0.6,-0.2,-0.8,-0.4c-0.3,-0.1,-0.6,-0.3,-0.8,-0.5c-0.2,-0.2,-0.4,-0.5,-0.6,-0.8c-0.1,-0.3,-0.2,-0.6,-0.2,-1c0,-0.3,0.1,-0.7,0.2,-1c0.1,-0.3,0.3,-0.6,0.6,-0.8c0.3,-0.3,0.6,-0.5,1,-0.6c0.4,-0.2,0.9,-0.3,1.4,-0.3c0.3,0,0.5,0.1,0.7,0.1c0.3,0,0.5,0.1,0.7,0.1c0.2,0.1,0.3,0.2,0.5,0.2c0.1,0.1,0.2,0.2,0.3,0.2c0.1,0.1,0.1,0.1,0.1,0.2c0.1,0,0.1,0,0.1,0.1c0,0,0,0.1,0,0.1c0,0.1,0,0.2,0,0.3c0,0,0,0.1,0,0.2c0,0.1,0,0.1,0,0.2c-0.1,0,-0.1,0,-0.1,0.1c0,0,-0.1,0,-0.1,0c-0.1,0,-0.2,0,-0.3,-0.1c-0.1,-0.1,-0.2,-0.2,-0.4,-0.3c-0.2,-0.1,-0.4,-0.1,-0.7,-0.2c-0.2,-0.1,-0.5,-0.1,-0.8,-0.1c-0.3,0,-0.6,0,-0.9,0.1c-0.2,0.1,-0.4,0.2,-0.6,0.3c-0.2,0.1,-0.3,0.3,-0.4,0.5c0,0.2,-0.1,0.4,-0.1,0.6c0,0.3,0.1,0.6,0.2,0.8c0.2,0.2,0.4,0.4,0.6,0.5c0.2,0.2,0.5,0.3,0.8,0.5c0.3,0.1,0.5,0.2,0.9,0.3c0.2,0.1,0.5,0.2,0.8,0.4c0.3,0.1,0.6,0.3,0.8,0.5c0.3,0.2,0.4,0.5,0.6,0.7c0.1,0.3,0.2,0.6,0.2,1Zm8.3,0c0,0.5,-0.1,0.9,-0.3,1.3c-0.2,0.3,-0.4,0.6,-0.7,0.9c-0.3,0.2,-0.7,0.4,-1.1,0.5c-0.5,0.2,-0.9,0.2,-1.4,0.2c-0.4,0,-0.7,0,-1,0c-0.3,-0.1,-0.5,-0.2,-0.8,-0.2c-0.2,-0.1,-0.4,-0.2,-0.6,-0.3c-0.1,-0.1,-0.3,-0.2,-0.3,-0.2c-0.1,-0.1,-0.2,-0.2,-0.2,-0.3c0,-0.1,0,-0.2,0,-0.4c0,-0.1,0,-0.2,0,-0.2c0,-0.1,0,-0.2,0,-0.2c0.1,-0.1,0.1,-0.1,0.1,-0.1c0.1,-0.1,0.1,-0.1,0.1,-0.1c0.1,0,0.2,0.1,0.4,0.2c0.1,0.1,0.3,0.2,0.5,0.3c0.2,0.1,0.5,0.2,0.8,0.3c0.3,0.1,0.6,0.2,1,0.2c0.4,0,0.6,-0.1,0.9,-0.1c0.3,-0.1,0.5,-0.2,0.7,-0.4c0.2,-0.1,0.3,-0.3,0.4,-0.5c0.1,-0.2,0.2,-0.5,0.2,-0.8c0,-0.3,-0.1,-0.5,-0.2,-0.7c-0.1,-0.2,-0.3,-0.4,-0.5,-0.5c-0.3,-0.2,-0.5,-0.3,-0.8,-0.4c-0.3,-0.1,-0.6,-0.3,-0.9,-0.4c-0.3,-0.1,-0.6,-0.2,-0.9,-0.4c-0.3,-0.1,-0.5,-0.3,-0.7,-0.5c-0.3,-0.2,-0.5,-0.5,-0.6,-0.8c-0.1,-0.3,-0.2,-0.6,-0.2,-1c0,-0.3,0,-0.7,0.2,-1c0.1,-0.3,0.3,-0.6,0.6,-0.8c0.2,-0.3,0.6,-0.5,1,-0.6c0.4,-0.2,0.8,-0.3,1.4,-0.3c0.2,0,0.5,0.1,0.7,0.1c0.2,0,0.5,0.1,0.6,0.1c0.2,0.1,0.4,0.2,0.5,0.2c0.2,0.1,0.3,0.2,0.4,0.2c0,0.1,0.1,0.1,0.1,0.2c0,0,0.1,0,0.1,0.1c0,0,0,0.1,0,0.1c0,0.1,0,0.2,0,0.3c0,0,0,0.1,0,0.2c0,0.1,-0.1,0.1,-0.1,0.2l0,0.1c-0.1,0,-0.1,0,-0.2,0c0,0,-0.1,0,-0.2,-0.1c-0.1,-0.1,-0.3,-0.2,-0.5,-0.3c-0.1,-0.1,-0.4,-0.1,-0.6,-0.2c-0.2,-0.1,-0.5,-0.1,-0.9,-0.1c-0.3,0,-0.6,0,-0.8,0.1c-0.3,0.1,-0.5,0.2,-0.6,0.3c-0.2,0.1,-0.3,0.3,-0.4,0.5c-0.1,0.2,-0.1,0.4,-0.1,0.6c0,0.3,0.1,0.6,0.2,0.8c0.1,0.2,0.3,0.4,0.5,0.5c0.3,0.2,0.5,0.3,0.8,0.5c0.3,0.1,0.6,0.2,0.9,0.3c0.3,0.1,0.6,0.2,0.9,0.4c0.3,0.1,0.6,0.3,0.8,0.5c0.2,0.2,0.4,0.5,0.5,0.7c0.2,0.3,0.3,0.6,0.3,1Zm13,0c0,0.5,0,0.9,-0.2,1.3c-0.2,0.3,-0.4,0.6,-0.7,0.9c-0.3,0.2,-0.7,0.4,-1.1,0.5c-0.5,0.2,-0.9,0.2,-1.4,0.2c-0.4,0,-0.7,0,-1,0c-0.3,-0.1,-0.5,-0.2,-0.8,-0.2c-0.2,-0.1,-0.4,-0.2,-0.6,-0.3c-0.1,-0.1,-0.3,-0.2,-0.3,-0.2c-0.1,-0.1,-0.2,-0.2,-0.2,-0.3c0,-0.1,-0.1,-0.2,-0.1,-0.4c0,-0.1,0.1,-0.2,0.1,-0.2c0,-0.1,0,-0.2,0,-0.2c0,-0.1,0.1,-0.1,0.1,-0.1c0,-0.1,0.1,-0.1,0.1,-0.1c0.1,0,0.2,0.1,0.3,0.2c0.2,0.1,0.4,0.2,0.6,0.3c0.2,0.1,0.5,0.2,0.8,0.3c0.3,0.1,0.6,0.2,1,0.2c0.3,0,0.6,-0.1,0.9,-0.1c0.3,-0.1,0.5,-0.2,0.7,-0.4c0.2,-0.1,0.3,-0.3,0.4,-0.5c0.1,-0.2,0.2,-0.5,0.2,-0.8c0,-0.3,-0.1,-0.5,-0.2,-0.7c-0.1,-0.2,-0.3,-0.4,-0.5,-0.5c-0.3,-0.2,-0.5,-0.3,-0.8,-0.4c-0.3,-0.1,-0.6,-0.3,-0.9,-0.4c-0.3,-0.1,-0.6,-0.2,-0.9,-0.4c-0.3,-0.1,-0.5,-0.3,-0.8,-0.5c-0.2,-0.2,-0.4,-0.5,-0.5,-0.8c-0.1,-0.3,-0.2,-0.6,-0.2,-1c0,-0.3,0,-0.7,0.2,-1c0.1,-0.3,0.3,-0.6,0.5,-0.8c0.3,-0.3,0.6,-0.5,1,-0.6c0.5,-0.2,0.9,-0.3,1.5,-0.3c0.2,0,0.5,0.1,0.7,0.1c0.2,0,0.5,0.1,0.6,0.1c0.2,0.1,0.4,0.2,0.5,0.2c0.2,0.1,0.3,0.2,0.4,0.2c0,0.1,0.1,0.1,0.1,0.2l0,0.1c0.1,0,0.1,0.1,0.1,0.1c0,0.1,0,0.2,0,0.3c0,0,0,0.1,0,0.2c-0.1,0.1,-0.1,0.1,-0.1,0.2L431,665l-0.1,0c0,0,-0.1,0,-0.2,-0.1c-0.1,-0.1,-0.3,-0.2,-0.5,-0.3c-0.1,-0.1,-0.4,-0.1,-0.6,-0.2c-0.2,-0.1,-0.5,-0.1,-0.9,-0.1c-0.3,0,-0.6,0,-0.8,0.1c-0.3,0.1,-0.5,0.2,-0.6,0.3c-0.2,0.1,-0.3,0.3,-0.4,0.5c-0.1,0.2,-0.1,0.4,-0.1,0.6c0,0.3,0,0.6,0.2,0.8c0.1,0.2,0.3,0.4,0.5,0.5c0.3,0.2,0.5,0.3,0.8,0.5c0.3,0.1,0.6,0.2,0.9,0.3c0.3,0.1,0.6,0.2,0.9,0.4c0.3,0.1,0.6,0.3,0.8,0.5c0.2,0.2,0.4,0.5,0.5,0.7c0.2,0.3,0.2,0.6,0.2,1Zm4,2.5c0,0.1,0,0.1,0,0.2c-0.1,0,-0.1,0,-0.1,0.1c-0.1,0,-0.1,0,-0.2,0c-0.1,0,-0.2,0,-0.3,0c-0.1,0,-0.2,0,-0.3,0c-0.1,0,-0.2,0,-0.2,0c-0.1,-0.1,-0.1,-0.1,-0.1,-0.1c0,-0.1,0,-0.1,0,-0.2l0,-9.4c0,0,0,-0.1,0,-0.1c0,0,0,-0.1,0.1,-0.1c0,0,0.1,0,0.2,0c0.1,-0.1,0.2,-0.1,0.3,-0.1c0.1,0,0.2,0,0.3,0.1c0.1,0,0.1,0,0.2,0c0,0,0,0.1,0.1,0.1c0,0,0,0.1,0,0.1Zm0.2,-12.6c0,0.4,-0.1,0.6,-0.2,0.7c-0.1,0.1,-0.3,0.2,-0.6,0.2c-0.3,0,-0.5,-0.1,-0.7,-0.2c-0.1,-0.1,-0.1,-0.3,-0.1,-0.7c0,-0.3,0,-0.5,0.1,-0.6c0.2,-0.2,0.4,-0.2,0.7,-0.2c0.3,0,0.5,0,0.6,0.1c0.1,0.2,0.2,0.4,0.2,0.7Zm7.9,12.1c0,0.1,-0.1,0.3,-0.1,0.4c0,0,-0.1,0.1,-0.1,0.2c-0.1,0,-0.1,0.1,-0.3,0.1c0,0,-0.2,0.1,-0.3,0.1c-0.1,0,-0.3,0.1,-0.4,0.1c-0.2,0,-0.3,0,-0.4,0c-0.5,0,-0.9,0,-1.2,-0.2c-0.4,-0.1,-0.6,-0.3,-0.8,-0.5c-0.2,-0.3,-0.4,-0.6,-0.5,-1c-0.1,-0.4,-0.1,-0.8,-0.1,-1.4l0,-5.8l-1.4,0c-0.1,0,-0.2,-0.1,-0.3,-0.2c0,-0.1,0,-0.2,0,-0.4c0,-0.1,0,-0.1,0,-0.2c0,-0.1,0,-0.1,0,-0.2c0.1,0,0.1,-0.1,0.1,-0.1c0.1,0,0.1,0,0.2,0l1.4,0l0,-2.3c0,-0.1,0,-0.1,0,-0.1c0,-0.1,0,-0.1,0.1,-0.1c0,0,0.1,-0.1,0.2,-0.1c0.1,0,0.2,0,0.3,0c0.1,0,0.2,0,0.3,0c0.1,0,0.1,0.1,0.2,0.1c0,0,0.1,0,0.1,0.1l0,0.1l0,2.3l2.6,0c0.1,0,0.1,0,0.1,0c0.1,0,0.1,0.1,0.2,0.1c0,0.1,0,0.1,0,0.2c0,0.1,0.1,0.1,0.1,0.2c0,0.2,-0.1,0.3,-0.1,0.4c-0.1,0.1,-0.2,0.2,-0.3,0.2l-2.6,0l0,5.7c0,0.7,0.1,1.2,0.3,1.6c0.2,0.4,0.6,0.6,1.1,0.6c0.2,0,0.4,-0.1,0.5,-0.1c0.1,0,0.3,-0.1,0.4,-0.1c0.1,-0.1,0.2,-0.1,0.2,-0.1c0.1,-0.1,0.2,-0.1,0.2,-0.1c0.1,0,0.1,0,0.1,0c0,0.1,0.1,0.1,0.1,0.1c0,0.1,0,0.1,0,0.2c0,0,0.1,0.1,0.1,0.2Zm10.1,-4.7c0,0.3,-0.1,0.5,-0.2,0.6c-0.1,0.1,-0.2,0.1,-0.4,0.1l-6.4,0c0,0.6,0,1.1,0.2,1.6c0.1,0.5,0.3,0.9,0.5,1.2c0.3,0.3,0.6,0.6,1.1,0.8c0.4,0.2,0.9,0.3,1.5,0.3c0.5,0,0.9,-0.1,1.2,-0.2c0.3,0,0.7,-0.1,0.9,-0.2c0.3,-0.1,0.5,-0.2,0.6,-0.3c0.2,0,0.3,-0.1,0.4,-0.1c0,0,0.1,0,0.1,0.1c0,0,0.1,0,0.1,0.1l0,0.1c0,0.1,0.1,0.2,0.1,0.3c0,0,-0.1,0.1,-0.1,0.1c0,0.1,0,0.1,0,0.1c0,0.1,0,0.1,0,0.1c-0.1,0.1,-0.1,0.1,-0.1,0.2c-0.1,0,-0.2,0.1,-0.3,0.2c-0.2,0,-0.5,0.1,-0.7,0.2c-0.3,0.1,-0.7,0.2,-1.1,0.2c-0.3,0.1,-0.8,0.1,-1.2,0.1c-0.7,0,-1.4,-0.1,-2,-0.3c-0.5,-0.2,-1,-0.5,-1.4,-1c-0.4,-0.4,-0.7,-0.9,-0.9,-1.5c-0.1,-0.7,-0.2,-1.4,-0.2,-2.3c0,-0.8,0.1,-1.5,0.3,-2.1c0.2,-0.6,0.5,-1.2,0.8,-1.6c0.4,-0.4,0.9,-0.8,1.4,-1c0.6,-0.2,1.2,-0.4,1.8,-0.4c0.7,0,1.3,0.2,1.8,0.4c0.5,0.2,1,0.5,1.3,0.9c0.3,0.4,0.6,0.9,0.7,1.4c0.1,0.6,0.2,1.1,0.2,1.7Zm-1.3,-0.3c0.1,-1,-0.2,-1.8,-0.6,-2.4c-0.5,-0.5,-1.2,-0.8,-2.1,-0.8c-0.5,0,-0.9,0.1,-1.3,0.2c-0.4,0.2,-0.7,0.5,-0.9,0.8c-0.3,0.3,-0.4,0.6,-0.6,1c-0.1,0.4,-0.2,0.8,-0.2,1.2Z" class="g2_71" />
<path d="M466.9,670.5c0,0.5,-0.1,0.9,-0.3,1.3c-0.1,0.3,-0.3,0.6,-0.6,0.9c-0.4,0.2,-0.7,0.4,-1.2,0.5c-0.4,0.2,-0.9,0.2,-1.4,0.2c-0.3,0,-0.6,0,-0.9,0c-0.3,-0.1,-0.6,-0.2,-0.8,-0.2c-0.2,-0.1,-0.4,-0.2,-0.6,-0.3c-0.2,-0.1,-0.3,-0.2,-0.4,-0.2c0,-0.1,-0.1,-0.2,-0.1,-0.3c-0.1,-0.1,-0.1,-0.2,-0.1,-0.4c0,-0.1,0,-0.2,0,-0.2c0,-0.1,0.1,-0.2,0.1,-0.2c0,-0.1,0,-0.1,0.1,-0.1c0,-0.1,0.1,-0.1,0.1,-0.1c0.1,0,0.2,0.1,0.3,0.2c0.2,0.1,0.3,0.2,0.6,0.3c0.2,0.1,0.4,0.2,0.7,0.3c0.3,0.1,0.7,0.2,1.1,0.2c0.3,0,0.6,-0.1,0.9,-0.1c0.2,-0.1,0.5,-0.2,0.6,-0.4c0.2,-0.1,0.4,-0.3,0.5,-0.5c0.1,-0.2,0.2,-0.5,0.2,-0.8c0,-0.3,-0.1,-0.5,-0.2,-0.7c-0.2,-0.2,-0.4,-0.4,-0.6,-0.5c-0.2,-0.2,-0.5,-0.3,-0.8,-0.4c-0.2,-0.1,-0.5,-0.3,-0.8,-0.4c-0.3,-0.1,-0.6,-0.2,-0.9,-0.4c-0.3,-0.1,-0.6,-0.3,-0.8,-0.5c-0.2,-0.2,-0.4,-0.5,-0.5,-0.8c-0.2,-0.3,-0.3,-0.6,-0.3,-1c0,-0.3,0.1,-0.7,0.2,-1c0.2,-0.3,0.4,-0.6,0.6,-0.8c0.3,-0.3,0.6,-0.5,1,-0.6c0.4,-0.2,0.9,-0.3,1.5,-0.3c0.2,0,0.4,0.1,0.7,0.1c0.2,0,0.4,0.1,0.6,0.1c0.2,0.1,0.4,0.2,0.5,0.2c0.1,0.1,0.2,0.2,0.3,0.2c0.1,0.1,0.1,0.1,0.2,0.2l0,0.1c0,0,0,0.1,0,0.1c0,0.1,0.1,0.2,0.1,0.3c0,0,-0.1,0.1,-0.1,0.2c0,0.1,0,0.1,0,0.2c0,0,-0.1,0,-0.1,0.1c0,0,-0.1,0,-0.1,0c-0.1,0,-0.1,0,-0.2,-0.1c-0.2,-0.1,-0.3,-0.2,-0.5,-0.3c-0.2,-0.1,-0.4,-0.1,-0.6,-0.2c-0.3,-0.1,-0.6,-0.1,-0.9,-0.1c-0.3,0,-0.6,0,-0.9,0.1c-0.2,0.1,-0.4,0.2,-0.6,0.3c-0.1,0.1,-0.3,0.3,-0.3,0.5c-0.1,0.2,-0.2,0.4,-0.2,0.6c0,0.3,0.1,0.6,0.3,0.8c0.1,0.2,0.3,0.4,0.5,0.5c0.2,0.2,0.5,0.3,0.8,0.5c0.3,0.1,0.6,0.2,0.9,0.3c0.3,0.1,0.6,0.2,0.9,0.4c0.3,0.1,0.5,0.3,0.7,0.5c0.3,0.2,0.5,0.5,0.6,0.7c0.1,0.3,0.2,0.6,0.2,1Zm9.3,1.2c0,0,0,0.1,0,0.2c0,0,0,0.1,0,0.1c0,0.1,0,0.1,-0.1,0.2c0,0,-0.1,0.1,-0.2,0.2c0,0.1,-0.2,0.2,-0.4,0.3c-0.2,0.2,-0.5,0.3,-0.7,0.4c-0.3,0.1,-0.6,0.2,-0.9,0.2c-0.3,0.1,-0.6,0.1,-0.9,0.1c-0.7,0,-1.3,-0.1,-1.8,-0.3c-0.5,-0.2,-0.9,-0.5,-1.2,-1c-0.4,-0.4,-0.6,-0.9,-0.8,-1.5c-0.2,-0.7,-0.3,-1.4,-0.3,-2.2c0,-0.9,0.1,-1.7,0.4,-2.3c0.2,-0.7,0.5,-1.2,0.9,-1.6c0.3,-0.5,0.8,-0.8,1.3,-1c0.5,-0.2,1.1,-0.3,1.6,-0.3c0.4,0,0.7,0.1,1,0.1c0.2,0.1,0.5,0.1,0.7,0.2c0.3,0.1,0.5,0.3,0.7,0.4c0.2,0.1,0.3,0.2,0.4,0.3c0.1,0.1,0.1,0.2,0.2,0.2c0,0.1,0,0.1,0,0.2c0.1,0,0.1,0.1,0.1,0.1c0,0.1,0,0.2,0,0.3c0,0.2,-0.1,0.3,-0.1,0.4c-0.1,0.1,-0.1,0.1,-0.2,0.1c-0.1,0,-0.2,-0.1,-0.3,-0.2c-0.2,-0.1,-0.4,-0.2,-0.6,-0.4c-0.2,-0.1,-0.5,-0.3,-0.8,-0.4c-0.3,-0.1,-0.7,-0.2,-1.1,-0.2c-0.9,0,-1.6,0.4,-2.1,1.1c-0.5,0.6,-0.8,1.6,-0.8,3c0,0.6,0.1,1.2,0.2,1.7c0.1,0.5,0.3,0.9,0.6,1.3c0.2,0.3,0.6,0.5,0.9,0.7c0.3,0.2,0.8,0.2,1.2,0.2c0.4,0,0.8,0,1.1,-0.2c0.3,-0.1,0.6,-0.3,0.8,-0.4c0.3,-0.2,0.5,-0.3,0.6,-0.4c0.2,-0.2,0.3,-0.2,0.4,-0.2l0.1,0c0,0,0,0.1,0.1,0.1c0,0.1,0,0.1,0,0.2c0,0.1,0,0.2,0,0.3Z" class="g2_71" />
<path d="M483.9,664.1c0,0.1,-0.1,0.2,-0.1,0.3c0,0,0,0.1,0,0.1c0,0.1,0,0.1,-0.1,0.1c0,0.1,0,0.1,0,0.1c-0.1,0,-0.2,0,-0.3,-0.1c-0.1,0,-0.2,0,-0.3,-0.1c-0.1,0,-0.2,0,-0.3,-0.1c-0.1,0,-0.3,0,-0.4,0c-0.2,0,-0.4,0,-0.6,0.1c-0.2,0.1,-0.4,0.2,-0.6,0.4c-0.2,0.2,-0.4,0.4,-0.6,0.7c-0.2,0.3,-0.5,0.6,-0.7,1.1l0,6.3c0,0.1,0,0.1,-0.1,0.2l-0.1,0.1c0,0,-0.1,0,-0.1,0c-0.1,0,-0.2,0,-0.3,0c-0.2,0,-0.3,0,-0.4,0c0,0,-0.1,0,-0.2,0c0,-0.1,0,-0.1,0,-0.1c-0.1,-0.1,-0.1,-0.1,-0.1,-0.2l0,-9.4c0,0,0,-0.1,0.1,-0.1c0,0,0,-0.1,0,-0.1c0.1,0,0.2,0,0.2,0c0.1,-0.1,0.2,-0.1,0.3,-0.1c0.1,0,0.2,0,0.3,0.1c0.1,0,0.1,0,0.2,0c0,0,0.1,0.1,0.1,0.1c0,0,0,0.1,0,0.1l0,1.5c0.3,-0.4,0.5,-0.7,0.7,-1c0.3,-0.2,0.5,-0.4,0.7,-0.5c0.2,-0.2,0.4,-0.2,0.6,-0.3c0.2,0,0.4,-0.1,0.6,-0.1c0.1,0,0.2,0,0.3,0.1c0.2,0,0.3,0,0.4,0c0.2,0,0.3,0.1,0.4,0.1c0.1,0,0.2,0.1,0.2,0.1c0.1,0,0.1,0.1,0.1,0.1l0,0.1c0,0,0.1,0.1,0.1,0.1c0,0.1,0,0.2,0,0.3Zm3.3,8.9c0,0.1,0,0.1,0,0.2c0,0,-0.1,0,-0.1,0.1c0,0,-0.1,0,-0.2,0c-0.1,0,-0.2,0,-0.3,0c-0.1,0,-0.2,0,-0.3,0c-0.1,0,-0.1,0,-0.2,0c0,-0.1,-0.1,-0.1,-0.1,-0.1c0,-0.1,0,-0.1,0,-0.2l0,-9.4c0,0,0,-0.1,0,-0.1c0,0,0.1,-0.1,0.1,-0.1c0.1,0,0.1,0,0.2,0c0.1,-0.1,0.2,-0.1,0.3,-0.1c0.1,0,0.2,0,0.3,0.1c0.1,0,0.2,0,0.2,0c0,0,0.1,0.1,0.1,0.1c0,0,0,0.1,0,0.1Zm0.2,-12.6c0,0.4,0,0.6,-0.2,0.7c-0.1,0.1,-0.3,0.2,-0.6,0.2c-0.3,0,-0.5,-0.1,-0.6,-0.2c-0.1,-0.1,-0.2,-0.3,-0.2,-0.7c0,-0.3,0.1,-0.5,0.2,-0.6c0.1,-0.2,0.3,-0.2,0.6,-0.2c0.3,0,0.5,0,0.6,0.1c0.2,0.2,0.2,0.4,0.2,0.7Zm11.6,7.8c0,0.8,-0.1,1.5,-0.3,2.2c-0.2,0.6,-0.5,1.2,-0.8,1.6c-0.3,0.5,-0.8,0.8,-1.3,1.1c-0.5,0.2,-1.1,0.3,-1.7,0.3c-0.3,0,-0.6,0,-0.8,-0.1c-0.2,0,-0.5,-0.1,-0.7,-0.2c-0.3,-0.2,-0.5,-0.3,-0.7,-0.5c-0.3,-0.2,-0.5,-0.4,-0.7,-0.7l0,4.9c0,0,-0.1,0.1,-0.1,0.1c0,0,0,0.1,-0.1,0.1c0,0,-0.1,0,-0.2,0.1c0,0,-0.1,0,-0.3,0c-0.1,0,-0.2,0,-0.3,0C490.9,677,490.9,677,490.8,677c0,0,0,-0.1,-0.1,-0.1c0,0,0,-0.1,0,-0.1l0,-13.2c0,0,0,-0.1,0,-0.1c0.1,-0.1,0.1,-0.1,0.1,-0.1c0.1,0,0.1,0,0.2,0c0.1,-0.1,0.2,-0.1,0.3,-0.1c0.1,0,0.2,0,0.2,0.1c0.1,0,0.2,0,0.2,0c0.1,0,0.1,0,0.1,0.1c0,0,0.1,0.1,0.1,0.1l0,1.4c0.2,-0.3,0.5,-0.6,0.8,-0.8c0.2,-0.2,0.5,-0.4,0.8,-0.5c0.2,-0.2,0.5,-0.3,0.8,-0.4c0.3,0,0.6,-0.1,0.9,-0.1c0.7,0,1.2,0.2,1.7,0.4c0.5,0.3,0.9,0.6,1.2,1.1c0.3,0.4,0.5,1,0.6,1.6c0.2,0.6,0.3,1.2,0.3,1.9Zm-1.3,0.2c0,-0.5,-0.1,-1,-0.2,-1.5c-0.1,-0.5,-0.2,-1,-0.4,-1.3c-0.2,-0.4,-0.5,-0.7,-0.8,-1c-0.3,-0.2,-0.7,-0.3,-1.2,-0.3c-0.3,0,-0.5,0,-0.8,0.1c-0.2,0.1,-0.5,0.2,-0.7,0.3c-0.3,0.2,-0.5,0.4,-0.8,0.7c-0.3,0.2,-0.5,0.5,-0.8,0.9l0,4.1c0.5,0.6,1,1.1,1.5,1.5c0.4,0.3,0.9,0.5,1.4,0.5c0.5,0,0.9,-0.1,1.3,-0.4c0.3,-0.2,0.6,-0.5,0.8,-0.9c0.2,-0.4,0.4,-0.8,0.5,-1.3c0.1,-0.5,0.2,-0.9,0.2,-1.4Z" class="g2_71" />
<path d="M506.3,672.5c0,0.1,0,0.3,-0.1,0.4c0,0,0,0.1,-0.1,0.2c0,0,-0.1,0.1,-0.2,0.1c-0.1,0,-0.2,0.1,-0.3,0.1c-0.2,0,-0.3,0.1,-0.5,0.1c-0.1,0,-0.3,0,-0.4,0c-0.5,0,-0.9,0,-1.2,-0.2c-0.3,-0.1,-0.6,-0.3,-0.8,-0.5c-0.2,-0.3,-0.3,-0.6,-0.4,-1c-0.1,-0.4,-0.2,-0.8,-0.2,-1.4l0,-5.8l-1.4,0c-0.1,0,-0.2,-0.1,-0.2,-0.2c-0.1,-0.1,-0.1,-0.2,-0.1,-0.4c0,-0.1,0,-0.1,0,-0.2c0,-0.1,0.1,-0.1,0.1,-0.2c0,0,0,-0.1,0.1,-0.1c0,0,0.1,0,0.1,0l1.4,0l0,-2.3c0,-0.1,0,-0.1,0,-0.1c0.1,-0.1,0.1,-0.1,0.1,-0.1c0.1,0,0.1,-0.1,0.2,-0.1c0.1,0,0.2,0,0.3,0c0.2,0,0.3,0,0.4,0c0,0,0.1,0.1,0.1,0.1c0.1,0,0.1,0,0.1,0.1c0,0,0.1,0,0.1,0.1l0,2.3l2.6,0l0.1,0c0,0,0.1,0.1,0.1,0.1c0,0.1,0.1,0.1,0.1,0.2c0,0.1,0,0.1,0,0.2c0,0.2,0,0.3,-0.1,0.4c-0.1,0.1,-0.1,0.2,-0.2,0.2l-2.6,0l0,5.7c0,0.7,0.1,1.2,0.3,1.6c0.2,0.4,0.6,0.6,1.1,0.6c0.2,0,0.3,-0.1,0.4,-0.1c0.2,0,0.3,-0.1,0.4,-0.1c0.1,-0.1,0.2,-0.1,0.3,-0.1c0,-0.1,0.1,-0.1,0.2,-0.1l0.1,0c0,0.1,0,0.1,0,0.1c0,0.1,0.1,0.1,0.1,0.2c0,0,0,0.1,0,0.2ZM510,673c0,0.1,0,0.1,0,0.2c-0.1,0,-0.1,0,-0.1,0.1c-0.1,0,-0.1,0,-0.2,0c-0.1,0,-0.2,0,-0.3,0c-0.1,0,-0.2,0,-0.3,0c-0.1,0,-0.2,0,-0.2,0c-0.1,-0.1,-0.1,-0.1,-0.1,-0.1c0,-0.1,0,-0.1,0,-0.2l0,-9.4c0,0,0,-0.1,0,-0.1c0,0,0,-0.1,0.1,-0.1c0,0,0.1,0,0.2,0c0.1,-0.1,0.2,-0.1,0.3,-0.1c0.1,0,0.2,0,0.3,0.1c0.1,0,0.1,0,0.2,0c0,0,0,0.1,0.1,0.1c0,0,0,0.1,0,0.1Zm0.2,-12.6c0,0.4,-0.1,0.6,-0.2,0.7c-0.1,0.1,-0.3,0.2,-0.6,0.2c-0.3,0,-0.6,-0.1,-0.7,-0.2c-0.1,-0.1,-0.1,-0.3,-0.1,-0.7c0,-0.3,0,-0.5,0.1,-0.6c0.2,-0.2,0.4,-0.2,0.7,-0.2c0.3,0,0.5,0,0.6,0.1c0.1,0.2,0.2,0.4,0.2,0.7ZM521.1,673c0,0.1,0,0.1,0,0.2l-0.1,0.1c0,0,-0.1,0,-0.2,0c-0.1,0,-0.2,0,-0.3,0c-0.1,0,-0.2,0,-0.3,0c-0.1,0,-0.1,0,-0.2,0c0,-0.1,-0.1,-0.1,-0.1,-0.1c0,-0.1,0,-0.1,0,-0.2l0,-5.5c0,-0.6,0,-1.1,-0.1,-1.5c-0.1,-0.3,-0.3,-0.6,-0.4,-0.9c-0.2,-0.3,-0.5,-0.5,-0.7,-0.6c-0.3,-0.2,-0.7,-0.2,-1,-0.2c-0.5,0,-1,0.1,-1.5,0.5c-0.4,0.3,-1,0.8,-1.5,1.5l0,6.7c0,0.1,0,0.1,0,0.2c0,0,-0.1,0,-0.1,0.1c-0.1,0,-0.1,0,-0.2,0c-0.1,0,-0.2,0,-0.3,0c-0.1,0,-0.2,0,-0.3,0c-0.1,0,-0.2,0,-0.2,0c0,-0.1,-0.1,-0.1,-0.1,-0.1c0,-0.1,0,-0.1,0,-0.2l0,-9.4c0,0,0,-0.1,0,-0.1c0,0,0.1,-0.1,0.1,-0.1c0,0,0.1,0,0.2,0c0,-0.1,0.1,-0.1,0.3,-0.1c0.1,0,0.2,0,0.3,0.1c0,0,0.1,0,0.1,0c0.1,0,0.1,0.1,0.1,0.1c0,0,0.1,0.1,0.1,0.1l0,1.4c0.5,-0.6,1,-1.1,1.6,-1.4c0.5,-0.2,1,-0.4,1.5,-0.4c0.6,0,1.1,0.1,1.6,0.3c0.4,0.3,0.7,0.5,1,0.9c0.3,0.3,0.4,0.7,0.6,1.2c0.1,0.5,0.1,1.1,0.1,1.7Z" class="g2_71" />
<path d="M532,663.9c0,0.2,0,0.4,-0.1,0.4c0,0.1,-0.1,0.2,-0.2,0.2l-1.5,0c0.3,0.3,0.5,0.6,0.6,0.9c0.1,0.4,0.2,0.7,0.2,1.1c0,0.6,-0.1,1,-0.3,1.5c-0.1,0.4,-0.4,0.7,-0.7,1c-0.3,0.3,-0.7,0.5,-1.1,0.7c-0.4,0.1,-0.9,0.2,-1.5,0.2c-0.4,0,-0.8,0,-1.1,-0.1c-0.4,-0.2,-0.7,-0.3,-1,-0.5c-0.1,0.1,-0.2,0.3,-0.3,0.5c-0.1,0.2,-0.1,0.4,-0.1,0.6c0,0.3,0.1,0.5,0.4,0.7c0.2,0.2,0.5,0.3,0.9,0.3l2.6,0.1c0.4,0,0.8,0.1,1.2,0.2c0.4,0.1,0.7,0.2,1,0.4c0.3,0.2,0.5,0.5,0.7,0.8c0.1,0.3,0.2,0.6,0.2,1c0,0.4,-0.1,0.8,-0.2,1.2c-0.2,0.4,-0.5,0.7,-0.8,1c-0.4,0.3,-0.8,0.5,-1.4,0.7c-0.5,0.2,-1.2,0.3,-2,0.3c-0.7,0,-1.3,-0.1,-1.9,-0.2c-0.5,-0.2,-0.9,-0.3,-1.2,-0.6c-0.4,-0.2,-0.6,-0.5,-0.8,-0.8c-0.1,-0.3,-0.2,-0.6,-0.2,-1c0,-0.2,0,-0.4,0.1,-0.6c0,-0.3,0.1,-0.4,0.2,-0.6c0.2,-0.2,0.3,-0.4,0.5,-0.6c0.2,-0.2,0.3,-0.4,0.6,-0.6c-0.4,-0.2,-0.6,-0.4,-0.8,-0.6c-0.2,-0.3,-0.3,-0.6,-0.3,-0.8c0,-0.5,0.1,-0.9,0.3,-1.2c0.2,-0.3,0.4,-0.6,0.6,-0.9c-0.2,-0.2,-0.4,-0.5,-0.5,-0.8C524,667.5,524,667.1,524,666.6c0,-0.5,0,-1,0.2,-1.4c0.2,-0.4,0.4,-0.8,0.7,-1.1c0.4,-0.3,0.7,-0.5,1.2,-0.6c0.4,-0.2,0.9,-0.3,1.4,-0.3c0.2,0,0.5,0.1,0.7,0.1c0.3,0,0.5,0.1,0.7,0.1l2.8,0c0.1,0,0.2,0,0.2,0.1c0.1,0.1,0.1,0.3,0.1,0.4Zm-2.3,2.7c0,-0.8,-0.2,-1.3,-0.6,-1.7c-0.4,-0.4,-0.9,-0.6,-1.7,-0.6c-0.3,0,-0.7,0,-1,0.2c-0.2,0.1,-0.5,0.3,-0.6,0.5c-0.2,0.2,-0.3,0.4,-0.4,0.7c-0.1,0.3,-0.2,0.6,-0.2,0.9c0,0.7,0.2,1.3,0.6,1.7c0.4,0.4,1,0.6,1.7,0.6c0.4,0,0.7,-0.1,1,-0.2c0.2,-0.1,0.5,-0.3,0.6,-0.5c0.2,-0.2,0.4,-0.5,0.4,-0.8c0.1,-0.3,0.2,-0.5,0.2,-0.8Zm1,7.4c0,-0.5,-0.2,-0.8,-0.6,-1c-0.3,-0.3,-0.8,-0.4,-1.5,-0.5l-2.7,-0.1c-0.3,0.2,-0.5,0.4,-0.6,0.6c-0.2,0.2,-0.3,0.3,-0.4,0.5c-0.1,0.2,-0.2,0.3,-0.2,0.5c0,0.1,0,0.3,0,0.5c0,0.5,0.2,0.9,0.7,1.1c0.5,0.3,1.3,0.4,2.2,0.4c0.6,0,1.1,0,1.4,-0.2c0.4,-0.1,0.8,-0.2,1,-0.4c0.3,-0.2,0.4,-0.4,0.5,-0.7c0.1,-0.2,0.2,-0.4,0.2,-0.7Z" class="g2_71" />
<path d="M542.4,658.8c-0.7,1.5,-1.2,2.9,-1.5,4.4c-0.3,1.5,-0.5,3,-0.5,4.4c0,1.5,0.2,3,0.5,4.5c0.3,1.4,0.9,2.9,1.5,4.4c0.1,0,0.1,0.1,0.1,0.1c0,0,0,0.1,-0.1,0.1c0,0.1,-0.1,0.1,-0.1,0.1c-0.1,0,-0.2,0,-0.3,0c-0.1,0,-0.2,0,-0.2,0c-0.1,0,-0.2,0,-0.2,0c-0.1,0,-0.1,-0.1,-0.2,-0.1l0,-0.1c-0.4,-0.7,-0.7,-1.4,-1,-2.1c-0.3,-0.7,-0.6,-1.4,-0.8,-2.2c-0.2,-0.8,-0.3,-1.5,-0.4,-2.3c-0.1,-0.8,-0.1,-1.5,-0.1,-2.3c0,-0.8,0,-1.6,0.1,-2.4c0.1,-0.7,0.3,-1.5,0.5,-2.3c0.2,-0.7,0.4,-1.4,0.7,-2.2c0.3,-0.7,0.6,-1.4,1,-2.1c0,-0.1,0,-0.1,0,-0.1c0,0,0.1,0,0.1,0c0.1,-0.1,0.1,-0.1,0.2,-0.1c0.1,0,0.2,0,0.3,0c0.1,0,0.2,0,0.2,0c0.1,0,0.2,0.1,0.2,0.1c0,0,0.1,0.1,0.1,0.1c0,0,0,0.1,-0.1,0.1Zm11.5,14c0,0.1,0,0.2,0,0.3c0,0,0,0.1,0,0.1c-0.1,0.1,-0.1,0.1,-0.2,0.1c-0.1,0,-0.3,0,-0.4,0c-0.2,0,-0.3,0,-0.4,0c-0.1,0,-0.2,0,-0.2,0c-0.1,-0.1,-0.1,-0.1,-0.2,-0.1c0,-0.1,0,-0.1,-0.1,-0.2l-3.2,-5.6l-3.3,5.6c-0.1,0.1,-0.1,0.1,-0.1,0.2c0,0,-0.1,0,-0.2,0.1c0,0,-0.1,0,-0.2,0c-0.1,0,-0.2,0,-0.3,0c-0.2,0,-0.3,0,-0.4,0c-0.1,0,-0.2,0,-0.2,-0.1c-0.1,0,-0.1,-0.1,-0.1,-0.1c0,-0.1,0.1,-0.2,0.1,-0.3l4,-6.3l-3.8,-6.3c-0.1,-0.1,-0.1,-0.2,-0.2,-0.3c0,0,0.1,-0.1,0.1,-0.1c0,0,0.1,-0.1,0.2,-0.1c0.1,0,0.2,0,0.4,0c0.1,0,0.3,0,0.3,0c0.1,0,0.2,0,0.3,0.1c0,0,0.1,0,0.1,0c0.1,0.1,0.1,0.1,0.1,0.2l3.2,5.3l3.2,-5.3c0,-0.1,0.1,-0.1,0.1,-0.2c0,0,0.1,0,0.1,0c0.1,-0.1,0.1,-0.1,0.2,-0.1c0.1,0,0.2,0,0.4,0c0.1,0,0.2,0,0.3,0c0.1,0,0.2,0.1,0.3,0.1c0,0,0,0.1,0,0.1c0,0.1,0,0.2,-0.1,0.3l-3.8,6.2Zm9.4,-3.2c0,0.6,-0.1,1.2,-0.4,1.6c-0.2,0.5,-0.5,0.9,-0.9,1.2c-0.3,0.4,-0.8,0.6,-1.3,0.8c-0.6,0.1,-1.2,0.2,-1.8,0.2c-0.4,0,-0.8,0,-1.2,-0.1c-0.4,-0.1,-0.7,-0.2,-1,-0.3c-0.3,-0.1,-0.6,-0.2,-0.8,-0.3c-0.2,-0.1,-0.3,-0.2,-0.4,-0.3c-0.1,-0.1,-0.1,-0.2,-0.2,-0.3c0,-0.1,0,-0.2,0,-0.4c0,-0.1,0,-0.2,0,-0.3c0,-0.1,0,-0.1,0,-0.2c0.1,0,0.1,0,0.1,-0.1c0.1,0,0.1,0,0.1,0c0.2,0,0.3,0.1,0.5,0.2c0.1,0.1,0.4,0.2,0.6,0.4c0.3,0.1,0.7,0.3,1.1,0.4c0.4,0.1,0.8,0.2,1.3,0.2c0.5,0,0.8,-0.1,1.2,-0.2c0.4,-0.1,0.7,-0.3,0.9,-0.5c0.3,-0.2,0.5,-0.5,0.6,-0.8c0.2,-0.3,0.2,-0.7,0.2,-1.1c0,-0.4,-0.1,-0.7,-0.2,-1c-0.2,-0.3,-0.5,-0.6,-0.8,-0.8c-0.2,-0.3,-0.6,-0.5,-1,-0.7c-0.3,-0.1,-0.7,-0.3,-1.1,-0.5c-0.4,-0.2,-0.8,-0.4,-1.2,-0.6c-0.3,-0.2,-0.7,-0.5,-1,-0.8c-0.3,-0.3,-0.5,-0.6,-0.7,-1c-0.2,-0.4,-0.3,-0.8,-0.3,-1.4c0,-0.5,0.1,-0.9,0.3,-1.4c0.2,-0.4,0.5,-0.7,0.8,-1c0.4,-0.3,0.8,-0.5,1.3,-0.7c0.4,-0.1,1,-0.2,1.5,-0.2c0.3,0,0.6,0,0.9,0.1c0.3,0,0.5,0.1,0.8,0.2c0.3,0.1,0.5,0.2,0.7,0.3c0.2,0.1,0.4,0.2,0.4,0.2c0.1,0.1,0.1,0.2,0.1,0.2c0.1,0,0.1,0.1,0.1,0.1c0,0.1,0,0.1,0,0.2c0,0,0,0.1,0,0.2c0,0.1,0,0.2,0,0.3c0,0,0,0.1,0,0.2c-0.1,0,-0.1,0.1,-0.1,0.1c0,0,-0.1,0,-0.1,0c-0.1,0,-0.2,0,-0.4,-0.1c-0.1,-0.1,-0.3,-0.2,-0.6,-0.4c-0.2,-0.1,-0.5,-0.2,-0.8,-0.3c-0.3,-0.1,-0.7,-0.2,-1.1,-0.2c-0.4,0,-0.8,0.1,-1.1,0.2c-0.3,0.1,-0.5,0.3,-0.8,0.4c-0.2,0.2,-0.3,0.5,-0.4,0.7c-0.1,0.3,-0.1,0.6,-0.1,0.8c0,0.5,0,0.8,0.2,1.1c0.2,0.3,0.4,0.6,0.7,0.8c0.3,0.2,0.7,0.4,1.1,0.6c0.3,0.2,0.7,0.4,1.1,0.6c0.4,0.2,0.8,0.4,1.2,0.6c0.4,0.2,0.7,0.4,1,0.7c0.3,0.3,0.5,0.7,0.7,1c0.2,0.4,0.3,0.9,0.3,1.4Zm9.6,0c0,0.6,-0.1,1.2,-0.3,1.6c-0.3,0.5,-0.6,0.9,-0.9,1.2c-0.4,0.4,-0.9,0.6,-1.4,0.8c-0.6,0.1,-1.2,0.2,-1.8,0.2c-0.4,0,-0.8,0,-1.2,-0.1c-0.4,-0.1,-0.7,-0.2,-1,-0.3c-0.3,-0.1,-0.6,-0.2,-0.8,-0.3c-0.2,-0.1,-0.3,-0.2,-0.4,-0.3c-0.1,-0.1,-0.1,-0.2,-0.2,-0.3c0,-0.1,0,-0.2,0,-0.4c0,-0.1,0,-0.2,0,-0.3c0,-0.1,0,-0.1,0,-0.2c0.1,0,0.1,0,0.1,-0.1c0.1,0,0.1,0,0.2,0c0.1,0,0.2,0.1,0.4,0.2c0.2,0.1,0.4,0.2,0.7,0.4c0.2,0.1,0.6,0.3,1,0.4c0.4,0.1,0.8,0.2,1.3,0.2c0.5,0,0.9,-0.1,1.2,-0.2c0.4,-0.1,0.7,-0.3,0.9,-0.5c0.3,-0.2,0.5,-0.5,0.6,-0.8c0.2,-0.3,0.3,-0.7,0.3,-1.1c0,-0.4,-0.1,-0.7,-0.3,-1c-0.2,-0.3,-0.4,-0.6,-0.7,-0.8c-0.3,-0.3,-0.7,-0.5,-1,-0.7c-0.4,-0.1,-0.8,-0.3,-1.2,-0.5c-0.4,-0.2,-0.8,-0.4,-1.2,-0.6c-0.3,-0.2,-0.7,-0.5,-1,-0.8c-0.3,-0.3,-0.5,-0.6,-0.7,-1c-0.2,-0.4,-0.2,-0.8,-0.2,-1.4c0,-0.5,0,-0.9,0.2,-1.4c0.2,-0.4,0.5,-0.7,0.8,-1c0.4,-0.3,0.8,-0.5,1.3,-0.7c0.4,-0.1,1,-0.2,1.5,-0.2c0.3,0,0.6,0,0.9,0.1c0.3,0,0.6,0.1,0.8,0.2c0.3,0.1,0.5,0.2,0.7,0.3c0.2,0.1,0.4,0.2,0.4,0.2c0.1,0.1,0.1,0.2,0.2,0.2c0,0,0,0.1,0,0.1c0,0.1,0,0.1,0,0.2c0,0,0.1,0.1,0.1,0.2c0,0.1,-0.1,0.2,-0.1,0.3c0,0,0,0.1,0,0.2c0,0,-0.1,0.1,-0.1,0.1c0,0,-0.1,0,-0.1,0c-0.1,0,-0.2,0,-0.3,-0.1c-0.2,-0.1,-0.4,-0.2,-0.6,-0.4c-0.3,-0.1,-0.6,-0.2,-0.9,-0.3c-0.3,-0.1,-0.7,-0.2,-1.1,-0.2c-0.4,0,-0.8,0.1,-1.1,0.2c-0.3,0.1,-0.5,0.3,-0.7,0.4c-0.2,0.2,-0.4,0.5,-0.5,0.7c-0.1,0.3,-0.1,0.6,-0.1,0.8c0,0.5,0,0.8,0.2,1.1c0.2,0.3,0.4,0.6,0.7,0.8c0.3,0.2,0.7,0.4,1.1,0.6c0.4,0.2,0.7,0.4,1.1,0.6c0.4,0.2,0.8,0.4,1.2,0.6c0.4,0.2,0.7,0.4,1,0.7c0.3,0.3,0.5,0.7,0.7,1c0.2,0.4,0.3,0.9,0.3,1.4Zm5.6,-1.9c0,0.8,0,1.5,-0.1,2.3c-0.1,0.8,-0.3,1.5,-0.5,2.3c-0.2,0.8,-0.4,1.5,-0.7,2.2c-0.3,0.7,-0.6,1.4,-1,2.1c0,0.1,0,0.1,-0.1,0.1c0,0,0,0.1,-0.1,0.1c-0.1,0,-0.1,0,-0.2,0c0,0,-0.1,0,-0.2,0c-0.1,0,-0.2,0,-0.3,0c-0.1,0,-0.1,0,-0.1,-0.1c-0.1,0,-0.1,-0.1,-0.1,-0.1c0,0,0,-0.1,0.1,-0.1c0.6,-1.5,1.1,-2.9,1.5,-4.4c0.3,-1.5,0.5,-3,0.5,-4.5c0,-1.4,-0.2,-2.9,-0.5,-4.4c-0.4,-1.5,-0.9,-2.9,-1.5,-4.4c-0.1,0,-0.1,-0.1,-0.1,-0.1c0,0,0,-0.1,0.1,-0.1c0,0,0.1,-0.1,0.1,-0.1c0.1,0,0.2,0,0.3,0c0.1,0,0.2,0,0.3,0c0,0,0.1,0,0.1,0.1c0.1,0,0.1,0,0.1,0c0.1,0,0.1,0,0.1,0.1c0.7,1.4,1.3,2.8,1.7,4.3c0.4,1.6,0.6,3.1,0.6,4.7Z" class="g2_71" />
<path fill-rule="evenodd" d="M107.8,692.4l686.6,0l0,33.9l-686.6,0l0,-33.9Z" class="g1_71" />
<path fill-rule="evenodd" d="M107.8,726.3l686.6,0l0,33.9l-686.6,0l0,-33.9Z" class="g1_71" />
<path fill-rule="evenodd" d="M107.8,760.2l686.6,0l0,33.8l-686.6,0l0,-33.8Z" class="g1_71" />
<path fill-rule="evenodd" d="M107.8,794l686.6,0l0,49.1l-686.6,0l0,-49.1Z" class="g1_71" />
<path fill-rule="evenodd" d="M107.8,843.1l686.6,0l0,33.8l-686.6,0l0,-33.8Z" class="g1_71" />
<path d="M489.3,913.9c0,0.4,-0.1,0.7,-0.2,1.1c-0.1,0.3,-0.2,0.6,-0.4,0.9c-0.1,0.3,-0.3,0.5,-0.6,0.7c-0.2,0.3,-0.5,0.4,-0.8,0.6c-0.4,0.1,-0.7,0.2,-1.1,0.3c-0.3,0.1,-0.8,0.1,-1.3,0.1l-3.4,0c-0.2,0,-0.3,0,-0.4,-0.1c-0.2,-0.1,-0.2,-0.3,-0.2,-0.5l0,-12.2c0,-0.2,0,-0.4,0.2,-0.5c0.1,-0.1,0.2,-0.1,0.4,-0.1l2.9,0c0.7,0,1.4,0,1.9,0.2c0.4,0.2,0.8,0.4,1.2,0.7c0.3,0.3,0.5,0.6,0.7,1.1c0.1,0.4,0.2,0.8,0.2,1.3c0,0.4,0,0.7,-0.1,1c-0.1,0.3,-0.2,0.5,-0.3,0.8c-0.2,0.2,-0.4,0.5,-0.6,0.7c-0.2,0.2,-0.5,0.3,-0.7,0.5c0.3,0,0.6,0.2,1,0.4c0.3,0.2,0.6,0.4,0.8,0.7c0.3,0.3,0.4,0.6,0.6,1c0.1,0.4,0.2,0.8,0.2,1.3Zm-2.2,-6.3c0,-0.3,-0.1,-0.6,-0.2,-0.9c-0.1,-0.3,-0.2,-0.6,-0.5,-0.8c-0.2,-0.2,-0.4,-0.3,-0.8,-0.5c-0.3,-0.1,-0.8,-0.1,-1.4,-0.1l-2.1,0l0,4.8l2.4,0c0.5,0,0.9,0,1.2,-0.2c0.3,-0.1,0.6,-0.3,0.8,-0.5c0.2,-0.3,0.3,-0.5,0.4,-0.8c0.1,-0.3,0.2,-0.6,0.2,-1Zm0.8,6.4c0,-0.5,0,-0.9,-0.2,-1.2c-0.1,-0.3,-0.3,-0.6,-0.6,-0.9c-0.3,-0.2,-0.6,-0.3,-1,-0.5c-0.4,-0.1,-0.9,-0.2,-1.5,-0.2l-2.5,0l0,5.3l3,0c0.4,0,0.8,0,1.1,-0.1c0.4,-0.2,0.7,-0.3,0.9,-0.5c0.3,-0.2,0.5,-0.5,0.6,-0.8c0.2,-0.3,0.2,-0.7,0.2,-1.1Zm9.4,-5.5c0,0.1,0,0.2,0,0.2c0,0.1,0,0.2,-0.1,0.2c0,0.1,0,0.1,0,0.1c0,0,-0.1,0.1,-0.1,0.1c-0.1,0,-0.1,-0.1,-0.2,-0.1c-0.1,0,-0.2,-0.1,-0.3,-0.1c-0.1,0,-0.3,-0.1,-0.4,-0.1c-0.1,0,-0.3,0,-0.4,0c-0.2,0,-0.4,0,-0.6,0.1c-0.2,0.1,-0.4,0.2,-0.6,0.4c-0.1,0.1,-0.4,0.4,-0.6,0.7c-0.2,0.3,-0.4,0.6,-0.7,1.1l0,6.3c0,0.1,0,0.1,0,0.1c-0.1,0.1,-0.1,0.1,-0.1,0.1c-0.1,0.1,-0.1,0.1,-0.2,0.1c-0.1,0,-0.2,0,-0.3,0c-0.1,0,-0.2,0,-0.3,0c-0.1,0,-0.2,0,-0.2,-0.1c-0.1,0,-0.1,0,-0.1,-0.1l0,-0.1l0,-9.4c0,0,0,-0.1,0,-0.1c0,0,0,-0.1,0.1,-0.1c0,0,0.1,0,0.2,-0.1c0,0,0.1,0,0.3,0c0.1,0,0.2,0,0.2,0c0.1,0.1,0.2,0.1,0.2,0.1c0.1,0,0.1,0.1,0.1,0.1c0,0,0,0.1,0,0.1l0,1.5c0.3,-0.4,0.5,-0.7,0.8,-1c0.2,-0.2,0.4,-0.4,0.6,-0.5c0.2,-0.2,0.4,-0.3,0.6,-0.3c0.2,-0.1,0.5,-0.1,0.7,-0.1c0.1,0,0.2,0,0.3,0c0.1,0,0.2,0.1,0.4,0.1c0.1,0,0.2,0,0.3,0.1c0.1,0,0.2,0.1,0.2,0.1c0.1,0,0.1,0,0.1,0.1c0.1,0,0.1,0,0.1,0.1c0,0,0,0.1,0,0.1c0,0.1,0,0.2,0,0.3Z" class="g2_71" />
<path d="M507,917.4c0,0.1,0,0.1,-0.1,0.1c0,0.1,0,0.1,-0.1,0.1c0,0.1,-0.1,0.1,-0.1,0.1c-0.1,0,-0.2,0,-0.3,0c-0.2,0,-0.3,0,-0.3,0c-0.1,0,-0.2,0,-0.2,-0.1c-0.1,0,-0.1,0,-0.1,-0.1l0,-0.1l0,-1.3c-0.6,0.6,-1.1,1,-1.6,1.3c-0.5,0.3,-1,0.4,-1.6,0.4c-0.6,0,-1.1,-0.1,-1.5,-0.3c-0.5,-0.2,-0.8,-0.5,-1.1,-0.8c-0.2,-0.4,-0.4,-0.8,-0.5,-1.3c-0.1,-0.5,-0.2,-1,-0.2,-1.7l0,-5.7c0,0,0,-0.1,0,-0.1c0,0,0.1,-0.1,0.1,-0.1c0.1,0,0.2,0,0.2,-0.1c0.1,0,0.2,0,0.3,0c0.1,0,0.3,0,0.3,0c0.1,0.1,0.2,0.1,0.2,0.1c0.1,0,0.1,0.1,0.1,0.1c0,0,0,0.1,0,0.1l0,5.6c0,0.6,0.1,1.1,0.2,1.4c0.1,0.4,0.2,0.7,0.4,1c0.2,0.2,0.4,0.4,0.7,0.6c0.3,0.1,0.6,0.2,1,0.2c0.4,0,0.9,-0.2,1.4,-0.5c0.5,-0.4,1,-0.9,1.5,-1.5l0,-6.8c0,0,0,-0.1,0,-0.1c0.1,0,0.1,-0.1,0.1,-0.1c0.1,0,0.2,0,0.2,-0.1c0.1,0,0.2,0,0.3,0c0.2,0,0.3,0,0.4,0c0,0.1,0.1,0.1,0.1,0.1c0.1,0,0.1,0.1,0.1,0.1c0,0,0.1,0.1,0.1,0.1Z" class="g2_71" />
<path d="M514.9,916.9c0,0.1,0,0.2,0,0.3c-0.1,0.1,-0.1,0.2,-0.2,0.3c0,0,-0.1,0,-0.2,0.1c-0.1,0,-0.2,0.1,-0.3,0.1c-0.2,0,-0.3,0,-0.5,0.1c-0.1,0,-0.2,0,-0.4,0c-0.4,0,-0.8,-0.1,-1.2,-0.2c-0.3,-0.1,-0.6,-0.3,-0.8,-0.6c-0.2,-0.2,-0.3,-0.5,-0.4,-0.9c-0.1,-0.4,-0.2,-0.9,-0.2,-1.4l0,-5.9l-1.4,0c-0.1,0,-0.2,0,-0.2,-0.1C509,908.6,509,908.5,509,908.3c0,-0.1,0,-0.2,0,-0.2c0,-0.1,0.1,-0.1,0.1,-0.2c0,0,0,-0.1,0.1,-0.1c0,0,0.1,0,0.1,0l1.4,0l0,-2.3c0,-0.1,0,-0.1,0.1,-0.1c0,-0.1,0,-0.1,0.1,-0.1c0,-0.1,0.1,-0.1,0.1,-0.1c0.1,0,0.2,0,0.4,0c0.1,0,0.2,0,0.3,0c0,0,0.1,0,0.2,0.1l0,0.1c0.1,0,0.1,0,0.1,0.1l0,2.3l2.6,0c0,0,0.1,0,0.1,0c0,0,0.1,0.1,0.1,0.1c0,0.1,0.1,0.1,0.1,0.2c0,0,0,0.1,0,0.2c0,0.2,0,0.3,-0.1,0.4c-0.1,0.1,-0.1,0.1,-0.2,0.1l-2.6,0l0,5.7c0,0.8,0.1,1.3,0.3,1.7c0.2,0.4,0.6,0.5,1.1,0.5c0.2,0,0.3,0,0.5,0c0.1,0,0.2,-0.1,0.3,-0.1c0.1,-0.1,0.2,-0.1,0.3,-0.1c0.1,-0.1,0.1,-0.1,0.2,-0.1l0.1,0c0,0,0,0.1,0,0.1c0,0.1,0.1,0.1,0.1,0.2c0,0,0,0.1,0,0.2Zm10.2,-4.7c0,0.3,-0.1,0.5,-0.2,0.6c-0.2,0,-0.3,0.1,-0.4,0.1l-6.5,0c0,0.6,0.1,1.1,0.2,1.6c0.1,0.4,0.3,0.9,0.6,1.2c0.3,0.3,0.6,0.6,1,0.8c0.4,0.2,1,0.2,1.6,0.2c0.4,0,0.8,0,1.2,-0.1c0.3,-0.1,0.6,-0.1,0.9,-0.2c0.2,-0.1,0.4,-0.2,0.6,-0.3c0.2,-0.1,0.3,-0.1,0.3,-0.1c0.1,0,0.1,0,0.2,0c0,0.1,0,0.1,0,0.1c0.1,0.1,0.1,0.1,0.1,0.2c0,0.1,0,0.2,0,0.3c0,0,0,0.1,0,0.1c0,0.1,0,0.1,0,0.1c0,0.1,-0.1,0.1,-0.1,0.1c0,0.1,0,0.1,-0.1,0.1c0,0.1,-0.1,0.1,-0.3,0.2c-0.2,0.1,-0.4,0.2,-0.7,0.3c-0.3,0.1,-0.6,0.2,-1,0.2c-0.4,0.1,-0.8,0.1,-1.3,0.1c-0.7,0,-1.3,-0.1,-1.9,-0.3c-0.6,-0.2,-1,-0.5,-1.4,-1c-0.4,-0.4,-0.7,-0.9,-0.9,-1.6c-0.2,-0.6,-0.3,-1.3,-0.3,-2.2c0,-0.8,0.1,-1.5,0.3,-2.1c0.2,-0.7,0.5,-1.2,0.9,-1.6c0.4,-0.5,0.8,-0.8,1.4,-1c0.5,-0.3,1.1,-0.4,1.8,-0.4c0.7,0,1.3,0.1,1.8,0.4c0.5,0.2,0.9,0.5,1.2,0.9c0.4,0.4,0.6,0.9,0.7,1.4c0.2,0.5,0.3,1.1,0.3,1.7Zm-1.3,-0.3c0,-1,-0.2,-1.8,-0.7,-2.4c-0.5,-0.5,-1.2,-0.8,-2.1,-0.8c-0.5,0,-0.9,0.1,-1.3,0.2c-0.3,0.2,-0.6,0.5,-0.9,0.7c-0.2,0.3,-0.4,0.7,-0.5,1.1c-0.2,0.4,-0.2,0.8,-0.3,1.2Z" class="g2_71" />
<path d="M531.8,912.4c0,0.2,0,0.3,-0.1,0.4c0,0.1,-0.1,0.1,-0.2,0.1l-4.4,0c-0.1,0,-0.1,0,-0.2,-0.1c-0.1,-0.1,-0.1,-0.2,-0.1,-0.4c0,-0.2,0,-0.4,0.1,-0.4c0.1,-0.1,0.1,-0.2,0.2,-0.2l4.4,0c0,0,0.1,0.1,0.1,0.1c0.1,0,0.1,0,0.1,0.1c0,0,0.1,0.1,0.1,0.1c0,0.1,0,0.2,0,0.3Z" class="g2_71" />
<path d="M541.4,904.7c0,0.1,-0.1,0.2,-0.1,0.3c0,0,0,0.1,0,0.1c-0.1,0.1,-0.1,0.1,-0.2,0.2l-0.1,0l-5.2,0l0,5.1l4.9,0c0.1,0,0.1,0,0.2,0c0,0,0.1,0.1,0.1,0.1c0,0.1,0,0.1,0,0.2c0.1,0,0.1,0.1,0.1,0.2c0,0.1,0,0.2,-0.1,0.3c0,0,0,0.1,0,0.1c0,0.1,-0.1,0.1,-0.1,0.2c-0.1,0,-0.1,0,-0.2,0l-4.9,0l0,5.9c0,0.1,0,0.1,-0.1,0.1c0,0.1,0,0.1,0,0.1c-0.1,0.1,-0.2,0.1,-0.2,0.1c-0.1,0,-0.2,0,-0.3,0c-0.2,0,-0.3,0,-0.4,0c0,0,-0.1,0,-0.1,-0.1c-0.1,0,-0.1,0,-0.1,-0.1c-0.1,0,-0.1,0,-0.1,-0.1l0,-12.6c0,-0.2,0.1,-0.4,0.2,-0.5c0.1,-0.1,0.3,-0.1,0.4,-0.1l5.9,0c0.1,0,0.1,0,0.1,0c0.1,0,0.1,0.1,0.2,0.1c0,0,0,0.1,0,0.2c0,0.1,0.1,0.1,0.1,0.2Z" class="g2_71" />
<path d="M552.4,912.6c0,0.8,-0.1,1.5,-0.3,2.1c-0.2,0.6,-0.5,1.2,-0.9,1.7c-0.4,0.4,-0.9,0.8,-1.4,1c-0.6,0.3,-1.3,0.4,-2.1,0.4c-0.7,0,-1.3,-0.1,-1.9,-0.3c-0.5,-0.3,-1,-0.6,-1.4,-1c-0.4,-0.5,-0.6,-1,-0.8,-1.6c-0.2,-0.6,-0.3,-1.3,-0.3,-2.1c0,-0.7,0.1,-1.4,0.3,-2.1c0.2,-0.6,0.5,-1.2,0.9,-1.6c0.3,-0.5,0.8,-0.8,1.4,-1.1c0.6,-0.2,1.3,-0.4,2,-0.4c0.8,0,1.4,0.1,2,0.4c0.5,0.2,1,0.5,1.3,1c0.4,0.4,0.7,0.9,0.9,1.5c0.2,0.7,0.3,1.3,0.3,2.1Zm-1.3,0.1c0,-0.5,-0.1,-1,-0.2,-1.5c-0.1,-0.5,-0.3,-0.9,-0.5,-1.3c-0.3,-0.4,-0.6,-0.6,-1,-0.9c-0.4,-0.2,-0.9,-0.3,-1.5,-0.3c-0.6,0,-1.1,0.1,-1.5,0.3c-0.4,0.2,-0.8,0.5,-1,0.8c-0.3,0.4,-0.5,0.8,-0.6,1.3c-0.1,0.5,-0.2,1,-0.2,1.6c0,0.5,0.1,1,0.2,1.5c0.1,0.5,0.3,1,0.5,1.3c0.2,0.4,0.6,0.7,1,0.9c0.4,0.2,0.9,0.3,1.5,0.3c0.6,0,1.1,-0.1,1.5,-0.3c0.4,-0.2,0.7,-0.5,1,-0.8c0.2,-0.4,0.4,-0.8,0.6,-1.3c0.1,-0.5,0.2,-1,0.2,-1.6Z" class="g2_71" />
<path d="M560.2,908.5c0,0.1,0,0.2,0,0.2c0,0.1,0,0.2,0,0.2c0,0.1,0,0.1,-0.1,0.1c0,0,0,0.1,-0.1,0.1c0,0,-0.1,-0.1,-0.2,-0.1c-0.1,0,-0.2,-0.1,-0.3,-0.1c-0.1,0,-0.2,-0.1,-0.3,-0.1c-0.2,0,-0.3,0,-0.5,0c-0.2,0,-0.3,0,-0.5,0.1c-0.2,0.1,-0.4,0.2,-0.6,0.4c-0.2,0.1,-0.4,0.4,-0.6,0.7c-0.2,0.3,-0.5,0.6,-0.7,1.1l0,6.3c0,0.1,-0.1,0.1,-0.1,0.1c0,0.1,0,0.1,-0.1,0.1c0,0.1,-0.1,0.1,-0.2,0.1c0,0,-0.1,0,-0.3,0c-0.1,0,-0.2,0,-0.3,0c-0.1,0,-0.1,0,-0.2,-0.1c0,0,-0.1,0,-0.1,-0.1l0,-0.1l0,-9.4c0,0,0,-0.1,0,-0.1c0,0,0.1,-0.1,0.1,-0.1c0.1,0,0.1,0,0.2,-0.1c0.1,0,0.2,0,0.3,0c0.1,0,0.2,0,0.3,0c0.1,0.1,0.1,0.1,0.2,0.1c0,0,0,0.1,0.1,0.1c0,0,0,0.1,0,0.1l0,1.5c0.3,-0.4,0.5,-0.7,0.7,-1c0.3,-0.2,0.5,-0.4,0.7,-0.5c0.2,-0.2,0.4,-0.3,0.6,-0.3c0.2,-0.1,0.4,-0.1,0.6,-0.1c0.1,0,0.2,0,0.3,0c0.1,0,0.3,0.1,0.4,0.1c0.1,0,0.3,0,0.4,0.1c0.1,0,0.2,0.1,0.2,0.1c0,0,0.1,0,0.1,0.1l0,0.1c0,0,0,0.1,0,0.1c0,0.1,0,0.2,0,0.3ZM569,916c0,0.1,0,0.2,-0.1,0.3c0,0,0,0.1,0,0.1c0,0.1,0,0.1,0,0.2c-0.1,0,-0.1,0.1,-0.2,0.2c-0.1,0.1,-0.2,0.2,-0.5,0.3c-0.2,0.2,-0.4,0.3,-0.7,0.4c-0.2,0.1,-0.5,0.2,-0.8,0.2c-0.3,0.1,-0.6,0.1,-1,0.1c-0.6,0,-1.2,-0.1,-1.7,-0.3c-0.5,-0.2,-0.9,-0.5,-1.3,-1c-0.3,-0.4,-0.6,-0.9,-0.7,-1.6c-0.2,-0.6,-0.3,-1.3,-0.3,-2.1c0,-0.9,0.1,-1.7,0.3,-2.4c0.2,-0.6,0.5,-1.1,0.9,-1.6c0.4,-0.4,0.8,-0.7,1.3,-0.9c0.6,-0.2,1.1,-0.3,1.7,-0.3c0.3,0,0.6,0.1,0.9,0.1c0.3,0.1,0.5,0.1,0.8,0.2c0.2,0.1,0.4,0.2,0.6,0.4c0.2,0.1,0.4,0.2,0.4,0.3c0.1,0.1,0.2,0.1,0.2,0.2c0,0,0.1,0.1,0.1,0.2c0,0,0,0.1,0,0.1c0,0.1,0,0.2,0,0.3c0,0.2,0,0.3,-0.1,0.4c0,0.1,-0.1,0.1,-0.1,0.1c-0.1,0,-0.3,-0.1,-0.4,-0.2c-0.1,-0.1,-0.3,-0.2,-0.5,-0.4c-0.3,-0.1,-0.5,-0.3,-0.9,-0.4c-0.3,-0.1,-0.7,-0.2,-1.1,-0.2c-0.9,0,-1.6,0.3,-2.1,1c-0.5,0.7,-0.7,1.7,-0.7,3.1c0,0.6,0,1.2,0.2,1.7c0.1,0.5,0.3,0.9,0.5,1.2c0.3,0.4,0.6,0.6,1,0.8c0.3,0.1,0.7,0.2,1.1,0.2c0.5,0,0.8,0,1.1,-0.2c0.4,-0.1,0.6,-0.3,0.9,-0.4c0.2,-0.2,0.4,-0.3,0.6,-0.5c0.1,-0.1,0.2,-0.2,0.3,-0.2c0.1,0,0.1,0.1,0.1,0.1c0.1,0,0.1,0,0.1,0.1c0,0,0,0.1,0,0.2c0.1,0.1,0.1,0.2,0.1,0.2Z" class="g2_71" />
<path d="M579,912.2c0,0.3,-0.1,0.5,-0.2,0.6c-0.1,0,-0.2,0.1,-0.4,0.1l-6.4,0c0,0.6,0.1,1.1,0.2,1.6c0.1,0.4,0.3,0.9,0.5,1.2c0.3,0.3,0.6,0.6,1.1,0.8c0.4,0.2,0.9,0.2,1.5,0.2c0.5,0,0.9,0,1.2,-0.1c0.4,-0.1,0.7,-0.1,0.9,-0.2c0.3,-0.1,0.5,-0.2,0.6,-0.3c0.2,-0.1,0.3,-0.1,0.4,-0.1c0,0,0.1,0,0.1,0c0,0.1,0.1,0.1,0.1,0.1c0,0.1,0,0.1,0,0.2c0,0.1,0.1,0.2,0.1,0.3c0,0,-0.1,0.1,-0.1,0.1c0,0.1,0,0.1,0,0.1c0,0.1,0,0.1,0,0.1c-0.1,0.1,-0.1,0.1,-0.1,0.1c0,0.1,-0.2,0.1,-0.3,0.2c-0.2,0.1,-0.4,0.2,-0.7,0.3c-0.3,0.1,-0.7,0.2,-1.1,0.2c-0.3,0.1,-0.8,0.1,-1.2,0.1c-0.7,0,-1.4,-0.1,-2,-0.3c-0.5,-0.2,-1,-0.5,-1.4,-1c-0.4,-0.4,-0.6,-0.9,-0.9,-1.6c-0.1,-0.6,-0.2,-1.3,-0.2,-2.2c0,-0.8,0.1,-1.5,0.3,-2.1c0.2,-0.7,0.5,-1.2,0.9,-1.6c0.3,-0.5,0.8,-0.8,1.3,-1c0.6,-0.3,1.2,-0.4,1.9,-0.4c0.7,0,1.2,0.1,1.7,0.4c0.6,0.2,1,0.5,1.3,0.9c0.3,0.4,0.6,0.9,0.7,1.4c0.1,0.5,0.2,1.1,0.2,1.7Zm-1.2,-0.3c0,-1,-0.3,-1.8,-0.7,-2.4c-0.5,-0.5,-1.2,-0.8,-2.1,-0.8c-0.5,0,-0.9,0.1,-1.3,0.2c-0.4,0.2,-0.7,0.5,-0.9,0.7c-0.3,0.3,-0.4,0.7,-0.6,1.1c-0.1,0.4,-0.2,0.8,-0.2,1.2Z" class="g2_71" />
<path fill-rule="evenodd" d="M107.8,936.8l686.6,0l0,33.8l-686.6,0l0,-33.8Z" class="g1_71" />
<path fill-rule="evenodd" d="M107.8,970.6l686.6,0l0,33.9l-686.6,0l0,-33.9Z" class="g1_71" />
<path fill-rule="evenodd" d="M107.8,1004.5l686.6,0l0,33.9l-686.6,0l0,-33.9Z" class="g1_71" />
<path fill-rule="evenodd" d="M107.8,1038.4l686.6,0l0,33.8l-686.6,0l0,-33.8Z" class="g1_71" />
</svg>