<?xml version="1.0" encoding="UTF-8" standalone="no"?>
<!DOCTYPE svg PUBLIC "-//W3C//DTD SVG 1.1//EN"
"http://www.w3.org/Graphics/SVG/1.1/DTD/svg11.dtd">
<svg viewBox="0 0 935 1210" version="1.1" xmlns="http://www.w3.org/2000/svg" xmlns:xlink="http://www.w3.org/1999/xlink">
<defs>
<style type="text/css"><![CDATA[
.g1_27{
fill: none;
stroke: #000000;
stroke-width: 0.5683333;
stroke-linecap: butt;
stroke-linejoin: miter;
}
.g2_27{
}
]]></style>
</defs>
<path d="M674.6,578.9c0,0,-0.1,0.1,-0.1,0.1c0,0,0,0.1,-0.1,0.1c0,0,-0.1,0,-0.2,0c0,0,-0.1,0,-0.2,0c-0.1,0,-0.2,0,-0.3,0c-0.1,0,-0.2,0,-0.2,0c0,0,-0.1,-0.1,-0.1,-0.1c0,0,0,-0.1,0,-0.1l0,-11.3l-0.1,0L668.4,579c-0.1,0.1,-0.1,0.1,-0.2,0.1l-0.1,0c-0.1,0,-0.1,0,-0.2,0c-0.1,0,-0.2,0,-0.3,0c0,0,-0.1,0,-0.1,0c-0.1,0,-0.1,0,-0.1,-0.1c-0.1,0,-0.1,0,-0.1,0l-4.7,-11.4l0,11.3c0,0,0,0.1,0,0.1c0,0,-0.1,0.1,-0.1,0.1c-0.1,0,-0.1,0,-0.2,0c-0.1,0,-0.2,0,-0.3,0c-0.1,0,-0.2,0,-0.3,0c0,0,-0.1,0,-0.1,0c-0.1,0,-0.1,-0.1,-0.1,-0.1c-0.1,0,-0.1,-0.1,-0.1,-0.1l0,-11.8c0,-0.2,0.1,-0.3,0.2,-0.4c0.1,-0.1,0.3,-0.2,0.4,-0.2l0.6,0c0.2,0,0.3,0,0.4,0.1c0.2,0,0.3,0.1,0.4,0.1c0.1,0.1,0.1,0.2,0.2,0.3c0.1,0.1,0.1,0.2,0.2,0.3l4.1,10l0.1,0l4.3,-10c0.1,-0.1,0.1,-0.2,0.2,-0.3c0.1,-0.1,0.1,-0.2,0.2,-0.3c0.1,-0.1,0.2,-0.1,0.3,-0.1c0.1,-0.1,0.2,-0.1,0.3,-0.1l0.7,0c0.1,0,0.1,0,0.2,0.1c0.1,0,0.1,0,0.2,0c0,0.1,0.1,0.2,0.1,0.2c0,0.1,0.1,0.2,0.1,0.3Z" class="g1_27" />
<path d="M681.2,579.1l-1.2,3.3c0,0,-0.1,0.1,-0.2,0.1c-0.1,0.1,-0.3,0.1,-0.5,0.1c-0.1,0,-0.2,0,-0.3,0c-0.1,0,-0.1,0,-0.2,-0.1c0,0,0,-0.1,-0.1,-0.1c0,-0.1,0.1,-0.1,0.1,-0.2l1.2,-3.1c0,0,-0.1,-0.1,-0.1,-0.1c0,-0.1,-0.1,-0.1,-0.1,-0.2l-3.2,-8.5c0,-0.1,0,-0.2,0,-0.2c0,-0.1,0,-0.1,0,-0.2c0.1,0,0.1,0,0.2,0c0.1,0,0.2,-0.1,0.3,-0.1c0.2,0,0.3,0.1,0.4,0.1c0.1,0,0.1,0,0.2,0c0,0,0,0.1,0.1,0.1c0,0,0,0.1,0.1,0.1l2.7,7.7l2.7,-7.7c0.1,-0.1,0.1,-0.1,0.1,-0.2c0.1,0,0.2,0,0.3,0c0.1,0,0.2,-0.1,0.3,-0.1c0.1,0,0.2,0.1,0.3,0.1c0.1,0,0.2,0,0.2,0c0,0.1,0.1,0.1,0.1,0.2c0,0,0,0.1,-0.1,0.2Z" class="g1_27" />
<path d="M693.1,575.7c0,0.6,-0.1,1.1,-0.3,1.5c-0.2,0.4,-0.5,0.8,-0.9,1.1c-0.3,0.3,-0.7,0.6,-1.2,0.7c-0.5,0.2,-1.1,0.3,-1.7,0.3c-0.4,0,-0.7,-0.1,-1.1,-0.2c-0.4,0,-0.7,-0.1,-1,-0.2c-0.2,-0.1,-0.5,-0.2,-0.7,-0.3c-0.1,-0.1,-0.3,-0.2,-0.4,-0.3c0,-0.1,-0.1,-0.2,-0.1,-0.3c0,-0.1,-0.1,-0.2,-0.1,-0.3c0,-0.2,0,-0.2,0.1,-0.3c0,-0.1,0,-0.2,0,-0.2c0,0,0.1,-0.1,0.1,-0.1c0,0,0.1,0,0.1,0c0.1,0,0.2,0,0.4,0.1c0.2,0.2,0.4,0.3,0.6,0.4c0.3,0.2,0.6,0.3,1,0.4c0.4,0.1,0.8,0.2,1.3,0.2c0.3,0,0.7,-0.1,1,-0.2c0.4,-0.1,0.6,-0.2,0.9,-0.4c0.2,-0.2,0.4,-0.5,0.6,-0.8c0.1,-0.3,0.2,-0.6,0.2,-1c0,-0.4,-0.1,-0.7,-0.3,-1c-0.2,-0.3,-0.4,-0.5,-0.7,-0.7c-0.2,-0.2,-0.5,-0.4,-0.9,-0.6c-0.3,-0.2,-0.7,-0.3,-1.1,-0.5c-0.3,-0.2,-0.7,-0.4,-1,-0.6c-0.4,-0.2,-0.7,-0.4,-1,-0.7c-0.3,-0.3,-0.5,-0.6,-0.7,-0.9C686.1,570.4,686,570,686,569.5c0,-0.5,0.1,-0.9,0.3,-1.3c0.1,-0.4,0.4,-0.7,0.7,-1c0.3,-0.3,0.7,-0.5,1.2,-0.6c0.4,-0.2,0.9,-0.2,1.4,-0.2c0.3,0,0.5,0,0.8,0c0.3,0.1,0.5,0.1,0.8,0.2c0.2,0.1,0.4,0.2,0.6,0.3c0.2,0.1,0.3,0.2,0.4,0.3c0.1,0,0.1,0.1,0.1,0.1c0,0,0.1,0,0.1,0.1c0,0,0,0.1,0,0.2c0,0,0,0.1,0,0.2c0,0.1,0,0.2,0,0.2c0,0.1,0,0.1,0,0.2c-0.1,0,-0.1,0.1,-0.1,0.1c-0.1,0,-0.1,0,-0.1,0c-0.1,0,-0.2,0,-0.3,-0.1c-0.2,-0.1,-0.4,-0.2,-0.6,-0.3c-0.2,-0.1,-0.5,-0.2,-0.8,-0.3c-0.3,-0.1,-0.6,-0.2,-1,-0.2c-0.4,0,-0.7,0.1,-1,0.2c-0.3,0.1,-0.5,0.2,-0.7,0.4c-0.2,0.2,-0.4,0.4,-0.5,0.6c-0.1,0.3,-0.1,0.5,-0.1,0.8c0,0.4,0.1,0.7,0.3,1c0.1,0.3,0.4,0.5,0.6,0.7c0.3,0.2,0.6,0.4,1,0.6c0.3,0.2,0.7,0.3,1.1,0.5c0.3,0.2,0.7,0.4,1,0.6c0.4,0.2,0.7,0.4,1,0.7c0.2,0.3,0.5,0.6,0.6,0.9c0.2,0.4,0.3,0.8,0.3,1.3Z" class="g1_27" />
<path d="M707.5,580.1c0,0.1,0,0.2,0,0.3c-0.1,0.1,-0.1,0.1,-0.1,0.2c-0.1,0,-0.1,0.1,-0.1,0.1c-0.1,0,-0.1,0,-0.1,0c-0.1,0,-0.3,0,-0.5,-0.2c-0.3,-0.1,-0.6,-0.2,-0.9,-0.4c-0.4,-0.2,-0.8,-0.4,-1.2,-0.7c-0.5,-0.3,-0.9,-0.6,-1.3,-1c-0.3,0.2,-0.8,0.4,-1.3,0.6c-0.5,0.2,-1.1,0.3,-1.8,0.3c-1,0,-1.8,-0.2,-2.4,-0.5c-0.7,-0.3,-1.3,-0.7,-1.7,-1.2c-0.4,-0.6,-0.7,-1.3,-0.9,-2c-0.2,-0.8,-0.3,-1.7,-0.3,-2.7c0,-1,0.1,-1.9,0.3,-2.7c0.2,-0.8,0.6,-1.5,1,-2c0.5,-0.6,1.1,-1.1,1.8,-1.4c0.7,-0.3,1.5,-0.4,2.4,-0.4c0.9,0,1.7,0.1,2.3,0.4c0.7,0.3,1.3,0.7,1.7,1.3c0.4,0.5,0.8,1.2,1,1.9c0.2,0.8,0.3,1.7,0.3,2.7c0,0.5,0,0.9,-0.1,1.4c0,0.5,-0.1,0.9,-0.2,1.4c-0.2,0.4,-0.3,0.8,-0.5,1.2c-0.2,0.3,-0.5,0.7,-0.7,1c0.5,0.4,0.9,0.7,1.3,1c0.4,0.2,0.7,0.4,0.9,0.5c0.3,0.1,0.5,0.2,0.6,0.2c0.2,0.1,0.3,0.1,0.3,0.2c0.1,0.1,0.1,0.1,0.1,0.2c0.1,0.1,0.1,0.2,0.1,0.3Zm-3,-7.3c0,-0.8,-0.1,-1.5,-0.2,-2.1c-0.2,-0.7,-0.4,-1.2,-0.7,-1.7c-0.3,-0.5,-0.8,-0.9,-1.3,-1.2c-0.5,-0.2,-1.2,-0.4,-2,-0.4c-0.7,0,-1.4,0.2,-1.9,0.5c-0.6,0.3,-1,0.6,-1.3,1.1c-0.4,0.5,-0.6,1.1,-0.7,1.7c-0.2,0.7,-0.3,1.3,-0.3,2.1c0,0.7,0.1,1.4,0.2,2.1c0.2,0.7,0.4,1.2,0.7,1.7c0.3,0.5,0.7,0.9,1.3,1.2c0.5,0.2,1.2,0.4,2,0.4c0.8,0,1.4,-0.2,1.9,-0.5c0.6,-0.3,1,-0.7,1.4,-1.2c0.3,-0.5,0.5,-1,0.7,-1.7c0.1,-0.6,0.2,-1.3,0.2,-2Z" class="g1_27" />
<path d="M715,578.5c0,0.1,0,0.2,0,0.3c0,0,0,0.1,0,0.1c-0.1,0.1,-0.1,0.1,-0.1,0.2c-0.1,0,-0.1,0,-0.2,0l-5.4,0c-0.1,0,-0.3,0,-0.4,-0.1c-0.1,-0.1,-0.2,-0.3,-0.2,-0.5l0,-11.8c0,0,0.1,-0.1,0.1,-0.1c0,0,0,-0.1,0.1,-0.1c0,0,0.1,0,0.2,0c0,0,0.1,0,0.2,0c0.1,0,0.2,0,0.3,0c0.1,0,0.1,0,0.2,0c0,0,0.1,0.1,0.1,0.1c0,0,0,0.1,0,0.1l0,11.3l4.8,0c0.1,0,0.1,0,0.2,0.1l0.1,0.1l0,0.1c0,0.1,0,0.2,0,0.2Z" class="g1_27" />
<path fill-rule="evenodd" d="M539.1,1022.5l220,0l0,1l-220,0l0,-1Z" class="g2_27" />
</svg>