<?xml version="1.0" encoding="UTF-8" standalone="no"?>
<!DOCTYPE svg PUBLIC "-//W3C//DTD SVG 1.1//EN"
"http://www.w3.org/Graphics/SVG/1.1/DTD/svg11.dtd">
<svg viewBox="0 0 935 1210" version="1.1" xmlns="http://www.w3.org/2000/svg" xmlns:xlink="http://www.w3.org/1999/xlink">
<defs>
<style type="text/css"><![CDATA[
.g1_59{
fill: #FFFFFF;
}
.g2_59{
}
]]></style>
</defs>
<path fill-rule="evenodd" d="M110.1,616.6l649.1,0l0,29.5l-649.1,0l0,-29.5Z" class="g1_59" />
<path fill-rule="evenodd" d="M110.1,650.4l682.1,0l0,29.6l-682.1,0l0,-29.6Z" class="g1_59" />
<path fill-rule="evenodd" d="M174,684.3l618.2,0l0,29.5l-618.2,0l0,-29.5Z" class="g1_59" />
<path fill-rule="evenodd" d="M110.1,733.4l649.1,0l0,29.5l-649.1,0l0,-29.5Z" class="g1_59" />
<path fill-rule="evenodd" d="M110.1,767.2l682.1,0l0,29.5l-682.1,0l0,-29.5Z" class="g1_59" />
<path fill-rule="evenodd" d="M110.1,801.1l682.1,0l0,29.6l-682.1,0l0,-29.6Z" class="g1_59" />
<path fill-rule="evenodd" d="M110.1,835l682.1,0l0,29.5l-682.1,0l0,-29.5Z" class="g1_59" />
<path fill-rule="evenodd" d="M110.1,868.8l682.1,0l0,29.5l-682.1,0l0,-29.5Z" class="g1_59" />
<path fill-rule="evenodd" d="M110.1,902.6l682.1,0l0,29.5l-682.1,0l0,-29.5Z" class="g1_59" />
<path fill-rule="evenodd" d="M110.1,936.5l682.1,0l0,29.5l-682.1,0l0,-29.5Z" class="g1_59" />
<path fill-rule="evenodd" d="M403.8,970.4l388.4,0l0,29.5l-388.4,0l0,-29.5Z" class="g1_59" />
<path fill-rule="evenodd" d="M539.1,1045.2l220,0l0,1l-220,0l0,-1Z" class="g2_59" />
</svg>