<?xml version="1.0" encoding="UTF-8" standalone="no"?>
<!DOCTYPE svg PUBLIC "-//W3C//DTD SVG 1.1//EN"
"http://www.w3.org/Graphics/SVG/1.1/DTD/svg11.dtd">
<svg viewBox="0 0 909 1286" version="1.1" xmlns="http://www.w3.org/2000/svg" xmlns:xlink="http://www.w3.org/1999/xlink">
<defs>
<style type="text/css"><![CDATA[
.g0_3{
fill: #3873B3;
}
]]></style>
</defs>
<path d="M113.7,142.7h95.9v-7H113.7v7Z" class="g0_3" />
<g fill="#3873B3" >
<use xlink:href="#f0_p" transform="matrix(14.3,0,0,14.3,223.3,145.4)" />
<use xlink:href="#f0_8" transform="matrix(14.3,0,0,14.3,235.2,145.4)" />
<use xlink:href="#f0_g" transform="matrix(14.3,0,0,14.3,244.7,145.4)" />
<use xlink:href="#f0_8" transform="matrix(14.3,0,0,14.3,249.8,145.4)" />
<use xlink:href="#f0_5" transform="matrix(14.3,0,0,14.3,259.3,145.4)" />
<use xlink:href="#f0_s" transform="matrix(14.3,0,0,14.3,268.9,145.4)" />
<use xlink:href="#f0_8" transform="matrix(14.3,0,0,14.3,276.6,145.4)" />
<use xlink:href="#f0_6" transform="matrix(14.3,0,0,14.3,286.1,145.4)" />
<use xlink:href="#f0_4" transform="matrix(14.3,0,0,14.3,304.3,145.4)" />
<use xlink:href="#f0_k" transform="matrix(14.3,0,0,14.3,318,145.4)" />
<use xlink:href="#f0_t" transform="matrix(14.3,0,0,14.3,328.7,145.4)" />
<use xlink:href="#f0_o" transform="matrix(14.3,0,0,14.3,339.8,145.4)" />
<use xlink:href="#f0_q" transform="matrix(14.3,0,0,14.3,347,145.4)" />
<use xlink:href="#f0_8" transform="matrix(14.3,0,0,14.3,355.3,145.4)" />
<use xlink:href="#f0_q" transform="matrix(14.3,0,0,14.3,364.8,145.4)" />
<use xlink:href="#f1_3" transform="matrix(10.9,0,0,10.9,223.3,175)" />
</g>
<g fill="#000000" >
<use xlink:href="#f2_8" transform="matrix(10.9,0,0,10.9,238,175)" />
<use xlink:href="#f2_2" transform="matrix(10.9,0,0,10.9,251.3,175)" />
<use xlink:href="#f2_16" transform="matrix(10.9,0,0,10.9,260,175)" />
<use xlink:href="#f2_2" transform="matrix(10.9,0,0,10.9,266.8,175)" />
<use xlink:href="#f2_5" transform="matrix(10.9,0,0,10.9,275.5,175)" />
<use xlink:href="#f2_2" transform="matrix(10.9,0,0,10.9,284.9,175)" />
<use xlink:href="#f2_14" transform="matrix(10.9,0,0,10.9,293.6,175)" />
<use xlink:href="#f2_b" transform="matrix(10.9,0,0,10.9,300.7,175)" />
<use xlink:href="#f2_8" transform="matrix(10.9,0,0,10.9,315.3,175)" />
<use xlink:href="#f2_b" transform="matrix(10.9,0,0,10.9,328.5,175)" />
<use xlink:href="#f2_14" transform="matrix(10.9,0,0,10.9,337,175)" />
<use xlink:href="#f2_1g" transform="matrix(10.9,0,0,10.9,344.1,175)" />
<use xlink:href="#f2_g" transform="matrix(10.9,0,0,10.9,348.3,175)" />
<use xlink:href="#f2_q" transform="matrix(10.9,0,0,10.9,357.5,175)" />
<use xlink:href="#f2_k" transform="matrix(10.9,0,0,10.9,372.9,175)" />
<use xlink:href="#f3_8" transform="matrix(10.9,0,0,10.9,378.5,175)" />
<use xlink:href="#f3_1r" transform="matrix(10.9,0,0,10.9,388.6,175)" />
<use xlink:href="#f3_21" transform="matrix(10.9,0,0,10.9,397,175)" />
<use xlink:href="#f3_1n" transform="matrix(10.9,0,0,10.9,405.3,175)" />
<use xlink:href="#f3_1r" transform="matrix(10.9,0,0,10.9,413.6,175)" />
<use xlink:href="#f3_21" transform="matrix(10.9,0,0,10.9,422,175)" />
</g>
<g fill="#3873B3" >
<use xlink:href="#f1_3" transform="matrix(10.9,0,0,10.9,223.3,199.9)" />
</g>
<g fill="#000000" >
<use xlink:href="#f2_c" transform="matrix(10.9,0,0,10.9,238,199.9)" />
<use xlink:href="#f2_s" transform="matrix(10.9,0,0,10.9,247.7,199.9)" />
<use xlink:href="#f2_12" transform="matrix(10.9,0,0,10.9,256.4,199.9)" />
<use xlink:href="#f2_p" transform="matrix(10.9,0,0,10.9,262.6,199.9)" />
<use xlink:href="#f2_2" transform="matrix(10.9,0,0,10.9,277,199.9)" />
<use xlink:href="#f2_n" transform="matrix(10.9,0,0,10.9,285.8,199.9)" />
<use xlink:href="#f2_o" transform="matrix(10.9,0,0,10.9,296.2,199.9)" />
<use xlink:href="#f2_b" transform="matrix(10.9,0,0,10.9,312.4,199.9)" />
<use xlink:href="#f2_16" transform="matrix(10.9,0,0,10.9,321,199.9)" />
<use xlink:href="#f2_i" transform="matrix(10.9,0,0,10.9,327.7,199.9)" />
<use xlink:href="#f2_s" transform="matrix(10.9,0,0,10.9,337.1,199.9)" />
<use xlink:href="#f2_9" transform="matrix(10.9,0,0,10.9,346.7,199.9)" />
<use xlink:href="#f2_14" transform="matrix(10.9,0,0,10.9,356.1,199.9)" />
<use xlink:href="#f2_k" transform="matrix(10.9,0,0,10.9,369.2,199.9)" />
<use xlink:href="#f2_q" transform="matrix(10.9,0,0,10.9,374.7,199.9)" />
<use xlink:href="#f2_13" transform="matrix(10.9,0,0,10.9,390.2,199.9)" />
<use xlink:href="#f2_s" transform="matrix(10.9,0,0,10.9,400.4,199.9)" />
<use xlink:href="#f2_d" transform="matrix(10.9,0,0,10.9,409.5,199.9)" />
<use xlink:href="#f2_16" transform="matrix(10.9,0,0,10.9,415.1,199.9)" />
<use xlink:href="#f2_1c" transform="matrix(10.9,0,0,10.9,421.4,199.9)" />
<use xlink:href="#f2_2" transform="matrix(10.9,0,0,10.9,433.3,199.9)" />
<use xlink:href="#f2_12" transform="matrix(10.9,0,0,10.9,441.5,199.9)" />
<use xlink:href="#f2_b" transform="matrix(10.9,0,0,10.9,447.7,199.9)" />
<use xlink:href="#f2_8" transform="matrix(10.9,0,0,10.9,462.3,199.9)" />
<use xlink:href="#f2_b" transform="matrix(10.9,0,0,10.9,475.6,199.9)" />
<use xlink:href="#f2_1a" transform="matrix(10.9,0,0,10.9,484.1,199.9)" />
<use xlink:href="#f2_b" transform="matrix(10.9,0,0,10.9,492.4,199.9)" />
<use xlink:href="#f2_n" transform="matrix(10.9,0,0,10.9,501,199.9)" />
<use xlink:href="#f2_s" transform="matrix(10.9,0,0,10.9,505.2,199.9)" />
<use xlink:href="#f2_u" transform="matrix(10.9,0,0,10.9,514.4,199.9)" />
<use xlink:href="#f2_p" transform="matrix(10.9,0,0,10.9,523.7,199.9)" />
<use xlink:href="#f2_b" transform="matrix(10.9,0,0,10.9,538.2,199.9)" />
<use xlink:href="#f2_q" transform="matrix(10.9,0,0,10.9,546.7,199.9)" />
<use xlink:href="#f2_16" transform="matrix(10.9,0,0,10.9,556,199.9)" />
<use xlink:href="#f3_8" transform="matrix(10.9,0,0,10.9,562.8,199.9)" />
<use xlink:href="#f3_1r" transform="matrix(10.9,0,0,10.9,574.8,199.9)" />
<use xlink:href="#f3_21" transform="matrix(10.9,0,0,10.9,583.1,199.9)" />
<use xlink:href="#f3_1n" transform="matrix(10.9,0,0,10.9,591.5,199.9)" />
<use xlink:href="#f3_1r" transform="matrix(10.9,0,0,10.9,599.8,199.9)" />
<use xlink:href="#f3_21" transform="matrix(10.9,0,0,10.9,608.1,199.9)" />
</g>
<g fill="#3873B3" >
<use xlink:href="#f1_3" transform="matrix(10.9,0,0,10.9,223.3,224.7)" />
</g>
<g fill="#000000" >
<use xlink:href="#f2_r" transform="matrix(10.9,0,0,10.9,238,224.7)" />
<use xlink:href="#f2_u" transform="matrix(10.9,0,0,10.9,251.3,224.7)" />
<use xlink:href="#f2_b" transform="matrix(10.9,0,0,10.9,261.2,224.7)" />
<use xlink:href="#f2_12" transform="matrix(10.9,0,0,10.9,269.7,224.7)" />
<use xlink:href="#f2_2" transform="matrix(10.9,0,0,10.9,275.9,224.7)" />
<use xlink:href="#f2_16" transform="matrix(10.9,0,0,10.9,284.6,224.7)" />
<use xlink:href="#f2_1g" transform="matrix(10.9,0,0,10.9,291.4,224.7)" />
<use xlink:href="#f2_q" transform="matrix(10.9,0,0,10.9,295.6,224.7)" />
<use xlink:href="#f2_g" transform="matrix(10.9,0,0,10.9,305,224.7)" />
<use xlink:href="#f2_13" transform="matrix(10.9,0,0,10.9,320.2,224.7)" />
<use xlink:href="#f2_1e" transform="matrix(10.9,0,0,10.9,330.4,224.7)" />
<use xlink:href="#f2_14" transform="matrix(10.9,0,0,10.9,338.8,224.7)" />
<use xlink:href="#f2_16" transform="matrix(10.9,0,0,10.9,345.8,224.7)" />
<use xlink:href="#f2_b" transform="matrix(10.9,0,0,10.9,352.5,224.7)" />
<use xlink:href="#f2_p" transform="matrix(10.9,0,0,10.9,361,224.7)" />
<use xlink:href="#f2_14" transform="matrix(10.9,0,0,10.9,375.5,224.7)" />
<use xlink:href="#f3_8" transform="matrix(10.9,0,0,10.9,382.6,224.7)" />
<use xlink:href="#f3_15" transform="matrix(10.9,0,0,10.9,394.6,224.7)" />
<use xlink:href="#f3_11" transform="matrix(10.9,0,0,10.9,402.9,224.7)" />
<use xlink:href="#f3_1b" transform="matrix(10.9,0,0,10.9,411.2,224.7)" />
<use xlink:href="#f3_1r" transform="matrix(10.9,0,0,10.9,415.9,224.7)" />
<use xlink:href="#f3_1n" transform="matrix(10.9,0,0,10.9,424.2,224.7)" />
<use xlink:href="#f3_1r" transform="matrix(10.9,0,0,10.9,432.5,224.7)" />
<use xlink:href="#f3_21" transform="matrix(10.9,0,0,10.9,440.9,224.7)" />
<use xlink:href="#f3_9" transform="matrix(10.9,0,0,10.9,449.2,224.7)" />
<use xlink:href="#f2_m" transform="matrix(10.9,0,0,10.9,459.4,224.7)" />
<use xlink:href="#f2_2" transform="matrix(10.9,0,0,10.9,469.1,224.7)" />
<use xlink:href="#f2_5" transform="matrix(10.9,0,0,10.9,477.8,224.7)" />
<use xlink:href="#f3_8" transform="matrix(10.9,0,0,10.9,487.2,224.7)" />
<use xlink:href="#f3_1r" transform="matrix(10.9,0,0,10.9,499.2,224.7)" />
<use xlink:href="#f3_21" transform="matrix(10.9,0,0,10.9,507.5,224.7)" />
<use xlink:href="#f3_1n" transform="matrix(10.9,0,0,10.9,515.9,224.7)" />
<use xlink:href="#f3_1r" transform="matrix(10.9,0,0,10.9,524.2,224.7)" />
<use xlink:href="#f3_21" transform="matrix(10.9,0,0,10.9,532.5,224.7)" />
</g>
<g fill="#3873B3" >
<use xlink:href="#f1_3" transform="matrix(10.9,0,0,10.9,223.3,249.6)" />
</g>
<g fill="#000000" >
<use xlink:href="#f2_13" transform="matrix(10.9,0,0,10.9,238,249.6)" />
<use xlink:href="#f2_s" transform="matrix(10.9,0,0,10.9,248.2,249.6)" />
<use xlink:href="#f2_d" transform="matrix(10.9,0,0,10.9,257.4,249.6)" />
<use xlink:href="#f2_16" transform="matrix(10.9,0,0,10.9,263,249.6)" />
<use xlink:href="#f2_1c" transform="matrix(10.9,0,0,10.9,269.2,249.6)" />
<use xlink:href="#f2_2" transform="matrix(10.9,0,0,10.9,281.1,249.6)" />
<use xlink:href="#f2_12" transform="matrix(10.9,0,0,10.9,289.4,249.6)" />
<use xlink:href="#f2_b" transform="matrix(10.9,0,0,10.9,295.6,249.6)" />
<use xlink:href="#f2_a" transform="matrix(10.9,0,0,10.9,310.2,249.6)" />
<use xlink:href="#f2_q" transform="matrix(10.9,0,0,10.9,320.9,249.6)" />
<use xlink:href="#f2_g" transform="matrix(10.9,0,0,10.9,330.2,249.6)" />
<use xlink:href="#f2_1g" transform="matrix(10.9,0,0,10.9,339.4,249.6)" />
<use xlink:href="#f2_q" transform="matrix(10.9,0,0,10.9,343.7,249.6)" />
<use xlink:href="#f2_b" transform="matrix(10.9,0,0,10.9,353,249.6)" />
<use xlink:href="#f2_b" transform="matrix(10.9,0,0,10.9,361.5,249.6)" />
<use xlink:href="#f2_12" transform="matrix(10.9,0,0,10.9,370.1,249.6)" />
<use xlink:href="#f2_1g" transform="matrix(10.9,0,0,10.9,376.3,249.6)" />
<use xlink:href="#f2_q" transform="matrix(10.9,0,0,10.9,380.5,249.6)" />
<use xlink:href="#f2_g" transform="matrix(10.9,0,0,10.9,389.9,249.6)" />
<use xlink:href="#f2_k" transform="matrix(10.9,0,0,10.9,405.2,249.6)" />
<use xlink:href="#f3_8" transform="matrix(10.9,0,0,10.9,410.7,249.6)" />
<use xlink:href="#f3_15" transform="matrix(10.9,0,0,10.9,420.8,249.6)" />
<use xlink:href="#f3_11" transform="matrix(10.9,0,0,10.9,429.2,249.6)" />
<use xlink:href="#f3_1b" transform="matrix(10.9,0,0,10.9,437.5,249.6)" />
<use xlink:href="#f3_l" transform="matrix(10.9,0,0,10.9,442.1,249.6)" />
<use xlink:href="#f3_1r" transform="matrix(10.9,0,0,10.9,450.5,249.6)" />
<use xlink:href="#f3_1n" transform="matrix(10.9,0,0,10.9,458.8,249.6)" />
<use xlink:href="#f3_1r" transform="matrix(10.9,0,0,10.9,467.1,249.6)" />
<use xlink:href="#f3_21" transform="matrix(10.9,0,0,10.9,475.5,249.6)" />
<use xlink:href="#f3_9" transform="matrix(10.9,0,0,10.9,483.8,249.6)" />
<use xlink:href="#f2_m" transform="matrix(10.9,0,0,10.9,494,249.6)" />
<use xlink:href="#f2_2" transform="matrix(10.9,0,0,10.9,503.7,249.6)" />
<use xlink:href="#f2_5" transform="matrix(10.9,0,0,10.9,512.4,249.6)" />
<use xlink:href="#f3_8" transform="matrix(10.9,0,0,10.9,521.8,249.6)" />
<use xlink:href="#f3_15" transform="matrix(10.9,0,0,10.9,533.8,249.6)" />
<use xlink:href="#f3_11" transform="matrix(10.9,0,0,10.9,542.1,249.6)" />
<use xlink:href="#f3_1b" transform="matrix(10.9,0,0,10.9,550.5,249.6)" />
<use xlink:href="#f3_k" transform="matrix(10.9,0,0,10.9,555.1,249.6)" />
<use xlink:href="#f3_1n" transform="matrix(10.9,0,0,10.9,563.4,249.6)" />
<use xlink:href="#f3_1r" transform="matrix(10.9,0,0,10.9,571.8,249.6)" />
<use xlink:href="#f3_21" transform="matrix(10.9,0,0,10.9,580.1,249.6)" />
</g>
<g fill="#3873B3" >
<use xlink:href="#f1_3" transform="matrix(10.9,0,0,10.9,223.3,274.5)" />
</g>
<g fill="#000000" >
<use xlink:href="#f2_13" transform="matrix(10.9,0,0,10.9,238,274.5)" />
<use xlink:href="#f2_s" transform="matrix(10.9,0,0,10.9,248.2,274.5)" />
<use xlink:href="#f2_d" transform="matrix(10.9,0,0,10.9,257.4,274.5)" />
<use xlink:href="#f2_16" transform="matrix(10.9,0,0,10.9,263,274.5)" />
<use xlink:href="#f2_1c" transform="matrix(10.9,0,0,10.9,269.2,274.5)" />
<use xlink:href="#f2_2" transform="matrix(10.9,0,0,10.9,281.1,274.5)" />
<use xlink:href="#f2_12" transform="matrix(10.9,0,0,10.9,289.4,274.5)" />
<use xlink:href="#f2_b" transform="matrix(10.9,0,0,10.9,295.6,274.5)" />
<use xlink:href="#f2_a" transform="matrix(10.9,0,0,10.9,310.2,274.5)" />
<use xlink:href="#f2_q" transform="matrix(10.9,0,0,10.9,320.9,274.5)" />
<use xlink:href="#f2_g" transform="matrix(10.9,0,0,10.9,330.2,274.5)" />
<use xlink:href="#f2_1g" transform="matrix(10.9,0,0,10.9,339.4,274.5)" />
<use xlink:href="#f2_q" transform="matrix(10.9,0,0,10.9,343.7,274.5)" />
<use xlink:href="#f2_b" transform="matrix(10.9,0,0,10.9,353,274.5)" />
<use xlink:href="#f2_b" transform="matrix(10.9,0,0,10.9,361.5,274.5)" />
<use xlink:href="#f2_12" transform="matrix(10.9,0,0,10.9,370.1,274.5)" />
<use xlink:href="#f2_1g" transform="matrix(10.9,0,0,10.9,376.3,274.5)" />
<use xlink:href="#f2_q" transform="matrix(10.9,0,0,10.9,380.5,274.5)" />
<use xlink:href="#f2_g" transform="matrix(10.9,0,0,10.9,389.9,274.5)" />
<use xlink:href="#f2_k" transform="matrix(10.9,0,0,10.9,405.2,274.5)" />
<use xlink:href="#f2_k" transform="matrix(10.9,0,0,10.9,411.2,274.5)" />
<use xlink:href="#f3_8" transform="matrix(10.9,0,0,10.9,416.7,274.5)" />
<use xlink:href="#f3_15" transform="matrix(10.9,0,0,10.9,426.9,274.5)" />
<use xlink:href="#f3_11" transform="matrix(10.9,0,0,10.9,435.2,274.5)" />
<use xlink:href="#f3_1b" transform="matrix(10.9,0,0,10.9,443.5,274.5)" />
<use xlink:href="#f3_15" transform="matrix(10.9,0,0,10.9,448.2,274.5)" />
<use xlink:href="#f3_1n" transform="matrix(10.9,0,0,10.9,456.5,274.5)" />
<use xlink:href="#f3_1r" transform="matrix(10.9,0,0,10.9,464.8,274.5)" />
<use xlink:href="#f3_21" transform="matrix(10.9,0,0,10.9,473.2,274.5)" />
<use xlink:href="#f3_9" transform="matrix(10.9,0,0,10.9,481.5,274.5)" />
<use xlink:href="#f2_m" transform="matrix(10.9,0,0,10.9,491.7,274.5)" />
<use xlink:href="#f2_2" transform="matrix(10.9,0,0,10.9,501.4,274.5)" />
<use xlink:href="#f2_5" transform="matrix(10.9,0,0,10.9,510.1,274.5)" />
<use xlink:href="#f3_8" transform="matrix(10.9,0,0,10.9,519.5,274.5)" />
<use xlink:href="#f3_15" transform="matrix(10.9,0,0,10.9,531.5,274.5)" />
<use xlink:href="#f3_e" transform="matrix(10.9,0,0,10.9,539.8,274.5)" />
<use xlink:href="#f3_1b" transform="matrix(10.9,0,0,10.9,548.2,274.5)" />
<use xlink:href="#f3_e" transform="matrix(10.9,0,0,10.9,552.8,274.5)" />
<use xlink:href="#f3_1n" transform="matrix(10.9,0,0,10.9,561.1,274.5)" />
<use xlink:href="#f3_1r" transform="matrix(10.9,0,0,10.9,569.4,274.5)" />
<use xlink:href="#f3_21" transform="matrix(10.9,0,0,10.9,577.8,274.5)" />
</g>
<g fill="#3873B3" >
<use xlink:href="#f1_3" transform="matrix(10.9,0,0,10.9,223.3,299.3)" />
</g>
<g fill="#000000" >
<use xlink:href="#f2_15" transform="matrix(10.9,0,0,10.9,237.4,299.3)" />
<use xlink:href="#f2_b" transform="matrix(10.9,0,0,10.9,248.1,299.3)" />
<use xlink:href="#f2_7" transform="matrix(10.9,0,0,10.9,256.6,299.3)" />
<use xlink:href="#f2_i" transform="matrix(10.9,0,0,10.9,264.8,299.3)" />
<use xlink:href="#f2_q" transform="matrix(10.9,0,0,10.9,274.1,299.3)" />
<use xlink:href="#f2_1g" transform="matrix(10.9,0,0,10.9,283.5,299.3)" />
<use xlink:href="#f2_7" transform="matrix(10.9,0,0,10.9,287.8,299.3)" />
<use xlink:href="#f2_2" transform="matrix(10.9,0,0,10.9,295.9,299.3)" />
<use xlink:href="#f2_n" transform="matrix(10.9,0,0,10.9,304.7,299.3)" />
<use xlink:href="#f2_3" transform="matrix(10.9,0,0,10.9,315,299.3)" />
<use xlink:href="#f2_13" transform="matrix(10.9,0,0,10.9,335,299.3)" />
<use xlink:href="#f2_7" transform="matrix(10.9,0,0,10.9,345.2,299.3)" />
<use xlink:href="#f2_1g" transform="matrix(10.9,0,0,10.9,353.3,299.3)" />
<use xlink:href="#f2_b" transform="matrix(10.9,0,0,10.9,357.6,299.3)" />
<use xlink:href="#f2_q" transform="matrix(10.9,0,0,10.9,366.1,299.3)" />
<use xlink:href="#f2_16" transform="matrix(10.9,0,0,10.9,375.5,299.3)" />
<use xlink:href="#f2_1g" transform="matrix(10.9,0,0,10.9,382.2,299.3)" />
<use xlink:href="#f2_e" transform="matrix(10.9,0,0,10.9,386.4,299.3)" />
<use xlink:href="#f2_7" transform="matrix(10.9,0,0,10.9,396.2,299.3)" />
<use xlink:href="#f2_t" transform="matrix(10.9,0,0,10.9,410.5,299.3)" />
<use xlink:href="#f2_12" transform="matrix(10.9,0,0,10.9,422.2,299.3)" />
<use xlink:href="#f2_b" transform="matrix(10.9,0,0,10.9,428.4,299.3)" />
<use xlink:href="#f2_14" transform="matrix(10.9,0,0,10.9,436.9,299.3)" />
<use xlink:href="#f2_b" transform="matrix(10.9,0,0,10.9,443.9,299.3)" />
<use xlink:href="#f2_q" transform="matrix(10.9,0,0,10.9,452.4,299.3)" />
<use xlink:href="#f2_16" transform="matrix(10.9,0,0,10.9,461.8,299.3)" />
<use xlink:href="#f2_2" transform="matrix(10.9,0,0,10.9,468.5,299.3)" />
<use xlink:href="#f2_16" transform="matrix(10.9,0,0,10.9,477.3,299.3)" />
<use xlink:href="#f2_1g" transform="matrix(10.9,0,0,10.9,484,299.3)" />
<use xlink:href="#f2_s" transform="matrix(10.9,0,0,10.9,488.3,299.3)" />
<use xlink:href="#f2_q" transform="matrix(10.9,0,0,10.9,497.4,299.3)" />
<use xlink:href="#f3_8" transform="matrix(10.9,0,0,10.9,506.8,299.3)" />
<use xlink:href="#f3_1r" transform="matrix(10.9,0,0,10.9,518.8,299.3)" />
<use xlink:href="#f3_21" transform="matrix(10.9,0,0,10.9,527.2,299.3)" />
<use xlink:href="#f3_1n" transform="matrix(10.9,0,0,10.9,535.5,299.3)" />
<use xlink:href="#f3_1r" transform="matrix(10.9,0,0,10.9,543.8,299.3)" />
<use xlink:href="#f3_21" transform="matrix(10.9,0,0,10.9,552.2,299.3)" />
</g>
<g fill="#3873B3" >
<use xlink:href="#f1_3" transform="matrix(10.9,0,0,10.9,223.3,324.2)" />
</g>
<g fill="#000000" >
<use xlink:href="#f2_a" transform="matrix(10.9,0,0,10.9,238,324.2)" />
<use xlink:href="#f2_n" transform="matrix(10.9,0,0,10.9,248.7,324.2)" />
<use xlink:href="#f2_b" transform="matrix(10.9,0,0,10.9,253,324.2)" />
<use xlink:href="#f2_7" transform="matrix(10.9,0,0,10.9,261.5,324.2)" />
<use xlink:href="#f2_16" transform="matrix(10.9,0,0,10.9,269.7,324.2)" />
<use xlink:href="#f2_12" transform="matrix(10.9,0,0,10.9,276.4,324.2)" />
<use xlink:href="#f2_s" transform="matrix(10.9,0,0,10.9,282.6,324.2)" />
<use xlink:href="#f2_q" transform="matrix(10.9,0,0,10.9,291.8,324.2)" />
<use xlink:href="#f2_1g" transform="matrix(10.9,0,0,10.9,301.1,324.2)" />
<use xlink:href="#f2_7" transform="matrix(10.9,0,0,10.9,305.4,324.2)" />
<use xlink:href="#f2_6" transform="matrix(10.9,0,0,10.9,319.6,324.2)" />
<use xlink:href="#f2_s" transform="matrix(10.9,0,0,10.9,331.4,324.2)" />
<use xlink:href="#f2_p" transform="matrix(10.9,0,0,10.9,340.5,324.2)" />
<use xlink:href="#f2_p" transform="matrix(10.9,0,0,10.9,355,324.2)" />
<use xlink:href="#f2_b" transform="matrix(10.9,0,0,10.9,369.4,324.2)" />
<use xlink:href="#f2_12" transform="matrix(10.9,0,0,10.9,377.9,324.2)" />
<use xlink:href="#f2_7" transform="matrix(10.9,0,0,10.9,384.1,324.2)" />
<use xlink:href="#f2_b" transform="matrix(10.9,0,0,10.9,392.3,324.2)" />
<use xlink:href="#f3_8" transform="matrix(10.9,0,0,10.9,400.8,324.2)" />
<use xlink:href="#f3_15" transform="matrix(10.9,0,0,10.9,412.8,324.2)" />
<use xlink:href="#f3_11" transform="matrix(10.9,0,0,10.9,421.2,324.2)" />
<use xlink:href="#f3_1b" transform="matrix(10.9,0,0,10.9,429.5,324.2)" />
<use xlink:href="#f3_k" transform="matrix(10.9,0,0,10.9,434.1,324.2)" />
<use xlink:href="#f3_1n" transform="matrix(10.9,0,0,10.9,442.5,324.2)" />
<use xlink:href="#f3_1r" transform="matrix(10.9,0,0,10.9,450.8,324.2)" />
<use xlink:href="#f3_21" transform="matrix(10.9,0,0,10.9,459.1,324.2)" />
</g>
<g fill="#3873B3" >
<use xlink:href="#f1_3" transform="matrix(10.9,0,0,10.9,223.3,349.1)" />
</g>
<g fill="#000000" >
<use xlink:href="#f2_o" transform="matrix(10.9,0,0,10.9,238,349.1)" />
<use xlink:href="#f2_18" transform="matrix(10.9,0,0,10.9,254.3,349.1)" />
<use xlink:href="#f2_n" transform="matrix(10.9,0,0,10.9,263.7,349.1)" />
<use xlink:href="#f2_16" transform="matrix(10.9,0,0,10.9,268,349.1)" />
<use xlink:href="#f2_1g" transform="matrix(10.9,0,0,10.9,274.7,349.1)" />
<use xlink:href="#f2_p" transform="matrix(10.9,0,0,10.9,278.9,349.1)" />
<use xlink:href="#f2_b" transform="matrix(10.9,0,0,10.9,293.4,349.1)" />
<use xlink:href="#f2_9" transform="matrix(10.9,0,0,10.9,301.9,349.1)" />
<use xlink:href="#f2_1g" transform="matrix(10.9,0,0,10.9,311.3,349.1)" />
<use xlink:href="#f2_2" transform="matrix(10.9,0,0,10.9,315.5,349.1)" />
<use xlink:href="#f2_13" transform="matrix(10.9,0,0,10.9,330.4,349.1)" />
<use xlink:href="#f2_1e" transform="matrix(10.9,0,0,10.9,340.6,349.1)" />
<use xlink:href="#f2_14" transform="matrix(10.9,0,0,10.9,348.9,349.1)" />
<use xlink:href="#f2_16" transform="matrix(10.9,0,0,10.9,355.9,349.1)" />
<use xlink:href="#f2_b" transform="matrix(10.9,0,0,10.9,362.7,349.1)" />
<use xlink:href="#f2_p" transform="matrix(10.9,0,0,10.9,371.2,349.1)" />
<use xlink:href="#f2_14" transform="matrix(10.9,0,0,10.9,385.6,349.1)" />
<use xlink:href="#f3_8" transform="matrix(10.9,0,0,10.9,392.7,349.1)" />
<use xlink:href="#f3_15" transform="matrix(10.9,0,0,10.9,404.7,349.1)" />
<use xlink:href="#f3_11" transform="matrix(10.9,0,0,10.9,413.1,349.1)" />
<use xlink:href="#f3_1b" transform="matrix(10.9,0,0,10.9,421.4,349.1)" />
<use xlink:href="#f3_1q" transform="matrix(10.9,0,0,10.9,426,349.1)" />
<use xlink:href="#f3_1n" transform="matrix(10.9,0,0,10.9,434.4,349.1)" />
<use xlink:href="#f3_1r" transform="matrix(10.9,0,0,10.9,442.7,349.1)" />
<use xlink:href="#f3_21" transform="matrix(10.9,0,0,10.9,451,349.1)" />
</g>
<path d="M113.7,399.7h95.9v-7H113.7v7Z" class="g0_3" />
<g fill="#3873B3" >
<use xlink:href="#f0_b" transform="matrix(14.3,0,0,14.3,223.3,402.3)" />
<use xlink:href="#f0_k" transform="matrix(14.3,0,0,14.3,238.3,402.3)" />
<use xlink:href="#f0_j" transform="matrix(14.3,0,0,14.3,249,402.3)" />
<use xlink:href="#f0_k" transform="matrix(14.3,0,0,14.3,260.1,402.3)" />
<use xlink:href="#f0_o" transform="matrix(14.3,0,0,14.3,270.2,402.3)" />
<use xlink:href="#f0_q" transform="matrix(14.3,0,0,14.3,277.5,402.3)" />
<use xlink:href="#f0_2" transform="matrix(14.3,0,0,14.3,292.9,402.3)" />
<use xlink:href="#f0_j" transform="matrix(14.3,0,0,14.3,303.1,402.3)" />
<use xlink:href="#f0_6" transform="matrix(14.3,0,0,14.3,314.1,402.3)" />
<use xlink:href="#f0_1" transform="matrix(14.3,0,0,14.3,332.3,402.3)" />
<use xlink:href="#f0_v" transform="matrix(14.3,0,0,14.3,345.9,402.3)" />
<use xlink:href="#f0_2" transform="matrix(14.3,0,0,14.3,359.9,402.3)" />
<use xlink:href="#f0_o" transform="matrix(14.3,0,0,14.3,369.6,402.3)" />
<use xlink:href="#f0_6" transform="matrix(14.3,0,0,14.3,376.8,402.3)" />
<use xlink:href="#f0_q" transform="matrix(14.3,0,0,14.3,387.9,402.3)" />
</g>
<g fill="#000000" >
<use xlink:href="#f3_1r" transform="matrix(10.9,0,0,10.9,176.2,431.9)" />
<use xlink:href="#f3_21" transform="matrix(10.9,0,0,10.9,184.6,431.9)" />
<use xlink:href="#f3_15" transform="matrix(10.9,0,0,10.9,192.9,431.9)" />
<use xlink:href="#f3_21" transform="matrix(10.9,0,0,10.9,201.2,431.9)" />
<use xlink:href="#f3_1h" transform="matrix(10.7,0,0,10.9,223.3,431.9)" />
<use xlink:href="#f3_2" transform="matrix(10.7,0,0,10.9,233.8,431.9)" />
<use xlink:href="#f3_10" transform="matrix(10.7,0,0,10.9,241.7,431.9)" />
<use xlink:href="#f3_u" transform="matrix(10.7,0,0,10.9,250.1,431.9)" />
<use xlink:href="#f3_d" transform="matrix(10.7,0,0,10.9,257.6,431.9)" />
<use xlink:href="#f3_b" transform="matrix(10.7,0,0,10.9,264.9,431.9)" />
<use xlink:href="#f3_2" transform="matrix(10.7,0,0,10.9,278.5,431.9)" />
<use xlink:href="#f3_y" transform="matrix(10.7,0,0,10.9,286.4,431.9)" />
<use xlink:href="#f3_14" transform="matrix(10.7,0,0,10.9,299.4,431.9)" />
<use xlink:href="#f3_10" transform="matrix(10.7,0,0,10.9,307.5,431.9)" />
<use xlink:href="#f3_n" transform="matrix(10.7,0,0,10.9,316,431.9)" />
<use xlink:href="#f3_1p" transform="matrix(10.7,0,0,10.9,329.3,431.9)" />
<use xlink:href="#f3_p" transform="matrix(10.7,0,0,10.9,335.2,431.9)" />
<use xlink:href="#f3_d" transform="matrix(10.7,0,0,10.9,343.7,431.9)" />
<use xlink:href="#f3_1o" transform="matrix(10.7,0,0,10.9,356.1,431.9)" />
<use xlink:href="#f3_14" transform="matrix(10.7,0,0,10.9,365.9,431.9)" />
<use xlink:href="#f3_17" transform="matrix(10.7,0,0,10.9,374,431.9)" />
<use xlink:href="#f3_15" transform="matrix(10.7,0,0,10.9,387.7,431.9)" />
<use xlink:href="#f3_1a" transform="matrix(10.7,0,0,10.9,395.8,431.9)" />
<use xlink:href="#f3_14" transform="matrix(10.7,0,0,10.9,414.7,431.9)" />
<use xlink:href="#f3_h" transform="matrix(10.7,0,0,10.9,422.8,431.9)" />
<use xlink:href="#f3_1p" transform="matrix(10.7,0,0,10.9,433,431.9)" />
<use xlink:href="#f3_p" transform="matrix(10.7,0,0,10.9,438.9,431.9)" />
<use xlink:href="#f3_d" transform="matrix(10.7,0,0,10.9,447.4,431.9)" />
<use xlink:href="#f3_z" transform="matrix(10.7,0,0,10.9,459.8,431.9)" />
<use xlink:href="#f3_2" transform="matrix(10.7,0,0,10.9,471.4,431.9)" />
<use xlink:href="#f3_1p" transform="matrix(10.7,0,0,10.9,479.3,431.9)" />
<use xlink:href="#f3_22" transform="matrix(10.7,0,0,10.9,485.2,431.9)" />
<use xlink:href="#f3_14" transform="matrix(10.7,0,0,10.9,489.1,431.9)" />
<use xlink:href="#f3_10" transform="matrix(10.7,0,0,10.9,497.2,431.9)" />
<use xlink:href="#f3_2" transform="matrix(10.7,0,0,10.9,505.7,431.9)" />
<use xlink:href="#f3_w" transform="matrix(10.7,0,0,10.9,513.5,431.9)" />
<use xlink:href="#f3_1s" transform="matrix(10.7,0,0,10.9,522.6,431.9)" />
<use xlink:href="#f3_10" transform="matrix(10.7,0,0,10.9,533.9,431.9)" />
<use xlink:href="#f3_22" transform="matrix(10.7,0,0,10.9,542.3,431.9)" />
<use xlink:href="#f3_1v" transform="matrix(10.7,0,0,10.9,546.2,431.9)" />
<use xlink:href="#f3_d" transform="matrix(10.7,0,0,10.9,553.7,431.9)" />
<use xlink:href="#f3_1i" transform="matrix(10.7,0,0,10.9,561,431.9)" />
<use xlink:href="#f3_1k" transform="matrix(10.7,0,0,10.9,566.6,431.9)" />
<use xlink:href="#f3_22" transform="matrix(10.7,0,0,10.9,572.8,431.9)" />
<use xlink:href="#f3_1p" transform="matrix(10.7,0,0,10.9,576.7,431.9)" />
<use xlink:href="#f3_1z" transform="matrix(10.7,0,0,10.9,582.2,431.9)" />
<use xlink:href="#f3_c" transform="matrix(10.7,0,0,10.9,594.9,431.9)" />
<use xlink:href="#f3_10" transform="matrix(10.7,0,0,10.9,604.7,431.9)" />
<use xlink:href="#f3_1p" transform="matrix(10.7,0,0,10.9,613.1,431.9)" />
<use xlink:href="#f3_1i" transform="matrix(10.7,0,0,10.9,619,431.9)" />
<use xlink:href="#f3_2" transform="matrix(10.7,0,0,10.9,624.6,431.9)" />
<use xlink:href="#f3_10" transform="matrix(10.7,0,0,10.9,632.4,431.9)" />
<use xlink:href="#f3_7" transform="matrix(10.7,0,0,10.9,640.9,431.9)" />
<use xlink:href="#f3_d" transform="matrix(10.7,0,0,10.9,648.1,431.9)" />
<use xlink:href="#f3_c" transform="matrix(10.7,0,0,10.9,660.6,431.9)" />
<use xlink:href="#f3_1y" transform="matrix(10.7,0,0,10.9,670.3,431.9)" />
<use xlink:href="#f3_2" transform="matrix(10.7,0,0,10.9,677.9,431.9)" />
<use xlink:href="#f3_y" transform="matrix(10.7,0,0,10.9,685.7,431.9)" />
<use xlink:href="#f3_22" transform="matrix(10.7,0,0,10.9,698.7,431.9)" />
<use xlink:href="#f3_10" transform="matrix(10.7,0,0,10.9,702.6,431.9)" />
<use xlink:href="#f3_2" transform="matrix(10.7,0,0,10.9,711,431.9)" />
<use xlink:href="#f3_1p" transform="matrix(10.7,0,0,10.9,718.9,431.9)" />
<use xlink:href="#f3_22" transform="matrix(10.7,0,0,10.9,724.8,431.9)" />
<use xlink:href="#f3_14" transform="matrix(10.7,0,0,10.9,728.7,431.9)" />
<use xlink:href="#f3_10" transform="matrix(10.7,0,0,10.9,736.9,431.9)" />
<use xlink:href="#f3_22" transform="matrix(10.7,0,0,10.9,750.5,431.9)" />
<use xlink:href="#f3_10" transform="matrix(10.7,0,0,10.9,754.4,431.9)" />
<use xlink:href="#f3_r" transform="matrix(10.7,0,0,10.9,768.1,431.9)" />
<use xlink:href="#f3_1i" transform="matrix(10.7,0,0,10.9,772.6,431.9)" />
<use xlink:href="#f3_2" transform="matrix(10.7,0,0,10.9,778.2,431.9)" />
<use xlink:href="#f3_10" transform="matrix(10.7,0,0,10.9,786,431.9)" />
<use xlink:href="#f3_1b" transform="matrix(10.7,0,0,10.9,794.5,431.9)" />
<use xlink:href="#f3_18" transform="matrix(10.9,0,0,10.9,222.6,452.6)" />
<use xlink:href="#f3_2" transform="matrix(10.9,0,0,10.9,229.1,452.6)" />
<use xlink:href="#f3_y" transform="matrix(10.9,0,0,10.9,237.1,452.6)" />
<use xlink:href="#f3_14" transform="matrix(10.9,0,0,10.9,250.3,452.6)" />
<use xlink:href="#f3_10" transform="matrix(10.9,0,0,10.9,258.7,452.6)" />
<use xlink:href="#f3_n" transform="matrix(10.9,0,0,10.9,267.3,452.6)" />
<use xlink:href="#f3_1q" transform="matrix(10.9,0,0,10.9,281.2,452.6)" />
<use xlink:href="#f3_15" transform="matrix(10.9,0,0,10.9,289.5,452.6)" />
<use xlink:href="#f3_1l" transform="matrix(10.9,0,0,10.9,297.8,452.6)" />
<use xlink:href="#f3_9" transform="matrix(10.9,0,0,10.9,306.2,452.6)" />
<use xlink:href="#f3_1m" transform="matrix(10.9,0,0,10.9,310.8,452.6)" />
<use xlink:href="#f3_21" transform="matrix(10.9,0,0,10.9,319.1,452.6)" />
<use xlink:href="#f3_k" transform="matrix(10.9,0,0,10.9,327.5,452.6)" />
<use xlink:href="#f3_17" transform="matrix(10.9,0,0,10.9,341.4,452.6)" />
<use xlink:href="#f3_d" transform="matrix(10.9,0,0,10.9,350.4,452.6)" />
<use xlink:href="#f3_14" transform="matrix(10.9,0,0,10.9,357.8,452.6)" />
<use xlink:href="#f3_17" transform="matrix(10.9,0,0,10.9,366.2,452.6)" />
<use xlink:href="#f3_w" transform="matrix(10.9,0,0,10.9,374.8,452.6)" />
<use xlink:href="#f3_d" transform="matrix(10.9,0,0,10.9,378.8,452.6)" />
<use xlink:href="#f3_19" transform="matrix(10.9,0,0,10.9,386.2,452.6)" />
</g>
<path d="M113.7,517.9h95.9v-7.1H113.7v7.1Z" class="g0_3" />
<g fill="#3873B3" >
<use xlink:href="#f0_h" transform="matrix(14.3,0,0,14.3,223.3,520.5)" />
<use xlink:href="#f0_8" transform="matrix(14.3,0,0,14.3,241.9,520.5)" />
<use xlink:href="#f0_i" transform="matrix(14.3,0,0,14.3,251.4,520.5)" />
<use xlink:href="#f0_3" transform="matrix(14.3,0,0,14.3,268.4,520.5)" />
<use xlink:href="#f0_8" transform="matrix(14.3,0,0,14.3,280,520.5)" />
<use xlink:href="#f0_o" transform="matrix(14.3,0,0,14.3,289.5,520.5)" />
<use xlink:href="#f0_q" transform="matrix(14.3,0,0,14.3,296.8,520.5)" />
<use xlink:href="#f0_c" transform="matrix(14.3,0,0,14.3,305.1,520.5)" />
<use xlink:href="#f0_x" transform="matrix(14.3,0,0,14.3,316.1,520.5)" />
<use xlink:href="#f0_m" transform="matrix(14.3,0,0,14.3,321.1,520.5)" />
</g>
<g fill="#000000" >
<use xlink:href="#f3_1r" transform="matrix(10.9,0,0,10.9,123.5,550.1)" />
<use xlink:href="#f3_21" transform="matrix(10.9,0,0,10.9,131.8,550.1)" />
<use xlink:href="#f3_15" transform="matrix(10.9,0,0,10.9,140.1,550.1)" />
<use xlink:href="#f3_21" transform="matrix(10.9,0,0,10.9,148.5,550.1)" />
<use xlink:href="#f3_f" transform="matrix(10.9,0,0,10.9,162.3,550.1)" />
<use xlink:href="#f3_1r" transform="matrix(10.9,0,0,10.9,176.2,550.1)" />
<use xlink:href="#f3_21" transform="matrix(10.9,0,0,10.9,184.6,550.1)" />
<use xlink:href="#f3_15" transform="matrix(10.9,0,0,10.9,192.9,550.1)" />
<use xlink:href="#f3_l" transform="matrix(10.9,0,0,10.9,201.2,550.1)" />
<use xlink:href="#f2_m" transform="matrix(10.9,0,0,10.9,223.3,550.1)" />
<use xlink:href="#f2_1g" transform="matrix(10.9,0,0,10.9,232.9,550.1)" />
<use xlink:href="#f2_q" transform="matrix(10.9,0,0,10.9,237.2,550.1)" />
<use xlink:href="#f2_18" transform="matrix(10.9,0,0,10.9,246.6,550.1)" />
<use xlink:href="#f2_1d" transform="matrix(10.9,0,0,10.9,255.9,550.1)" />
<use xlink:href="#f2_m" transform="matrix(10.9,0,0,10.9,270.4,550.1)" />
<use xlink:href="#f2_2" transform="matrix(10.9,0,0,10.9,280,550.1)" />
<use xlink:href="#f2_5" transform="matrix(10.9,0,0,10.9,288.8,550.1)" />
<use xlink:href="#f3_9" transform="matrix(10.9,0,0,10.9,298.1,550.1)" />
<use xlink:href="#f3_r" transform="matrix(10.9,0,0,10.9,308.3,550.1)" />
<use xlink:href="#f3_1k" transform="matrix(10.9,0,0,10.9,312.9,550.1)" />
<use xlink:href="#f3_h" transform="matrix(10.9,0,0,10.9,319.3,550.1)" />
<use xlink:href="#f3_2" transform="matrix(10.9,0,0,10.9,324.4,550.1)" />
<use xlink:href="#f3_p" transform="matrix(10.9,0,0,10.9,332.4,550.1)" />
<use xlink:href="#f3_2" transform="matrix(10.9,0,0,10.9,341,550.1)" />
<use xlink:href="#f3_10" transform="matrix(10.9,0,0,10.9,349,550.1)" />
<use xlink:href="#f3_1s" transform="matrix(10.9,0,0,10.9,363.2,550.1)" />
<use xlink:href="#f3_10" transform="matrix(10.9,0,0,10.9,374.7,550.1)" />
<use xlink:href="#f3_22" transform="matrix(10.9,0,0,10.9,383.3,550.1)" />
<use xlink:href="#f3_1v" transform="matrix(10.9,0,0,10.9,387.3,550.1)" />
<use xlink:href="#f3_d" transform="matrix(10.9,0,0,10.9,395,550.1)" />
<use xlink:href="#f3_1i" transform="matrix(10.9,0,0,10.9,402.4,550.1)" />
<use xlink:href="#f3_1k" transform="matrix(10.9,0,0,10.9,408.1,550.1)" />
<use xlink:href="#f3_22" transform="matrix(10.9,0,0,10.9,414.5,550.1)" />
<use xlink:href="#f3_1p" transform="matrix(10.9,0,0,10.9,418.4,550.1)" />
<use xlink:href="#f3_1z" transform="matrix(10.9,0,0,10.9,424,550.1)" />
<use xlink:href="#f3_14" transform="matrix(10.9,0,0,10.9,437.2,550.1)" />
<use xlink:href="#f3_h" transform="matrix(10.9,0,0,10.9,445.6,550.1)" />
<use xlink:href="#f3_1o" transform="matrix(10.9,0,0,10.9,456.2,550.1)" />
<use xlink:href="#f3_d" transform="matrix(10.9,0,0,10.9,466.2,550.1)" />
<use xlink:href="#f3_7" transform="matrix(10.9,0,0,10.9,473.6,550.1)" />
<use xlink:href="#f3_p" transform="matrix(10.9,0,0,10.9,481,550.1)" />
<use xlink:href="#f3_10" transform="matrix(10.9,0,0,10.9,489.6,550.1)" />
<use xlink:href="#f3_14" transform="matrix(10.9,0,0,10.9,498.2,550.1)" />
<use xlink:href="#f3_w" transform="matrix(10.9,0,0,10.9,506.5,550.1)" />
<use xlink:href="#f3_14" transform="matrix(10.9,0,0,10.9,510.5,550.1)" />
<use xlink:href="#f3_n" transform="matrix(10.9,0,0,10.9,518.8,550.1)" />
<use xlink:href="#f3_1z" transform="matrix(10.9,0,0,10.9,527.2,550.1)" />
<use xlink:href="#f3_r" transform="matrix(10.9,0,0,10.9,540.4,550.1)" />
<use xlink:href="#f3_1o" transform="matrix(10.9,0,0,10.9,545,550.1)" />
<use xlink:href="#f3_6" transform="matrix(10.9,0,0,10.9,562,550.1)" />
<use xlink:href="#f3_d" transform="matrix(10.9,0,0,10.9,572.6,550.1)" />
<use xlink:href="#f3_10" transform="matrix(10.9,0,0,10.9,580,550.1)" />
<use xlink:href="#f3_1p" transform="matrix(10.9,0,0,10.9,588.6,550.1)" />
<use xlink:href="#f3_d" transform="matrix(10.9,0,0,10.9,594.6,550.1)" />
<use xlink:href="#f3_1i" transform="matrix(10.9,0,0,10.9,602,550.1)" />
</g>
<path d="M113.7,613.9h95.9v-7.1H113.7v7.1Z" class="g0_3" />
<g fill="#3873B3" >
<use xlink:href="#f0_l" transform="matrix(14.3,0,0,14.3,223.3,616.5)" />
<use xlink:href="#f0_o" transform="matrix(14.3,0,0,14.3,236.9,616.5)" />
<use xlink:href="#f0_k" transform="matrix(14.3,0,0,14.3,244.2,616.5)" />
<use xlink:href="#f0_9" transform="matrix(14.3,0,0,14.3,254.9,616.5)" />
<use xlink:href="#f0_8" transform="matrix(14.3,0,0,14.3,261.5,616.5)" />
<use xlink:href="#f0_q" transform="matrix(14.3,0,0,14.3,271,616.5)" />
<use xlink:href="#f0_q" transform="matrix(14.3,0,0,14.3,279.3,616.5)" />
<use xlink:href="#f0_x" transform="matrix(14.3,0,0,14.3,287.5,616.5)" />
<use xlink:href="#f0_k" transform="matrix(14.3,0,0,14.3,292.5,616.5)" />
<use xlink:href="#f0_j" transform="matrix(14.3,0,0,14.3,303.3,616.5)" />
<use xlink:href="#f0_2" transform="matrix(14.3,0,0,14.3,314.3,616.5)" />
<use xlink:href="#f0_g" transform="matrix(14.3,0,0,14.3,324.5,616.5)" />
<use xlink:href="#f0_q" transform="matrix(14.3,0,0,14.3,336.8,616.5)" />
<use xlink:href="#f0_e" transform="matrix(14.3,0,0,14.3,345,616.5)" />
<use xlink:href="#f0_x" transform="matrix(14.3,0,0,14.3,355.4,616.5)" />
<use xlink:href="#f0_g" transform="matrix(14.3,0,0,14.3,360.4,616.5)" />
<use xlink:href="#f0_g" transform="matrix(14.3,0,0,14.3,365.5,616.5)" />
<use xlink:href="#f0_q" transform="matrix(14.3,0,0,14.3,370.5,616.5)" />
</g>
<g fill="#000000" >
<use xlink:href="#f3_16" transform="matrix(10.9,0,0,10.9,115.5,646.1)" />
<use xlink:href="#f3_1i" transform="matrix(10.9,0,0,10.9,126.1,646.1)" />
<use xlink:href="#f3_14" transform="matrix(10.9,0,0,10.9,131.8,646.1)" />
<use xlink:href="#f3_n" transform="matrix(10.9,0,0,10.9,140.1,646.1)" />
<use xlink:href="#f3_1i" transform="matrix(10.9,0,0,10.9,148.5,646.1)" />
<use xlink:href="#f3_2" transform="matrix(10.9,0,0,10.9,154.2,646.1)" />
<use xlink:href="#f3_y" transform="matrix(10.9,0,0,10.9,162.2,646.1)" />
<use xlink:href="#f3_y" transform="matrix(10.9,0,0,10.9,175.4,646.1)" />
<use xlink:href="#f3_22" transform="matrix(10.9,0,0,10.9,188.6,646.1)" />
<use xlink:href="#f3_10" transform="matrix(10.9,0,0,10.9,192.6,646.1)" />
<use xlink:href="#f3_n" transform="matrix(10.9,0,0,10.9,201.2,646.1)" />
<use xlink:href="#f3_v" transform="matrix(10.9,0,0,10.9,136.8,666.8)" />
<use xlink:href="#f3_2" transform="matrix(10.9,0,0,10.9,145.9,666.8)" />
<use xlink:href="#f3_10" transform="matrix(10.9,0,0,10.9,153.9,666.8)" />
<use xlink:href="#f3_n" transform="matrix(10.9,0,0,10.9,162.5,666.8)" />
<use xlink:href="#f3_1t" transform="matrix(10.9,0,0,10.9,170.8,666.8)" />
<use xlink:href="#f3_2" transform="matrix(10.9,0,0,10.9,179.4,666.8)" />
<use xlink:href="#f3_n" transform="matrix(10.9,0,0,10.9,187.4,666.8)" />
<use xlink:href="#f3_d" transform="matrix(10.9,0,0,10.9,195.8,666.8)" />
<use xlink:href="#f3_1k" transform="matrix(10.9,0,0,10.9,203.2,666.8)" />
<use xlink:href="#f3_6" transform="matrix(10.9,0,0,10.9,223.3,646.1)" />
<use xlink:href="#f3_1n" transform="matrix(10.9,0,0,10.9,233.9,646.1)" />
<use xlink:href="#f3_6" transform="matrix(10.9,0,0,10.9,242.2,646.1)" />
<use xlink:href="#f3_1c" transform="matrix(10.9,0,0,10.9,252.9,646.1)" />
<use xlink:href="#f3_1c" transform="matrix(10.9,0,0,10.9,265.9,646.1)" />
<use xlink:href="#f3_9" transform="matrix(10.9,0,0,10.9,278.8,646.1)" />
<use xlink:href="#f3_16" transform="matrix(10.9,0,0,10.9,289,646.1)" />
<use xlink:href="#f3_1z" transform="matrix(10.9,0,0,10.9,299.7,646.1)" />
<use xlink:href="#f3_1p" transform="matrix(10.9,0,0,10.9,307.3,646.1)" />
<use xlink:href="#f3_p" transform="matrix(10.9,0,0,10.9,313.4,646.1)" />
<use xlink:href="#f3_14" transform="matrix(10.9,0,0,10.9,322,646.1)" />
<use xlink:href="#f3_10" transform="matrix(10.9,0,0,10.9,330.3,646.1)" />
<use xlink:href="#f3_9" transform="matrix(10.9,0,0,10.9,338.9,646.1)" />
<use xlink:href="#f3_6" transform="matrix(10.9,0,0,10.9,349.1,646.1)" />
<use xlink:href="#f3_12" transform="matrix(10.9,0,0,10.9,359.8,646.1)" />
<use xlink:href="#f3_9" transform="matrix(10.9,0,0,10.9,373.6,646.1)" />
<use xlink:href="#f3_s" transform="matrix(10.9,0,0,10.9,383.8,646.1)" />
<use xlink:href="#f3_2" transform="matrix(10.9,0,0,10.9,391.7,646.1)" />
<use xlink:href="#f3_1v" transform="matrix(10.9,0,0,10.9,399.7,646.1)" />
<use xlink:href="#f3_2" transform="matrix(10.9,0,0,10.9,407.4,646.1)" />
<use xlink:href="#f3_1w" transform="matrix(10.9,0,0,10.9,112.9,693.2)" />
<use xlink:href="#f3_d" transform="matrix(10.9,0,0,10.9,128.2,693.2)" />
<use xlink:href="#f3_5" transform="matrix(10.9,0,0,10.9,135.6,693.2)" />
<use xlink:href="#f3_3" transform="matrix(10.9,0,0,10.9,149.7,693.2)" />
<use xlink:href="#f3_x" transform="matrix(10.9,0,0,10.9,167.9,693.2)" />
<use xlink:href="#f3_14" transform="matrix(10.9,0,0,10.9,182.5,693.2)" />
<use xlink:href="#f3_5" transform="matrix(10.9,0,0,10.9,190.9,693.2)" />
<use xlink:href="#f3_22" transform="matrix(10.9,0,0,10.9,199.5,693.2)" />
<use xlink:href="#f3_w" transform="matrix(10.9,0,0,10.9,203.5,693.2)" />
<use xlink:href="#f3_d" transform="matrix(10.9,0,0,10.9,207.4,693.2)" />
<use xlink:href="#f3_a" transform="matrix(10.9,0,0,10.9,223.3,693.2)" />
<use xlink:href="#f3_23" transform="matrix(10.9,0,0,10.9,235.3,693.2)" />
<use xlink:href="#f3_2" transform="matrix(10.9,0,0,10.9,239.7,693.2)" />
<use xlink:href="#f3_10" transform="matrix(10.9,0,0,10.9,247.8,693.2)" />
<use xlink:href="#f3_n" transform="matrix(10.9,0,0,10.9,256.4,693.2)" />
<use xlink:href="#f3_14" transform="matrix(10.9,0,0,10.9,264.7,693.2)" />
<use xlink:href="#f3_9" transform="matrix(10.9,0,0,10.9,273,693.2)" />
<use xlink:href="#f3_1" transform="matrix(10.9,0,0,10.9,283.2,693.2)" />
<use xlink:href="#f3_1j" transform="matrix(10.9,0,0,10.9,294.3,693.2)" />
<use xlink:href="#f3_16" transform="matrix(10.9,0,0,10.9,303.6,693.2)" />
<use xlink:href="#f3_1b" transform="matrix(10.9,0,0,10.9,312.8,693.2)" />
<use xlink:href="#f3_z" transform="matrix(10.9,0,0,10.9,317.5,693.2)" />
<use xlink:href="#f3_c" transform="matrix(10.9,0,0,10.9,329.3,693.2)" />
<use xlink:href="#f3_1o" transform="matrix(10.9,0,0,10.9,339.2,693.2)" />
<use xlink:href="#f3_9" transform="matrix(10.9,0,0,10.9,350.6,693.2)" />
<use xlink:href="#f3_16" transform="matrix(10.9,0,0,10.9,360.8,693.2)" />
<use xlink:href="#f3_o" transform="matrix(10.9,0,0,10.9,371.4,693.2)" />
<use xlink:href="#f3_16" transform="matrix(10.9,0,0,10.9,383.2,693.2)" />
<use xlink:href="#f3_9" transform="matrix(10.9,0,0,10.9,392.5,693.2)" />
<use xlink:href="#f3_o" transform="matrix(10.9,0,0,10.9,402.7,693.2)" />
<use xlink:href="#f3_1o" transform="matrix(10.9,0,0,10.9,414.5,693.2)" />
<use xlink:href="#f3_x" transform="matrix(10.9,0,0,10.9,425.8,693.2)" />
<use xlink:href="#f3_v" transform="matrix(10.9,0,0,10.9,440.4,693.2)" />
<use xlink:href="#f3_9" transform="matrix(10.9,0,0,10.9,449.4,693.2)" />
<use xlink:href="#f3_s" transform="matrix(10.9,0,0,10.9,459.6,693.2)" />
<use xlink:href="#f3_2" transform="matrix(10.9,0,0,10.9,467.5,693.2)" />
<use xlink:href="#f3_1v" transform="matrix(10.9,0,0,10.9,475.5,693.2)" />
<use xlink:href="#f3_2" transform="matrix(10.9,0,0,10.9,483.2,693.2)" />
<use xlink:href="#f3_1j" transform="matrix(10.9,0,0,10.9,491.2,693.2)" />
<use xlink:href="#f3_7" transform="matrix(10.9,0,0,10.9,500.4,693.2)" />
<use xlink:href="#f3_1i" transform="matrix(10.9,0,0,10.9,507.8,693.2)" />
<use xlink:href="#f3_22" transform="matrix(10.9,0,0,10.9,513.5,693.2)" />
<use xlink:href="#f3_17" transform="matrix(10.9,0,0,10.9,517.5,693.2)" />
<use xlink:href="#f3_1p" transform="matrix(10.9,0,0,10.9,526.1,693.2)" />
<use xlink:href="#f3_9" transform="matrix(10.9,0,0,10.9,532.2,693.2)" />
<use xlink:href="#f3_6" transform="matrix(10.9,0,0,10.9,542.3,693.2)" />
<use xlink:href="#f3_1j" transform="matrix(10.9,0,0,10.9,553,693.2)" />
<use xlink:href="#f3_1j" transform="matrix(10.9,0,0,10.9,562.2,693.2)" />
<use xlink:href="#f3_9" transform="matrix(10.9,0,0,10.9,571.5,693.2)" />
<use xlink:href="#f3_1h" transform="matrix(10.9,0,0,10.9,581.7,693.2)" />
<use xlink:href="#f3_d" transform="matrix(10.9,0,0,10.9,592.5,693.2)" />
<use xlink:href="#f3_2" transform="matrix(10.9,0,0,10.9,599.9,693.2)" />
<use xlink:href="#f3_7" transform="matrix(10.9,0,0,10.9,607.9,693.2)" />
<use xlink:href="#f3_1p" transform="matrix(10.9,0,0,10.9,615.3,693.2)" />
<use xlink:href="#f3_9" transform="matrix(10.9,0,0,10.9,621.3,693.2)" />
<use xlink:href="#f3_1" transform="matrix(10.9,0,0,10.9,631.5,693.2)" />
<use xlink:href="#f3_10" transform="matrix(10.9,0,0,10.9,642.6,693.2)" />
<use xlink:href="#f3_b" transform="matrix(10.9,0,0,10.9,651.2,693.2)" />
<use xlink:href="#f3_1i" transform="matrix(10.9,0,0,10.9,659.8,693.2)" />
<use xlink:href="#f3_14" transform="matrix(10.9,0,0,10.9,665.5,693.2)" />
<use xlink:href="#f3_22" transform="matrix(10.9,0,0,10.9,673.8,693.2)" />
<use xlink:href="#f3_b" transform="matrix(10.9,0,0,10.9,677.8,693.2)" />
<use xlink:href="#f3_a" transform="matrix(10.9,0,0,10.9,145.1,718.1)" />
<use xlink:href="#f3_2" transform="matrix(10.9,0,0,10.9,157.1,718.1)" />
<use xlink:href="#f3_1p" transform="matrix(10.9,0,0,10.9,165.1,718.1)" />
<use xlink:href="#f3_2" transform="matrix(10.9,0,0,10.9,171.1,718.1)" />
<use xlink:href="#f3_5" transform="matrix(10.9,0,0,10.9,179.2,718.1)" />
<use xlink:href="#f3_2" transform="matrix(10.9,0,0,10.9,187.8,718.1)" />
<use xlink:href="#f3_1k" transform="matrix(10.9,0,0,10.9,195.8,718.1)" />
<use xlink:href="#f3_d" transform="matrix(10.9,0,0,10.9,202.2,718.1)" />
<use xlink:href="#f3_x" transform="matrix(10.9,0,0,10.9,223.3,718.1)" />
<use xlink:href="#f3_1z" transform="matrix(10.9,0,0,10.9,237.9,718.1)" />
<use xlink:href="#f3_1j" transform="matrix(10.9,0,0,10.9,245.5,718.1)" />
<use xlink:href="#f3_1d" transform="matrix(10.9,0,0,10.9,254.8,718.1)" />
<use xlink:href="#f3_v" transform="matrix(10.9,0,0,10.9,267.1,718.1)" />
<use xlink:href="#f3_x" transform="matrix(10.9,0,0,10.9,281.6,718.1)" />
<use xlink:href="#f3_1j" transform="matrix(10.9,0,0,10.9,296.2,718.1)" />
<use xlink:href="#f3_1j" transform="matrix(10.9,0,0,10.9,305.5,718.1)" />
<use xlink:href="#f3_1d" transform="matrix(10.9,0,0,10.9,314.7,718.1)" />
<use xlink:href="#f3_v" transform="matrix(10.9,0,0,10.9,327,718.1)" />
<use xlink:href="#f3_9" transform="matrix(10.9,0,0,10.9,336,718.1)" />
<use xlink:href="#f3_16" transform="matrix(10.9,0,0,10.9,346.2,718.1)" />
<use xlink:href="#f3_14" transform="matrix(10.9,0,0,10.9,356.4,718.1)" />
<use xlink:href="#f3_1k" transform="matrix(10.9,0,0,10.9,364.8,718.1)" />
<use xlink:href="#f3_1p" transform="matrix(10.9,0,0,10.9,371.1,718.1)" />
<use xlink:href="#f3_n" transform="matrix(10.9,0,0,10.9,377.2,718.1)" />
<use xlink:href="#f3_1i" transform="matrix(10.9,0,0,10.9,385.5,718.1)" />
<use xlink:href="#f3_d" transform="matrix(10.9,0,0,10.9,391.2,718.1)" />
<use xlink:href="#f3_1j" transform="matrix(10.9,0,0,10.9,398.6,718.1)" />
<use xlink:href="#f3_1d" transform="matrix(10.9,0,0,10.9,407.9,718.1)" />
<use xlink:href="#f3_v" transform="matrix(10.9,0,0,10.9,420.1,718.1)" />
<use xlink:href="#f3_9" transform="matrix(10.9,0,0,10.9,429.2,718.1)" />
<use xlink:href="#f3_13" transform="matrix(10.9,0,0,10.9,439.3,718.1)" />
<use xlink:href="#f3_1i" transform="matrix(10.9,0,0,10.9,451.6,718.1)" />
<use xlink:href="#f3_2" transform="matrix(10.9,0,0,10.9,457.3,718.1)" />
<use xlink:href="#f3_7" transform="matrix(10.9,0,0,10.9,465.3,718.1)" />
<use xlink:href="#f3_w" transform="matrix(10.9,0,0,10.9,472.7,718.1)" />
<use xlink:href="#f3_d" transform="matrix(10.9,0,0,10.9,476.7,718.1)" />
<use xlink:href="#f3_9" transform="matrix(10.9,0,0,10.9,484.1,718.1)" />
<use xlink:href="#f3_x" transform="matrix(10.9,0,0,10.9,494.3,718.1)" />
<use xlink:href="#f3_14" transform="matrix(10.9,0,0,10.9,508.9,718.1)" />
<use xlink:href="#f3_10" transform="matrix(10.9,0,0,10.9,517.2,718.1)" />
<use xlink:href="#f3_n" transform="matrix(10.9,0,0,10.9,525.8,718.1)" />
<use xlink:href="#f3_14" transform="matrix(10.9,0,0,10.9,534.1,718.1)" />
<use xlink:href="#f3_a" transform="matrix(10.9,0,0,10.9,542.5,718.1)" />
<use xlink:href="#f3_4" transform="matrix(10.9,0,0,10.9,554.5,718.1)" />
<use xlink:href="#f3_r" transform="matrix(10.9,0,0,10.9,183,742.9)" />
<use xlink:href="#f3_a" transform="matrix(10.9,0,0,10.9,187.6,742.9)" />
<use xlink:href="#f3_c" transform="matrix(10.9,0,0,10.9,199.6,742.9)" />
<use xlink:href="#f3_16" transform="matrix(10.9,0,0,10.9,223.3,742.9)" />
<use xlink:href="#f3_1z" transform="matrix(10.9,0,0,10.9,233.9,742.9)" />
<use xlink:href="#f3_6" transform="matrix(10.9,0,0,10.9,241.6,742.9)" />
<use xlink:href="#f3_p" transform="matrix(10.9,0,0,10.9,252.3,742.9)" />
<use xlink:href="#f3_2" transform="matrix(10.9,0,0,10.9,260.9,742.9)" />
<use xlink:href="#f3_1i" transform="matrix(10.9,0,0,10.9,268.4,742.9)" />
<use xlink:href="#f3_y" transform="matrix(10.9,0,0,10.9,274.1,742.9)" />
<use xlink:href="#f3_9" transform="matrix(10.9,0,0,10.9,287.3,742.9)" />
<use xlink:href="#f3_c" transform="matrix(10.9,0,0,10.9,297.5,742.9)" />
<use xlink:href="#f3_7" transform="matrix(10.9,0,0,10.9,307.5,742.9)" />
<use xlink:href="#f3_w" transform="matrix(10.9,0,0,10.9,314.9,742.9)" />
<use xlink:href="#f3_22" transform="matrix(10.9,0,0,10.9,318.9,742.9)" />
<use xlink:href="#f3_17" transform="matrix(10.9,0,0,10.9,322.8,742.9)" />
<use xlink:href="#f3_1k" transform="matrix(10.9,0,0,10.9,331.5,742.9)" />
<use xlink:href="#f3_d" transform="matrix(10.9,0,0,10.9,337.8,742.9)" />
<use xlink:href="#f3_9" transform="matrix(10.9,0,0,10.9,345.3,742.9)" />
<use xlink:href="#f3_x" transform="matrix(10.9,0,0,10.9,355.5,742.9)" />
<use xlink:href="#f3_22" transform="matrix(10.9,0,0,10.9,370,742.9)" />
<use xlink:href="#f3_7" transform="matrix(10.9,0,0,10.9,374,742.9)" />
<use xlink:href="#f3_1i" transform="matrix(10.9,0,0,10.9,381.4,742.9)" />
<use xlink:href="#f3_14" transform="matrix(10.9,0,0,10.9,387.1,742.9)" />
<use xlink:href="#f3_1k" transform="matrix(10.9,0,0,10.9,395.4,742.9)" />
<use xlink:href="#f3_14" transform="matrix(10.9,0,0,10.9,401.8,742.9)" />
<use xlink:href="#f3_h" transform="matrix(10.9,0,0,10.9,410.2,742.9)" />
<use xlink:href="#f3_1p" transform="matrix(10.9,0,0,10.9,415.3,742.9)" />
<use xlink:href="#f3_1u" transform="matrix(10.9,0,0,10.9,426.8,742.9)" />
<use xlink:href="#f3_22" transform="matrix(10.9,0,0,10.9,437.9,742.9)" />
<use xlink:href="#f3_1k" transform="matrix(10.9,0,0,10.9,441.9,742.9)" />
<use xlink:href="#f3_1t" transform="matrix(10.9,0,0,10.9,448.3,742.9)" />
<use xlink:href="#f3_2" transform="matrix(10.9,0,0,10.9,456.9,742.9)" />
<use xlink:href="#f3_w" transform="matrix(10.9,0,0,10.9,464.9,742.9)" />
<use xlink:href="#f3_1j" transform="matrix(10.9,0,0,10.9,474.5,742.9)" />
<use xlink:href="#f3_1p" transform="matrix(10.9,0,0,10.9,483.7,742.9)" />
<use xlink:href="#f3_1t" transform="matrix(10.9,0,0,10.9,489.7,742.9)" />
<use xlink:href="#f3_b" transform="matrix(10.9,0,0,10.9,498.4,742.9)" />
<use xlink:href="#f3_22" transform="matrix(10.9,0,0,10.9,507,742.9)" />
<use xlink:href="#f3_14" transform="matrix(10.9,0,0,10.9,511,742.9)" />
<use xlink:href="#f3_9" transform="matrix(10.9,0,0,10.9,519.3,742.9)" />
<use xlink:href="#f3_1d" transform="matrix(10.9,0,0,10.9,529.5,742.9)" />
<use xlink:href="#f3_1p" transform="matrix(10.9,0,0,10.9,541.7,742.9)" />
<use xlink:href="#f3_6" transform="matrix(10.9,0,0,10.9,553.3,742.9)" />
<use xlink:href="#f3_1i" transform="matrix(10.9,0,0,10.9,564,742.9)" />
<use xlink:href="#f3_d" transform="matrix(10.9,0,0,10.9,569.7,742.9)" />
<use xlink:href="#f3_2" transform="matrix(10.9,0,0,10.9,577.1,742.9)" />
<use xlink:href="#f3_1p" transform="matrix(10.9,0,0,10.9,585.1,742.9)" />
<use xlink:href="#f3_14" transform="matrix(10.9,0,0,10.9,591.1,742.9)" />
<use xlink:href="#f3_1i" transform="matrix(10.9,0,0,10.9,599,742.9)" />
<use xlink:href="#f3_13" transform="matrix(10.9,0,0,10.9,188,767.8)" />
<use xlink:href="#f3_1j" transform="matrix(10.9,0,0,10.9,200.3,767.8)" />
<use xlink:href="#f3_v" transform="matrix(10.9,0,0,10.9,223.3,767.8)" />
<use xlink:href="#f3_22" transform="matrix(10.9,0,0,10.9,232.3,767.8)" />
<use xlink:href="#f3_10" transform="matrix(10.9,0,0,10.9,236.3,767.8)" />
<use xlink:href="#f3_1t" transform="matrix(10.9,0,0,10.9,244.9,767.8)" />
<use xlink:href="#f3_1y" transform="matrix(10.9,0,0,10.9,253.5,767.8)" />
<use xlink:href="#f3_18" transform="matrix(10.9,0,0,10.9,266.7,767.8)" />
<use xlink:href="#f3_1s" transform="matrix(10.9,0,0,10.9,273.2,767.8)" />
<use xlink:href="#f3_5" transform="matrix(10.9,0,0,10.9,284.7,767.8)" />
<use xlink:href="#f3_1t" transform="matrix(10.9,0,0,10.9,293.3,767.8)" />
<use xlink:href="#f3_10" transform="matrix(10.9,0,0,10.9,301.9,767.8)" />
<use xlink:href="#f3_1p" transform="matrix(10.9,0,0,10.9,310.5,767.8)" />
<use xlink:href="#f3_1t" transform="matrix(10.9,0,0,10.9,316.5,767.8)" />
<use xlink:href="#f3_9" transform="matrix(10.9,0,0,10.9,325.1,767.8)" />
<use xlink:href="#f3_6" transform="matrix(10.9,0,0,10.9,335.3,767.8)" />
<use xlink:href="#f3_d" transform="matrix(10.9,0,0,10.9,346,767.8)" />
<use xlink:href="#f3_10" transform="matrix(10.9,0,0,10.9,353.4,767.8)" />
<use xlink:href="#f3_1p" transform="matrix(10.9,0,0,10.9,362,767.8)" />
<use xlink:href="#f3_13" transform="matrix(10.9,0,0,10.9,368,767.8)" />
<use xlink:href="#f3_1j" transform="matrix(10.9,0,0,10.9,380.3,767.8)" />
<use xlink:href="#f3_19" transform="matrix(10.9,0,0,10.9,389.5,767.8)" />
<use xlink:href="#f3_9" transform="matrix(10.9,0,0,10.9,396,767.8)" />
<use xlink:href="#f3_x" transform="matrix(10.9,0,0,10.9,406.2,767.8)" />
<use xlink:href="#f3_22" transform="matrix(10.9,0,0,10.9,420.8,767.8)" />
<use xlink:href="#f3_7" transform="matrix(10.9,0,0,10.9,424.8,767.8)" />
<use xlink:href="#f3_1i" transform="matrix(10.9,0,0,10.9,432.2,767.8)" />
<use xlink:href="#f3_14" transform="matrix(10.9,0,0,10.9,437.9,767.8)" />
<use xlink:href="#f3_1k" transform="matrix(10.9,0,0,10.9,446.2,767.8)" />
<use xlink:href="#f3_14" transform="matrix(10.9,0,0,10.9,452.6,767.8)" />
<use xlink:href="#f3_h" transform="matrix(10.9,0,0,10.9,460.9,767.8)" />
<use xlink:href="#f3_1p" transform="matrix(10.9,0,0,10.9,466,767.8)" />
<use xlink:href="#f3_1w" transform="matrix(10.9,0,0,10.9,477.6,767.8)" />
<use xlink:href="#f3_22" transform="matrix(10.9,0,0,10.9,493.3,767.8)" />
<use xlink:href="#f3_10" transform="matrix(10.9,0,0,10.9,497.3,767.8)" />
<use xlink:href="#f3_b" transform="matrix(10.9,0,0,10.9,505.9,767.8)" />
<use xlink:href="#f3_14" transform="matrix(10.9,0,0,10.9,514.5,767.8)" />
<use xlink:href="#f3_1x" transform="matrix(10.9,0,0,10.9,522.4,767.8)" />
<use xlink:href="#f3_1k" transform="matrix(10.9,0,0,10.9,533.8,767.8)" />
</g>
<path d="M113.7,806.6h95.9v-7H113.7v7Z" class="g0_3" />
<g fill="#3873B3" >
<use xlink:href="#f0_f" transform="matrix(14.3,0,0,14.3,223.3,809.3)" />
<use xlink:href="#f0_2" transform="matrix(14.3,0,0,14.3,234.9,809.3)" />
<use xlink:href="#f0_j" transform="matrix(14.3,0,0,14.3,245.1,809.3)" />
<use xlink:href="#f0_a" transform="matrix(14.3,0,0,14.3,256.1,809.3)" />
<use xlink:href="#f0_t" transform="matrix(14.3,0,0,14.3,266.9,809.3)" />
<use xlink:href="#f0_2" transform="matrix(14.3,0,0,14.3,277.9,809.3)" />
<use xlink:href="#f0_a" transform="matrix(14.3,0,0,14.3,288.2,809.3)" />
<use xlink:href="#f0_8" transform="matrix(14.3,0,0,14.3,298.9,809.3)" />
<use xlink:href="#f0_q" transform="matrix(14.3,0,0,14.3,308.4,809.3)" />
</g>
<g fill="#000000" >
<use xlink:href="#f2_t" transform="matrix(10.9,0,0,10.9,223.3,838.9)" />
<use xlink:href="#f2_b" transform="matrix(10.9,0,0,10.9,234.5,838.9)" />
<use xlink:href="#f2_12" transform="matrix(10.9,0,0,10.9,243,838.9)" />
<use xlink:href="#f2_14" transform="matrix(10.9,0,0,10.9,249.2,838.9)" />
<use xlink:href="#f2_1g" transform="matrix(10.9,0,0,10.9,256.2,838.9)" />
<use xlink:href="#f2_2" transform="matrix(10.9,0,0,10.9,260.5,838.9)" />
<use xlink:href="#f2_q" transform="matrix(10.9,0,0,10.9,269.2,838.9)" />
<use xlink:href="#f3_8" transform="matrix(10.9,0,0,10.9,278.6,838.9)" />
<use xlink:href="#f3_z" transform="matrix(10.9,0,0,10.9,290.6,838.9)" />
<use xlink:href="#f3_2" transform="matrix(10.9,0,0,10.9,302.4,838.9)" />
<use xlink:href="#f3_1p" transform="matrix(10.9,0,0,10.9,310.4,838.9)" />
<use xlink:href="#f3_22" transform="matrix(10.9,0,0,10.9,316.4,838.9)" />
<use xlink:href="#f3_1v" transform="matrix(10.9,0,0,10.9,320.4,838.9)" />
<use xlink:href="#f3_d" transform="matrix(10.9,0,0,10.9,328.1,838.9)" />
<use xlink:href="#f2_a" transform="matrix(10.9,0,0,10.9,223.3,863.8)" />
<use xlink:href="#f2_q" transform="matrix(10.9,0,0,10.9,234,863.8)" />
<use xlink:href="#f2_g" transform="matrix(10.9,0,0,10.9,243.3,863.8)" />
<use xlink:href="#f2_n" transform="matrix(10.9,0,0,10.9,252.5,863.8)" />
<use xlink:href="#f2_1g" transform="matrix(10.9,0,0,10.9,256.7,863.8)" />
<use xlink:href="#f2_14" transform="matrix(10.9,0,0,10.9,261,863.8)" />
<use xlink:href="#f2_i" transform="matrix(10.9,0,0,10.9,268,863.8)" />
<use xlink:href="#f3_8" transform="matrix(10.9,0,0,10.9,277.4,863.8)" />
<use xlink:href="#f3_g" transform="matrix(10.9,0,0,10.9,289.4,863.8)" />
<use xlink:href="#f3_w" transform="matrix(10.9,0,0,10.9,298.9,863.8)" />
<use xlink:href="#f3_1t" transform="matrix(10.9,0,0,10.9,302.9,863.8)" />
<use xlink:href="#f3_d" transform="matrix(10.9,0,0,10.9,311.5,863.8)" />
<use xlink:href="#f3_10" transform="matrix(10.9,0,0,10.9,318.9,863.8)" />
<use xlink:href="#f3_1p" transform="matrix(10.9,0,0,10.9,327.5,863.8)" />
<use xlink:href="#f2_1" transform="matrix(10.9,0,0,10.9,222.7,888.6)" />
<use xlink:href="#f2_12" transform="matrix(10.9,0,0,10.9,234.9,888.6)" />
<use xlink:href="#f2_2" transform="matrix(10.9,0,0,10.9,241.1,888.6)" />
<use xlink:href="#f2_5" transform="matrix(10.9,0,0,10.9,249.8,888.6)" />
<use xlink:href="#f2_1g" transform="matrix(10.9,0,0,10.9,259.2,888.6)" />
<use xlink:href="#f2_7" transform="matrix(10.9,0,0,10.9,263.4,888.6)" />
<use xlink:href="#f3_8" transform="matrix(10.9,0,0,10.9,271.6,888.6)" />
<use xlink:href="#f3_4" transform="matrix(10.9,0,0,10.9,283.6,888.6)" />
<use xlink:href="#f3_2" transform="matrix(10.9,0,0,10.9,294.7,888.6)" />
<use xlink:href="#f3_1k" transform="matrix(10.9,0,0,10.9,302.7,888.6)" />
<use xlink:href="#f3_22" transform="matrix(10.9,0,0,10.9,309.2,888.6)" />
<use xlink:href="#f3_7" transform="matrix(10.9,0,0,10.9,313.1,888.6)" />
</g>
<path d="M113.7,927.5h95.9v-7.1H113.7v7.1Z" class="g0_3" />
<g fill="#3873B3" >
<use xlink:href="#f0_b" transform="matrix(14.3,0,0,14.3,223.3,930.1)" />
<use xlink:href="#f0_k" transform="matrix(14.3,0,0,14.3,238.3,930.1)" />
<use xlink:href="#f0_3" transform="matrix(14.3,0,0,14.3,249,930.1)" />
<use xlink:href="#f0_3" transform="matrix(14.3,0,0,14.3,260.1,930.1)" />
<use xlink:href="#f0_x" transform="matrix(14.3,0,0,14.3,271.1,930.1)" />
<use xlink:href="#f0_8" transform="matrix(14.3,0,0,14.3,276.1,930.1)" />
<use xlink:href="#f0_q" transform="matrix(14.3,0,0,14.3,285.6,930.1)" />
</g>
<g fill="#000000" >
<use xlink:href="#f3_q" transform="matrix(10.9,0,0,10.9,220.5,959.7)" />
<use xlink:href="#f3_16" transform="matrix(10.9,0,0,10.9,231.6,959.7)" />
<use xlink:href="#f3_1i" transform="matrix(10.9,0,0,10.9,242.2,959.7)" />
<use xlink:href="#f3_14" transform="matrix(10.9,0,0,10.9,247.9,959.7)" />
<use xlink:href="#f3_n" transform="matrix(10.9,0,0,10.9,256.3,959.7)" />
<use xlink:href="#f3_1i" transform="matrix(10.9,0,0,10.9,264.6,959.7)" />
<use xlink:href="#f3_2" transform="matrix(10.9,0,0,10.9,270.3,959.7)" />
<use xlink:href="#f3_y" transform="matrix(10.9,0,0,10.9,278.3,959.7)" />
<use xlink:href="#f3_y" transform="matrix(10.9,0,0,10.9,291.5,959.7)" />
<use xlink:href="#f3_22" transform="matrix(10.9,0,0,10.9,304.8,959.7)" />
<use xlink:href="#f3_10" transform="matrix(10.9,0,0,10.9,308.8,959.7)" />
<use xlink:href="#f3_n" transform="matrix(10.9,0,0,10.9,317.4,959.7)" />
<use xlink:href="#f3_q" transform="matrix(10.9,0,0,10.9,220.5,984.6)" />
<use xlink:href="#f3_16" transform="matrix(10.9,0,0,10.9,231.6,984.6)" />
<use xlink:href="#f3_22" transform="matrix(10.9,0,0,10.9,242.2,984.6)" />
<use xlink:href="#f3_10" transform="matrix(10.9,0,0,10.9,246.2,984.6)" />
<use xlink:href="#f3_n" transform="matrix(10.9,0,0,10.9,254.8,984.6)" />
<use xlink:href="#f3_q" transform="matrix(10.9,0,0,10.9,263.2,984.6)" />
<use xlink:href="#f3_16" transform="matrix(10.9,0,0,10.9,268.7,984.6)" />
<use xlink:href="#f3_14" transform="matrix(10.9,0,0,10.9,278.9,984.6)" />
<use xlink:href="#f3_10" transform="matrix(10.9,0,0,10.9,287.3,984.6)" />
<use xlink:href="#f3_n" transform="matrix(10.9,0,0,10.9,295.9,984.6)" />
<use xlink:href="#f3_q" transform="matrix(10.9,0,0,10.9,220.5,1009.5)" />
<use xlink:href="#f3_1j" transform="matrix(10.9,0,0,10.9,231.6,1009.5)" />
<use xlink:href="#f3_1x" transform="matrix(10.9,0,0,10.9,240.8,1009.5)" />
<use xlink:href="#f3_22" transform="matrix(10.9,0,0,10.9,252.2,1009.5)" />
<use xlink:href="#f3_y" transform="matrix(10.9,0,0,10.9,256.2,1009.5)" />
<use xlink:href="#f3_y" transform="matrix(10.9,0,0,10.9,269.5,1009.5)" />
<use xlink:href="#f3_22" transform="matrix(10.9,0,0,10.9,282.7,1009.5)" />
<use xlink:href="#f3_10" transform="matrix(10.9,0,0,10.9,286.7,1009.5)" />
<use xlink:href="#f3_n" transform="matrix(10.9,0,0,10.9,295.3,1009.5)" />
</g>
<g fill="#737373" >
<use xlink:href="#f4_1f" transform="matrix(10,0,0,10,772.9,1138.9)" />
<use xlink:href="#f4_1c" transform="matrix(10,0,0,10,780.5,1138.9)" />
<use xlink:href="#f4_1f" transform="matrix(10,0,0,10,788.2,1138.9)" />
</g>
<defs>
<path d="M411,-31C341,-31,206,-17,67,73L90,197C180,115,299,70,411,70c131,0,218,98,218,203c0,54,-22,103,-48,130c-49,51,-71,57,-201,89C283,516,231,530,156,607c-8,7,-73,77,-73,186c0,153,132,299,337,299c136,0,213,-41,275,-74L672,894c-55,49,-124,99,-253,99C284,993,200,903,200,810c0,-69,41,-107,61,-129c34,-32,72,-41,176,-67C539,588,596,573,666,498c34,-38,81,-111,81,-209C747,119,608,-31,411,-31Z" 
id="f0_p"
transform="scale(0.001,-0.001)" />

<path d="M532,426C506,588,400,610,353,610C263,610,191,529,165,426ZM374,-14C197,-14,50,142,50,344c0,198,138,357,303,357c44,0,151,-12,214,-117c49,-81,55,-175,55,-240H156C159,182,260,76,377,76c46,0,136,11,226,87c0,-6,5,-41,5,-41c0,0,5,-50,5,-56C529,5,445,-14,374,-14Z" 
id="f0_8"
transform="scale(0.001,-0.001)" />

<path d="M119,0V1060H232V0Z" 
id="f0_g"
transform="scale(0.001,-0.001)" />

<path d="M377,-14C194,-14,53,145,53,341c0,174,120,360,330,360c91,0,141,-12,230,-64L594,538c-65,44,-108,69,-211,69C231,607,170,468,170,341C170,193,252,79,379,79c85,0,163,29,234,86l3,-43c1,-6,6,-53,6,-58C538,3,452,-14,377,-14Z" 
id="f0_5"
transform="scale(0.001,-0.001)" />

<path d="M278,-14C173,-14,153,90,153,179V590H28v88H156V872H261V678H472V590H261V205c0,-54,9,-126,77,-126c27,0,84,7,137,54L498,44C451,20,380,-14,278,-14Z" 
id="f0_s"
transform="scale(0.001,-0.001)" />

<path d="M373,76c67,0,120,39,157,104V521c-33,50,-82,81,-142,81C299,602,170,541,170,338C170,148,280,76,373,76ZM312,-14C167,-14,53,142,53,339c0,199,120,355,265,355c65,0,145,-22,215,-80v446H646V0H530V78C454,3,368,-14,312,-14Z" 
id="f0_6"
transform="scale(0.001,-0.001)" />

<path d="M581,-16C449,-16,327,46,241,144C147,251,101,390,101,530c0,142,46,281,140,387c86,99,208,160,340,160c47,0,96,-3,143,-12c48,-9,93,-23,139,-41L840,897c-38,27,-79,50,-123,66c-45,13,-91,18,-136,18C483,981,394,927,333,849C263,759,231,645,231,530C231,416,263,303,333,212C394,134,483,79,581,79c52,0,103,4,152,19c51,17,95,47,136,78L878,69C834,41,788,15,736,0C686,-13,633,-16,581,-16Z" 
id="f0_4"
transform="scale(0.001,-0.001)" />

<path d="M374,79c103,0,211,84,211,272C585,530,478,610,373,610C277,610,162,536,162,351C162,171,264,79,374,79Zm-1,-93C199,-14,46,136,46,336c0,203,148,365,328,365C550,701,701,542,701,336C701,139,553,-14,373,-14Z" 
id="f0_k"
transform="scale(0.001,-0.001)" />

<path d="M278,-14C153,-14,118,60,118,170V678H234V176C234,108,244,69,351,69c100,0,181,56,181,172V678H648V0H535V76C442,-7,321,-14,278,-14Z" 
id="f0_t"
transform="scale(0.001,-0.001)" />

<path d="M119,0V686H225V552c41,59,122,140,261,142V591C348,590,232,489,232,335V0Z" 
id="f0_o"
transform="scale(0.001,-0.001)" />

<path d="M293,-14C153,-14,49,47,41,52L60,156C142,96,231,79,292,79c21,0,140,0,140,106c0,81,-88,99,-139,110c-90,18,-128,26,-183,73C87,390,50,435,50,503c0,198,213,198,248,198c35,0,118,-1,215,-47L495,555c-67,38,-131,56,-212,56c-20,0,-127,0,-127,-95c0,-76,78,-91,133,-102c93,-18,139,-27,195,-86c6,-7,54,-56,54,-134C538,104,490,-14,293,-14Z" 
id="f0_q"
transform="scale(0.001,-0.001)" />

<path d="M416,194c140,0,241,98,253,248C669,582,562,691,423,694C280,694,173,590,168,446C168,307,275,199,416,194Zm7,-99C225,95,81,238,67,452c0,193,150,342,349,347C616,799,768,643,768,452C768,249,625,101,423,95Z" 
id="f1_3"
transform="scale(0.001,-0.001)" />

<path d="M556,131c326,0,342,219,342,392c0,171,-13,406,-343,406H359V131ZM212,0C156,0,139,18,139,73V987c0,56,18,73,73,73H616c99,0,282,-18,397,-160c85,-109,105,-257,105,-377C1118,223,988,0,616,0Z" 
id="f2_8"
transform="scale(0.001,-0.001)" />

<path d="M367,93c4,0,149,0,149,142V368C474,367,261,356,261,206C261,148,303,93,367,93ZM283,-16C148,-16,63,96,63,203c0,225,400,228,453,228v53c0,90,-24,141,-107,141C315,625,238,591,173,523c-5,-5,-10,-10,-17,-10c-11,0,-18,8,-20,17c-2,12,-11,101,-11,112c0,16,8,21,40,35c102,43,179,49,251,49c76,0,308,-2,308,-243V73C724,20,709,0,651,0H594C532,0,521,24,521,73v31C449,-1,335,-16,283,-16Z" 
id="f2_2"
transform="scale(0.001,-0.001)" />

<path d="M295,-16C189,-16,134,49,134,203V590H104c-18,0,-73,0,-73,55c0,55,56,55,73,55h35V827c0,56,18,73,73,73h48c62,0,73,-25,73,-73V700H469c18,0,73,0,73,-55c0,-55,-55,-55,-73,-55H333V229c0,-101,23,-127,60,-127c64,0,105,34,122,46c9,9,11,11,18,11c14,0,17,-9,25,-40c9,-32,12,-43,12,-47C570,43,481,15,455,8C376,-16,309,-16,295,-16Z" 
id="f2_16"
transform="scale(0.001,-0.001)" />

<path d="M420,93c171,0,171,145,171,258c0,115,0,256,-154,256C367,607,321,571,301,553V153C318,131,356,93,420,93ZM474,-16c-25,0,-103,0,-173,76C299,0,254,0,228,0H167C110,0,93,18,93,73V987c0,56,19,73,74,73h56c63,0,73,-24,73,-73V631c14,15,91,86,216,86C799,717,799,426,799,353c0,-76,0,-369,-325,-369Z" 
id="f2_5"
transform="scale(0.001,-0.001)" />

<path d="M335,-16c-26,0,-89,0,-173,25C162,9,47,46,47,73c0,16,19,103,22,124c1,9,4,23,20,23c9,0,13,-5,21,-12C182,122,267,102,335,102c59,0,119,11,119,83c0,67,-78,81,-122,88c-88,17,-147,28,-201,77C90,387,57,432,57,507c0,219,204,219,273,219c40,0,89,-2,150,-19c17,-6,98,-27,98,-52c0,-7,-16,-93,-19,-105c-1,-6,-4,-20,-20,-20c-6,0,-9,0,-24,15c-40,34,-95,72,-197,72C258,617,208,605,208,542c0,-59,61,-71,145,-87c64,-12,118,-21,179,-76c27,-25,73,-78,73,-164C605,-10,413,-16,335,-16Z" 
id="f2_14"
transform="scale(0.001,-0.001)" />

<path d="M562,408C558,527,535,616,413,616C280,616,249,501,244,408ZM432,-16C193,-16,47,105,47,356c0,232,121,370,366,370C640,726,732,594,732,397c0,-69,-38,-70,-74,-70H243C248,229,266,93,438,93c49,0,141,11,231,89c17,15,20,15,26,15c14,0,15,-1,22,-49c1,-12,6,-56,6,-67C723,63,712,58,678,41C578,-8,490,-16,432,-16Z" 
id="f2_b"
transform="scale(0.001,-0.001)" />

<path d="M167,0C110,0,93,18,93,73V626c0,57,19,74,74,74h56c63,0,73,-25,73,-74V73C296,20,281,0,223,0ZM156,853c-66,0,-73,29,-73,73v29c0,53,15,73,73,73h78c62,0,73,-24,73,-73V926c0,-46,-9,-73,-73,-73Z" 
id="f2_1g"
transform="scale(0.001,-0.001)" />

<path d="M420,-204c49,0,223,0,223,103c0,55,-64,76,-188,76H278c-35,0,-82,0,-82,-72c0,-107,163,-107,224,-107ZM373,321c107,0,111,59,111,143c0,84,-4,143,-111,143C266,607,261,547,261,463c0,-84,5,-142,112,-142Zm46,-635c-72,0,-175,2,-262,42C61,-228,38,-149,38,-101C38,-4,118,23,141,32C108,73,99,124,99,153c0,7,0,67,42,124C83,327,66,403,66,464c0,253,243,253,307,253c65,0,145,-7,217,-54c58,35,134,54,182,54c27,0,27,-4,33,-40c3,-15,11,-52,11,-58c0,-11,-8,-20,-20,-20c-5,0,-15,3,-21,6c-63,17,-117,17,-142,17c13,-17,47,-70,47,-159C680,211,437,211,373,211c-32,0,-122,0,-194,40c-2,-10,-3,-13,-3,-23c0,-40,26,-63,32,-69c21,-18,43,-18,98,-18h73c206,0,422,0,422,-238C801,-314,509,-314,419,-314Z" 
id="f2_g"
transform="scale(0.001,-0.001)" />

<path d="M165,0C108,0,92,18,92,73V636c0,56,18,73,73,73h52c63,0,73,-25,73,-73V559h2c20,41,88,158,249,158c156,0,223,-63,223,-220V73C764,20,749,0,691,0H629C567,0,556,24,556,73V493c0,78,-15,114,-88,114C388,607,299,544,299,411V73C299,20,284,0,226,0Z" 
id="f2_q"
transform="scale(0.001,-0.001)" />

<path d="M214,0C157,0,141,18,141,73V987c0,56,18,73,73,73h78c62,0,73,-24,73,-73V73C365,20,350,0,292,0Z" 
id="f2_k"
transform="scale(0.001,-0.001)" />

<path d="M148,0V127H275V0Zm0,552V678H275V552Z" 
id="f3_8"
transform="scale(0.001,-0.001)" />

<path d="M76,0V98L266,287L383,396c91,91,178,178,178,308c0,119,-78,234,-222,234C200,938,157,819,127,701c-15,22,-31,42,-34,45c-3,4,-10,13,-29,39c37,132,122,251,297,251c201,0,325,-153,325,-329C686,578,603,497,535,428C506,400,428,336,399,309C351,264,235,150,186,107H353c18,0,37,1,55,1H686V0Z" 
id="f3_1r"
transform="scale(0.001,-0.001)" />

<path d="M382,60c49,0,130,24,170,163c27,96,27,193,27,293c0,95,0,197,-29,283C539,827,500,943,380,943C257,943,218,817,209,788C183,704,183,613,183,516c0,-119,2,-201,26,-288C240,118,303,60,382,60Zm-2,-93C293,-33,177,8,116,154C70,266,64,377,64,498c0,122,8,249,58,361c63,136,170,177,260,177c78,0,183,-37,246,-151C692,761,698,619,698,498C698,335,683,234,637,134C588,29,492,-33,380,-33Z" 
id="f3_21"
transform="scale(0.001,-0.001)" />

<path d="M116,-381c-17,0,-30,14,-30,31c0,0,0,7,7,27L614,1115c5,16,11,31,32,31c17,0,31,-14,31,-31c0,0,0,-7,-8,-27L148,-350c-4,-16,-10,-31,-32,-31Z" 
id="f3_1n"
transform="scale(0.001,-0.001)" />

<path d="M212,0C156,0,139,18,139,73V982c0,57,18,74,73,74H788c63,0,74,-25,74,-74V970c0,-73,-35,-73,-87,-73l-346,4H364V600H718c54,0,73,-15,73,-71c0,-61,-26,-72,-73,-72H364V73C364,20,348,0,290,0Z" 
id="f2_c"
transform="scale(0.001,-0.001)" />

<path d="M420,102c164,0,164,139,164,260c0,119,0,254,-165,254C255,616,255,480,255,362c0,-122,0,-260,165,-260ZM419,-16C179,-16,47,95,47,344c0,246,118,382,373,382C669,726,791,594,791,344C791,93,658,-16,419,-16Z" 
id="f2_s"
transform="scale(0.001,-0.001)" />

<path d="M167,0C110,0,93,18,93,73V636c0,56,19,73,74,73h48c63,0,74,-25,74,-73V536h1c72,165,184,181,226,181c28,0,28,-11,28,-42V603c0,-39,-3,-39,-31,-41C417,556,296,497,296,351V73C296,20,281,0,223,0Z" 
id="f2_12"
transform="scale(0.001,-0.001)" />

<path d="M165,0C108,0,92,18,92,73V636c0,56,18,73,73,73h52c63,0,73,-25,73,-73V559h2c11,23,41,72,88,107c69,51,133,51,162,51c65,0,194,-5,219,-152c55,101,139,152,247,152c156,0,223,-63,223,-220V73C1231,20,1216,0,1158,0h-61c-57,0,-73,18,-73,73V493c0,81,-17,114,-91,114C859,607,765,548,765,411V73C765,20,750,0,692,0H631C574,0,558,18,558,73V493c0,81,-17,114,-90,114C393,607,299,548,299,411V73C299,20,284,0,226,0Z" 
id="f2_p"
transform="scale(0.001,-0.001)" />

<path d="M167,0C110,0,93,18,93,73V987c0,56,19,73,74,73h56c63,0,73,-24,73,-73V73C296,20,281,0,223,0Z" 
id="f2_n"
transform="scale(0.001,-0.001)" />

<path d="M212,0C156,0,139,18,139,73V987c0,56,18,73,73,73H339c28,0,77,0,103,-62L637,515C669,434,732,283,746,228h1c12,53,69,194,101,272l202,495c26,62,64,65,102,65h128c63,0,74,-24,74,-73V73C1354,20,1338,0,1280,0h-41c-63,0,-73,24,-73,73V863h-2C1153,823,1071,616,1056,579L860,99C833,34,796,34,744,34c-52,0,-89,0,-116,65L451,535C414,625,345,794,328,863h-1V73C327,20,312,0,254,0Z" 
id="f2_o"
transform="scale(0.001,-0.001)" />

<path d="M165,0C108,0,92,18,92,73V987c0,56,18,73,73,73h57c62,0,73,-24,73,-73V568h1c22,43,92,149,245,149c156,0,223,-63,223,-220V73C764,20,749,0,691,0H629C567,0,556,24,556,73V493c0,78,-15,114,-88,114C388,607,299,544,299,411V73C299,20,284,0,226,0Z" 
id="f2_i"
transform="scale(0.001,-0.001)" />

<path d="M419,93c18,0,53,3,91,28c45,30,45,44,45,70V559c-34,32,-75,48,-120,48C264,607,264,463,264,348C264,234,264,93,419,93ZM359,-16C57,-16,57,278,57,348c0,75,0,369,310,369c47,0,123,-11,192,-77V987c0,53,15,73,74,73h56c63,0,73,-24,73,-73V73C762,20,747,0,689,0H628C576,0,555,15,555,72C489,2,423,-16,359,-16Z" 
id="f2_9"
transform="scale(0.001,-0.001)" />

<path d="M466,-33c-40,0,-122,3,-225,35C234,5,75,60,75,92c0,4,0,7,3,20l23,132c4,23,12,28,21,28c6,0,9,0,28,-18C226,185,338,133,466,133c50,0,182,5,182,148c0,58,-32,90,-48,106c-33,30,-67,38,-152,58C328,472,257,487,179,567C150,597,93,668,93,776c0,286,237,318,373,318c78,0,168,-8,277,-61c38,-20,39,-22,39,-34c0,-4,0,-7,-3,-20L756,846c-4,-23,-12,-27,-21,-27c-6,0,-8,1,-32,24c-75,74,-151,94,-237,94C414,937,284,933,284,804c0,-87,95,-123,129,-130L559,640C712,605,839,477,839,306C839,69,695,-33,466,-33Z" 
id="f2_13"
transform="scale(0.001,-0.001)" />

<path d="M205,0C148,0,131,18,131,73V590c-33,0,-85,0,-85,55c0,55,53,55,85,55V822c0,229,184,255,298,255c23,0,55,0,100,-9c52,-11,53,-12,53,-49V949c0,-25,0,-40,-20,-40c-7,0,-12,3,-23,15c-30,29,-61,43,-110,43c-99,0,-99,-61,-99,-101V700h78c18,0,73,0,73,-55c0,-55,-55,-55,-73,-55H335V73C335,20,319,0,261,0Z" 
id="f2_d"
transform="scale(0.001,-0.001)" />

<path d="M296,0C258,0,218,0,199,70L37,657c4,43,36,43,65,43h31c63,0,79,-17,95,-69L350,199c53,178,121,443,134,466c22,35,57,35,80,35c70,0,81,-35,90,-69L784,173L908,616c21,79,39,84,111,84c47,0,75,0,79,-43L935,70C920,18,904,0,839,0H735C658,0,651,29,634,84c-20,72,-87,313,-96,400l-2,-1C530,403,475,211,440,84C423,23,411,0,339,0Z" 
id="f2_1c"
transform="scale(0.001,-0.001)" />

<path d="M325,0C298,0,251,0,229,64L47,628c-7,21,-7,24,-7,29c0,43,38,43,61,43h37c73,0,84,-34,94,-66L383,173L535,634c13,43,30,66,94,66h33c22,0,61,0,61,-43c0,-5,0,-8,-8,-29L533,64C512,0,464,0,437,0Z" 
id="f2_1a"
transform="scale(0.001,-0.001)" />

<path d="M419,93c172,0,172,196,172,257c0,67,-1,247,-157,247C368,597,318,562,301,547V180c0,-27,0,-35,37,-61c18,-14,45,-26,81,-26ZM167,-295c-57,0,-74,18,-74,73V626c0,57,19,74,74,74h56c52,0,73,-16,73,-72c55,52,136,89,227,89C799,717,799,428,799,353c0,-76,0,-369,-324,-369c-21,0,-105,0,-174,76V-222c0,-54,-15,-73,-73,-73Z" 
id="f2_u"
transform="scale(0.001,-0.001)" />

<path d="M607,89c287,0,287,322,287,458c0,137,0,428,-289,428C318,975,318,681,318,547C318,408,318,89,607,89ZM605,-33C193,-33,93,237,93,523c0,279,90,571,514,571c400,0,511,-264,511,-571C1118,209,999,-33,605,-33Z" 
id="f2_r"
transform="scale(0.001,-0.001)" />

<path d="M189,-312c-24,0,-106,3,-120,21c-5,6,-14,112,-14,124c0,18,12,23,20,23c4,0,8,-2,15,-6c17,-11,52,-32,103,-32c82,0,108,68,126,119c5,15,9,32,22,63L52,636c-3,7,-8,18,-8,24c0,40,39,40,60,40h40c76,0,87,-23,129,-119C339,434,402,292,409,217h2c8,102,131,440,136,448c23,35,56,35,81,35h34c19,0,61,0,61,-42c0,-7,0,-10,-8,-30L466,-95C454,-132,379,-312,189,-312Z" 
id="f2_1e"
transform="scale(0.001,-0.001)" />

<path d="M145,0V89H336V883C260,851,186,848,136,846v89c73,3,200,8,290,101h31V89H648V0Z" 
id="f3_15"
transform="scale(0.001,-0.001)" />

<path d="M371,390c121,0,196,113,196,238c0,11,0,26,-2,37c-3,74,-29,282,-178,282C307,947,264,904,234,860C191,793,189,730,189,663c0,-66,2,-122,36,-182c32,-56,74,-91,146,-91ZM313,-33C218,-33,162,-1,110,37l47,81C212,72,263,60,315,60c120,0,238,117,255,363C504,341,406,296,312,296C165,296,64,468,64,663c0,66,3,167,99,270c54,57,117,103,224,103c129,0,311,-96,311,-524C698,179,513,-33,313,-33Z" 
id="f3_11"
transform="scale(0.001,-0.001)" />

<path d="M148,0V127H275V0Z" 
id="f3_1b"
transform="scale(0.001,-0.001)" />

<path d="M148,-190L186,0H148V127H275V2L211,-190Z" 
id="f3_9"
transform="scale(0.001,-0.001)" />

<path d="M212,0C156,0,139,18,139,73V987c0,56,18,73,73,73h78c63,0,74,-24,74,-73V154l380,6c70,0,72,-38,72,-73V73C816,20,801,0,743,0Z" 
id="f2_m"
transform="scale(0.001,-0.001)" />

<path d="M212,0C156,0,139,18,139,73V982c0,57,18,74,73,74H813c62,0,73,-25,73,-74V970c0,-73,-35,-73,-88,-73l-360,4H364V619H765c54,0,74,-16,74,-72c0,-61,-26,-72,-74,-72H364V162l223,3l236,3c51,0,86,0,86,-73V73C909,20,894,0,836,0Z" 
id="f2_a"
transform="scale(0.001,-0.001)" />

<path d="M457,354V935C455,848,241,486,162,354ZM448,0V261H43v93l386,648H568V354H720V261H568V0Z" 
id="f3_l"
transform="scale(0.001,-0.001)" />

<path d="M351,-33C228,-33,122,29,60,116l50,86C154,119,248,60,350,60c14,0,200,0,200,253c0,184,-82,246,-154,246C307,559,251,500,225,438H124v564H636V904H234V590c44,39,102,62,163,62C555,652,686,501,686,310C686,118,533,-33,351,-33Z" 
id="f3_k"
transform="scale(0.001,-0.001)" />

<path d="M382,60c98,0,192,68,192,217C574,434,469,495,380,495C298,495,188,437,188,277C188,133,277,60,382,60Zm0,528c110,0,188,70,188,180c0,100,-69,179,-190,179C267,947,193,874,193,768C193,663,264,588,382,588ZM380,-33C205,-33,64,108,64,275c0,133,99,229,209,267C138,587,86,688,86,768c0,141,125,268,296,268c165,0,295,-124,295,-268C677,688,625,587,489,542C591,507,698,414,698,275C698,113,562,-33,380,-33Z" 
id="f3_e"
transform="scale(0.001,-0.001)" />

<path d="M521,0C464,0,448,18,448,73V897L141,892c-43,0,-80,0,-80,74v12c0,56,18,73,73,73H984c63,0,73,-24,73,-73V966c0,-74,-36,-74,-79,-74l-306,5V73C672,20,657,0,599,0Z" 
id="f2_15"
transform="scale(0.001,-0.001)" />

<path d="M419,-16C188,-16,57,98,57,351c0,268,142,375,369,375c107,0,153,-16,226,-49c26,-12,37,-19,37,-32c0,-8,-15,-93,-18,-106c-2,-6,-5,-20,-20,-20c-6,0,-9,0,-28,17c-55,46,-96,71,-195,71C272,607,264,478,264,354c0,-97,0,-252,159,-252c125,0,197,63,223,86c16,15,19,15,25,15c15,0,18,-15,18,-20c3,-20,9,-90,9,-107C698,61,697,60,654,37C552,-14,460,-16,419,-16Z" 
id="f2_7"
transform="scale(0.001,-0.001)" />

<path d="M382,119c14,0,95,2,180,37C506,214,419,303,356,413C336,402,278,370,278,266c0,-22,6,-147,104,-147Zm73,503c69,47,152,125,152,221c0,60,-25,141,-83,141C483,984,414,947,414,834c0,-40,3,-107,41,-212ZM377,-33C202,-33,70,81,70,225c0,88,52,151,77,174c24,21,114,84,157,113c-26,59,-64,171,-64,287c0,182,142,295,284,295c151,0,257,-122,257,-249C781,743,688,649,506,519C570,405,704,266,720,252c73,58,180,183,241,379c9,32,11,40,26,40c11,0,95,-25,111,-29c10,-3,22,-6,22,-22c0,-12,-75,-282,-277,-464c58,-32,106,-37,139,-37c20,0,84,2,158,31c9,4,10,6,15,6c20,0,20,-15,20,-44V38c0,-30,0,-38,-14,-42c-4,-3,-81,-29,-180,-29C860,-33,772,9,698,50C692,47,555,-33,377,-33Z" 
id="f2_3"
transform="scale(0.001,-0.001)" />

<path d="M671,0C608,0,597,24,597,73V626c0,54,16,74,74,74h56c63,0,74,-25,74,-74V73C801,20,785,0,727,0Zm-3,854c-63,0,-74,24,-74,73v61c0,54,16,74,74,74h61c62,0,73,-25,73,-74V927c0,-53,-15,-73,-73,-73ZM205,0C148,0,131,18,131,73V590c-33,0,-85,0,-85,55c0,55,53,55,85,55V825c0,168,87,252,246,252c23,0,42,0,80,-11c38,-9,38,-12,38,-47V941c0,-24,0,-41,-20,-41c-11,0,-15,9,-18,15c-9,18,-25,52,-77,52c-47,0,-50,-50,-50,-93V700h92c18,0,73,0,73,-55c0,-55,-55,-55,-73,-55H335V73C335,20,319,0,261,0Z" 
id="f2_e"
transform="scale(0.001,-0.001)" />

<path d="M545,530c205,0,222,98,222,200c0,107,-20,199,-220,199H359V530ZM212,0C156,0,139,18,139,73V987c0,56,18,73,73,73H594c236,0,385,-99,385,-330C979,510,836,409,596,409H364V73C364,20,348,0,290,0Z" 
id="f2_t"
transform="scale(0.001,-0.001)" />

<path d="M652,-16C500,-16,342,14,234,121C127,226,93,380,93,530c0,151,34,306,141,411c108,106,266,138,418,138c51,0,103,-3,155,-13c50,-9,101,-24,149,-42c7,-3,13,-10,13,-22L940,839c-2,-8,-10,-16,-20,-16c-5,0,-9,2,-12,5c-36,32,-74,58,-118,75c-44,17,-92,23,-138,23C558,926,463,900,402,828C333,747,318,637,318,530c0,-107,15,-217,84,-298c61,-70,156,-96,250,-96c52,0,106,2,156,18c51,17,95,48,136,80c5,1,8,3,12,3c10,0,19,-8,19,-17L987,89c0,-10,-5,-16,-9,-19C927,41,877,15,822,0C767,-14,709,-16,652,-16Z" 
id="f2_6"
transform="scale(0.001,-0.001)" />

<path d="M339,-16C180,-16,92,29,92,193V626c0,57,18,74,73,74h61c63,0,73,-25,73,-74V179C299,98,309,76,394,76c109,0,162,87,162,188V626c0,54,15,74,73,74h62c62,0,73,-25,73,-74V73C764,20,749,0,691,0H634C571,0,561,24,561,73v40C489,-16,380,-16,339,-16Z" 
id="f2_18"
transform="scale(0.001,-0.001)" />

<path d="M377,-33C316,-33,176,-17,64,125l17,92C148,113,269,60,374,60c118,0,188,97,188,217c0,76,-33,218,-198,218H255v93c109,9,112,9,121,11c93,21,156,111,156,205c0,97,-75,143,-155,143C284,947,185,892,141,785L86,868c64,107,175,168,293,168c151,0,278,-101,278,-232C657,707,603,603,487,541C591,509,698,414,698,275C698,115,564,-33,377,-33Z" 
id="f3_1q"
transform="scale(0.001,-0.001)" />

<path d="M138,0V1060H269V597H778v463H909V0H778V506H269V0Z" 
id="f0_b"
transform="scale(0.001,-0.001)" />

<path d="M118,0V686H226V582c58,73,132,112,217,112C628,694,648,553,648,460V0H532V449c0,54,-5,153,-147,153C269,602,234,475,234,380V0Z" 
id="f0_j"
transform="scale(0.001,-0.001)" />

<path d="M330,76c23,0,75,5,116,31c51,31,51,67,51,98v99C403,304,191,281,191,177C191,121,248,76,330,76ZM252,-14C122,-14,83,108,83,176c0,76,59,133,161,168c92,30,184,35,253,38v63c0,111,-62,168,-132,168C277,613,206,585,139,536l-9,101c75,43,143,64,235,64C507,701,613,594,613,448V0H500V57C443,9,336,-14,252,-14Z" 
id="f0_2"
transform="scale(0.001,-0.001)" />

<path d="M665,396L481,950L299,396ZM41,0L426,1060H561L946,0H810L697,310H266L154,0Z" 
id="f0_1"
transform="scale(0.001,-0.001)" />

<path d="M226,0L21,678H138L246,301C275,199,292,118,293,89h2c4,64,41,195,69,290l87,299H556L657,333C689,225,713,122,718,86h2c6,65,48,209,70,282l92,310H993L788,0H654L545,382c-10,35,-41,145,-44,208h-1C490,483,402,193,344,0Z" 
id="f0_v"
transform="scale(0.001,-0.001)" />

<path d="M498,578c180,0,278,90,278,198C776,885,675,975,498,975H278V578ZM147,0V1060H515c218,0,385,-133,385,-284C900,652,798,544,640,498L943,0H807L519,484H278V0Z" 
id="f3_1h"
transform="scale(0.001,-0.001)" />

<path d="M335,76c16,0,74,2,119,29c52,29,52,68,52,97v94C440,293,193,283,193,176C193,112,261,76,335,76ZM257,-16C124,-16,83,107,83,173c0,134,194,198,423,201v66c0,113,-61,174,-133,174C298,614,222,594,142,538l-9,101c72,41,140,65,240,65C513,704,625,597,625,442V0H510V55C422,-13,278,-16,257,-16Z" 
id="f3_2"
transform="scale(0.001,-0.001)" />

<path d="M124,0V688H234V579c9,12,84,116,221,116C642,695,665,556,665,455V0H545V445c0,48,-1,157,-148,157C281,602,243,475,243,374V0Z" 
id="f3_10"
transform="scale(0.001,-0.001)" />

<path d="M128,0V1060H238V361L548,678H686L429,416L720,0H594L356,342L234,215V0Z" 
id="f3_u"
transform="scale(0.001,-0.001)" />

<path d="M545,419C526,559,440,611,361,611C273,611,193,535,168,419ZM383,-16C200,-16,53,144,53,345c0,197,138,359,308,359c55,0,148,-16,210,-111c60,-92,62,-206,62,-258H160C165,185,263,76,385,76c35,0,136,7,232,86l9,-99C567,20,480,-16,383,-16Z" 
id="f3_d"
transform="scale(0.001,-0.001)" />

<path d="M380,76c40,0,78,13,113,43c49,44,51,72,51,93V518c-34,49,-80,84,-148,84C306,602,174,539,174,338C174,148,286,76,380,76ZM318,-16C173,-16,55,139,55,339c0,197,119,356,270,356c57,0,143,-17,223,-84v449H663V0H544V79C458,-2,368,-16,318,-16Z" 
id="f3_b"
transform="scale(0.001,-0.001)" />

<path d="M124,0V688H234V578c41,55,113,117,223,117c49,0,156,-9,195,-125c57,82,136,125,228,125c185,0,209,-137,209,-240V0H970V445c0,58,-7,157,-150,157C707,602,666,478,666,374V0H547V445c0,58,-8,157,-150,157C284,602,243,478,243,374V0Z" 
id="f3_y"
transform="scale(0.001,-0.001)" />

<path d="M380,81c113,0,217,90,217,270C597,532,487,611,380,611C281,611,165,536,165,351C165,167,275,81,380,81Zm0,-97C202,-16,46,134,46,336c0,200,148,368,336,368C564,704,717,541,717,336C717,138,564,-16,380,-16Z" 
id="f3_14"
transform="scale(0.001,-0.001)" />

<path d="M382,-227c125,0,231,51,231,118C613,-4,440,-4,406,-4H269C150,-4,150,-103,150,-107c0,-72,108,-120,232,-120ZM338,284c65,0,137,43,137,162c0,119,-72,162,-137,162C281,608,202,573,202,446C202,319,281,284,338,284Zm42,-598c-186,0,-337,92,-337,207C43,-68,61,2,141,49c-26,32,-40,76,-40,116c0,8,0,67,44,130C115,335,95,390,95,446c0,139,111,249,243,249c61,0,113,-23,145,-49c46,20,134,49,241,49l17,-96c0,0,-63,4,-90,4c-37,0,-80,-6,-113,-6l-6,2c16,-23,50,-80,50,-153C582,310,475,197,338,197c-57,0,-107,21,-139,44C188,228,182,203,182,186c0,-81,69,-81,88,-81H405c59,0,315,0,315,-211C720,-224,568,-314,380,-314Z" 
id="f3_n"
transform="scale(0.001,-0.001)" />

<path d="M284,-16C179,-16,157,90,157,182V590H29v88H162V872H267V678H483V590H267V208C267,127,289,81,345,81c49,0,98,18,138,50L507,41C469,21,391,-16,284,-16Z" 
id="f3_1p"
transform="scale(0.001,-0.001)" />

<path d="M124,0V1060H238V585c49,63,123,110,217,110C642,695,665,556,665,455V0H545V445c0,48,-1,157,-148,157C281,602,243,475,243,374V0Z" 
id="f3_p"
transform="scale(0.001,-0.001)" />

<path d="M452,0V953H315c-19,0,-37,-1,-55,-1H55v99H984V952H779c-18,0,-36,1,-55,1H588V0Z" 
id="f3_1o"
transform="scale(0.001,-0.001)" />

<path d="M391,76c115,0,223,107,223,265c0,140,-91,256,-208,256C341,597,281,562,244,509V202c0,-28,0,-31,16,-54C290,107,332,76,391,76ZM125,-295V678H240V603c70,60,159,92,250,92C637,695,733,524,733,341C733,133,599,-16,451,-16C359,-16,292,26,244,70V-295Z" 
id="f3_17"
transform="scale(0.001,-0.001)" />

<path d="M976,8c60,0,104,97,104,215c0,112,-43,214,-104,214c-21,0,-99,-12,-99,-215C877,12,959,8,976,8Zm0,-93C868,-85,762,40,762,223c0,179,103,307,214,307c107,0,210,-125,210,-308C1186,44,1085,-85,976,-85ZM299,623c60,0,104,98,104,216c0,111,-42,214,-104,214c-21,0,-99,-13,-99,-216c0,-209,83,-214,99,-214Zm0,-93C191,530,86,655,86,839c0,179,102,307,213,307c107,0,210,-125,210,-309C509,660,408,530,299,530Zm0,-615c-15,0,-30,14,-30,31c0,11,11,27,11,27L944,1121c6,10,14,25,32,25c17,0,31,-14,31,-31c0,-6,0,-9,-12,-27L332,-60c-8,-14,-16,-25,-33,-25Z" 
id="f3_1a"
transform="scale(0.001,-0.001)" />

<path d="M154,0V590H41v88H154V816c0,153,110,261,254,261c56,0,104,-12,122,-17V958c-52,23,-93,26,-124,26C367,984,264,973,264,860V678H437V590H269V0Z" 
id="f3_h"
transform="scale(0.001,-0.001)" />

<path d="M147,0V1060H336L710,318L813,108h1v952H933V0H744L370,743L267,952h-1V0Z" 
id="f3_z"
transform="scale(0.001,-0.001)" />

<path d="M124,0V678H238V0Zm-9,865v136H251V865Z" 
id="f3_22"
transform="scale(0.001,-0.001)" />

<path d="M124,0V1060H238V0Z" 
id="f3_w"
transform="scale(0.001,-0.001)" />

<path d="M529,-33C322,-33,144,133,144,356v704H280V354C280,148,405,52,530,52c128,0,257,101,257,302v706H906V356C906,134,733,-33,529,-33Z" 
id="f3_1s"
transform="scale(0.001,-0.001)" />

<path d="M284,0L21,678H141L289,283C304,241,344,136,353,81h1c13,72,60,196,92,280L567,678H681L419,0Z" 
id="f3_1v"
transform="scale(0.001,-0.001)" />

<path d="M125,0V688H232V548c48,71,132,146,268,147V593C350,590,240,480,240,327V0Z" 
id="f3_1i"
transform="scale(0.001,-0.001)" />

<path d="M299,-16C176,-16,92,26,43,50L61,154C89,136,174,79,298,79c23,0,144,0,144,106c0,81,-89,99,-144,110c-84,17,-118,23,-165,56C95,380,50,429,50,504c0,200,216,200,254,200c78,0,141,-12,220,-49L506,556c-87,52,-168,58,-217,58c-20,0,-130,0,-130,-95c0,-74,70,-90,154,-106c77,-14,118,-23,177,-77c3,-4,60,-56,60,-140C550,130,524,69,477,32C411,-16,327,-16,299,-16Z" 
id="f3_1k"
transform="scale(0.001,-0.001)" />

<path d="M176,-312c-34,0,-77,4,-110,12l-9,99c45,-18,94,-24,119,-24c21,0,47,0,87,88L318,0L21,678H142L225,487C231,474,353,189,362,87h2c1,35,4,106,203,591H681L348,-138C286,-294,229,-312,176,-312Z" 
id="f3_1z"
transform="scale(0.001,-0.001)" />

<path d="M144,0V1056H825V956H545c-18,0,-36,2,-55,2H280V596H784V503H280V107H599c18,0,37,1,55,1H846V0Z" 
id="f3_c"
transform="scale(0.001,-0.001)" />

<path d="M385,-16C194,-16,55,150,55,339c0,180,124,365,336,365c93,0,145,-13,235,-65L608,539c-84,55,-136,68,-215,68C231,607,174,460,174,341C174,191,260,81,387,81c77,0,160,21,238,82L634,61C552,5,468,-16,385,-16Z" 
id="f3_7"
transform="scale(0.001,-0.001)" />

<path d="M0,0L296,350L9,678H136L347,426L552,678H677L397,350L703,0H576L347,287L125,0Z" 
id="f3_1y"
transform="scale(0.001,-0.001)" />

<path d="M144,0V1060H280V0Z" 
id="f3_r"
transform="scale(0.001,-0.001)" />

<path d="M414,-381c-73,67,-293,270,-293,763c0,111,10,273,72,437c70,188,172,281,221,327h93C457,1095,370,1004,307,827C244,646,240,468,240,382c0,-493,194,-690,267,-763Z" 
id="f3_18"
transform="scale(0.001,-0.001)" />

<path d="M232,-16c0,357,136,662,362,911H409c-18,0,-36,-1,-55,-1H64v108H698V903C579,768,361,442,361,-16Z" 
id="f3_1l"
transform="scale(0.001,-0.001)" />

<path d="M383,60c88,0,127,52,153,94c37,63,37,133,37,185c0,69,-3,122,-35,179c-31,56,-74,95,-147,95C264,613,196,490,196,377c-2,-18,-2,-21,-2,-42C199,284,222,60,383,60Zm0,-93C254,-33,64,60,64,492c0,328,193,544,408,544c21,0,84,0,162,-31V915c-53,22,-102,32,-160,32C333,947,212,825,193,579c93,115,209,127,258,127C597,706,698,535,698,339C698,218,669,148,600,70C541,2,475,-33,383,-33Z" 
id="f3_1m"
transform="scale(0.001,-0.001)" />

<path d="M86,-381c50,50,137,142,200,319c62,180,67,358,67,444c0,493,-194,691,-267,764h93C252,1079,472,875,472,382C472,270,461,108,400,-54C330,-242,228,-335,179,-381Z" 
id="f3_19"
transform="scale(0.001,-0.001)" />

<path d="M145,0V1060H319L552,435c24,-62,24,-65,51,-148c20,-59,40,-116,45,-142h1c16,70,75,231,155,445l174,470h174V0H1034V944h-1C1005,830,753,163,703,32H591C533,185,286,839,264,943h-1V0Z" 
id="f0_h"
transform="scale(0.001,-0.001)" />

<path d="M118,0V686H226V581c26,32,92,113,217,113c80,0,164,-28,191,-124c23,33,95,124,225,124c178,0,206,-129,206,-234V0H949V449c0,57,-8,153,-148,153C689,602,649,481,649,380V0H533V449c0,57,-7,153,-148,153C273,602,234,481,234,380V0Z" 
id="f0_i"
transform="scale(0.001,-0.001)" />

<path d="M377,76c94,0,219,66,219,265C596,532,486,602,393,602C318,602,263,558,235,515V199c0,-26,6,-54,43,-86C306,92,335,76,377,76Zm57,-90C380,-14,306,2,235,69V0H119V1060H232V608c95,76,193,86,237,86C611,694,712,529,712,341C712,133,579,-14,434,-14Z" 
id="f0_3"
transform="scale(0.001,-0.001)" />

<path d="M118,0V1060H231V588c36,46,107,106,212,106C628,694,648,553,648,460V0H532V449c0,54,-5,153,-147,153C269,602,234,475,234,380V0Z" 
id="f0_c"
transform="scale(0.001,-0.001)" />

<path d="M119,0V678H232V0Zm-9,868V999H241V868Z" 
id="f0_x"
transform="scale(0.001,-0.001)" />

<path d="M377,76c113,0,219,110,219,263c0,145,-92,260,-205,260C328,599,270,565,235,513V199c0,-25,5,-52,43,-86C306,92,335,76,377,76ZM119,-295V678H232V607c80,67,177,87,240,87C614,694,712,526,712,341C712,133,581,-14,434,-14C351,-14,287,21,235,69V-295Z" 
id="f0_m"
transform="scale(0.001,-0.001)" />

<path d="M0,373v93H762V373Z" 
id="f3_f"
transform="scale(0.001,-0.001)" />

<path d="M92,0C70,0,37,0,37,34c0,12,6,19,15,30L293,362L63,637C52,649,47,655,47,666c0,34,34,34,54,34h67c35,0,52,-2,78,-34L377,501c26,35,126,168,133,176c22,23,40,23,68,23h65c23,0,54,0,54,-34c0,-8,0,-14,-16,-32L460,362L707,66C718,52,724,46,724,34C724,0,692,0,671,0H603C571,0,553,0,532,31L376,251L244,55C211,5,208,0,157,0Z" 
id="f2_1d"
transform="scale(0.001,-0.001)" />

<path d="M593,-16C458,-16,335,44,244,144C150,249,101,388,101,530c0,142,49,281,143,388c91,100,214,161,349,161c49,0,98,-3,145,-13c49,-9,96,-24,142,-42L859,898c-40,28,-83,51,-129,65c-44,13,-91,18,-137,18C493,981,403,927,341,849C270,759,237,645,237,530C237,416,270,303,341,212C403,134,493,81,593,81c52,0,105,2,154,18c52,16,96,45,141,75L897,69C851,41,804,14,752,0C700,-14,646,-16,593,-16Z" 
id="f3_6"
transform="scale(0.001,-0.001)" />

<path d="M480,530c174,0,267,103,267,223c0,115,-89,222,-267,222H267V530ZM139,0V1060H512c208,0,356,-146,356,-308C868,593,723,442,512,442H270V0Z" 
id="f0_l"
transform="scale(0.001,-0.001)" />

<path d="M151,0V590H40v88H151V816c0,148,104,260,249,260c57,0,107,-13,118,-16V959c-18,8,-66,25,-119,25C348,984,261,966,261,862V678H428V590H264V0Z" 
id="f0_9"
transform="scale(0.001,-0.001)" />

<path d="M119,0V1060H231V371L526,678H666L416,417L700,0H574L342,341L226,220V0Z" 
id="f0_e"
transform="scale(0.001,-0.001)" />

<path d="M493,530c176,0,272,101,272,222C765,882,662,975,493,975H278V530ZM147,0V1060H527c211,0,362,-145,362,-308C889,581,727,442,538,442H283V0Z" 
id="f3_16"
transform="scale(0.001,-0.001)" />

<path d="M144,0V1060H280V98h74l408,3V0Z" 
id="f3_v"
transform="scale(0.001,-0.001)" />

<path d="M286,-16C159,-16,124,57,124,167V678H243V173C243,107,254,67,362,67c98,0,183,54,183,168V678H665V0H550V73C475,8,367,-16,286,-16Z" 
id="f3_1t"
transform="scale(0.001,-0.001)" />

<path d="M594,-126c-30,0,-30,29,-30,51V351H136c-21,0,-50,0,-50,31c0,31,29,31,50,31H564V840c0,22,0,51,30,51c31,0,31,-29,31,-51V413h426c22,0,51,0,51,-31c0,-31,-29,-31,-51,-31H625V-75c0,-22,0,-51,-31,-51Z" 
id="f3_1c"
transform="scale(0.001,-0.001)" />

<path d="M747,260l64,244H524L460,260ZM286,-295c-17,0,-31,13,-31,30c0,6,5,25,6,28L379,199H136c-21,0,-50,0,-50,30c0,31,29,31,52,31H397l64,244H138c-23,0,-52,0,-52,31c0,30,29,30,50,30H480l122,459c5,16,9,36,34,36c16,0,30,-13,30,-30c0,-6,-4,-25,-6,-28L542,565H830l122,459c4,16,9,36,33,36c17,0,31,-13,31,-30c0,-6,-5,-25,-6,-28L892,565h243c22,0,51,0,51,-30c0,-31,-29,-31,-52,-31H874L810,260h324c23,0,52,0,52,-31c0,-30,-29,-30,-51,-30H791L669,-259c-4,-17,-9,-36,-33,-36c-17,0,-31,13,-31,30c0,6,5,25,6,28L729,199H442L319,-259c-4,-17,-9,-36,-33,-36Z" 
id="f3_12"
transform="scale(0.001,-0.001)" />

<path d="M325,-33C197,-33,101,12,64,31L86,145C138,87,217,60,281,60c180,0,180,146,180,172v828H593V228C593,55,483,-33,325,-33Z" 
id="f3_s"
transform="scale(0.001,-0.001)" />

<path d="M332,0L21,1060H153L277,629L348,374c13,-50,54,-200,60,-261h1c8,86,84,353,118,471l138,476H788L938,539C1039,191,1048,110,1048,110h2c7,78,81,335,120,471l139,479h110L1109,0H976L801,613C759,758,723,903,717,949h-2C706,869,640,642,608,530L455,0Z" 
id="f3_1w"
transform="scale(0.001,-0.001)" />

<path d="M393,76c93,0,221,66,221,265C614,536,498,602,408,602C324,602,269,548,244,512V174C283,104,333,76,393,76Zm56,-92C347,-16,281,37,244,70V0H125V1060H240V605c92,75,186,90,246,90C629,695,733,530,733,341C733,136,602,-16,449,-16Z" 
id="f3_5"
transform="scale(0.001,-0.001)" />

<path d="M1071,92v0ZM345,64c42,0,129,8,225,58C553,139,408,299,335,446C324,437,237,362,235,359C209,335,183,292,183,234C183,156,237,64,345,64Zm43,553c93,86,162,161,162,239c0,38,-12,145,-93,145C409,1001,347,958,347,843c0,-12,0,-119,41,-226ZM344,-33C182,-33,64,86,64,223c0,60,20,116,69,170c11,12,82,73,113,99c17,15,24,21,34,31c12,12,13,16,13,16c0,0,0,5,-4,16c-16,45,-41,137,-41,236c0,164,80,303,210,303c123,0,197,-124,197,-240C655,753,573,655,425,524C493,379,617,235,663,186c37,29,96,86,156,188c11,17,64,107,102,245l95,-28C966,413,877,243,736,121C782,89,827,64,895,64c22,0,93,2,176,28V-10C979,-33,912,-33,894,-33c-74,0,-155,19,-246,88C602,29,493,-33,344,-33Z" 
id="f3_3"
transform="scale(0.001,-0.001)" />

<path d="M153,0V1060H325L377,927L617,295c23,-64,41,-121,49,-153h2c16,72,88,261,142,400l198,518h175V0H1063V947l-1,2c-8,-35,-49,-145,-64,-190L924,565L721,34H610L383,628C344,732,283,898,273,947h-1V0Z" 
id="f3_x"
transform="scale(0.001,-0.001)" />

<path d="M512,86c214,0,373,175,373,435C885,790,726,975,512,975H278V86ZM147,0V1060H547c263,0,469,-243,469,-539C1016,232,808,0,548,0Z" 
id="f3_a"
transform="scale(0.001,-0.001)" />

<path d="M90,-312c-40,0,-109,9,-182,52l32,93c33,-32,69,-47,112,-47c27,0,115,7,115,110V678H281V-89C281,-233,186,-312,90,-312ZM145,865v136H281V865Z" 
id="f3_23"
transform="scale(0.001,-0.001)" />

<path d="M684,397L545,790C510,891,500,929,497,950h-2C484,894,437,764,405,674C327,455,383,616,306,397ZM43,0L442,1060H576L975,0H834L718,312H273L156,0Z" 
id="f3_1"
transform="scale(0.001,-0.001)" />

<path d="M420,-33C324,-33,202,-11,67,72L90,196C218,87,356,72,419,72c139,0,223,101,223,201c0,66,-34,117,-64,143c-43,38,-59,42,-188,74C299,512,232,530,168,599C107,663,86,727,86,793c0,151,132,301,345,301c111,0,195,-26,279,-76L688,895c-57,48,-130,98,-259,98C289,993,206,901,206,811c0,-67,43,-111,54,-120c46,-40,70,-46,159,-68C559,588,610,574,681,498c34,-37,81,-110,81,-209C762,121,622,-33,420,-33Z" 
id="f3_1j"
transform="scale(0.001,-0.001)" />

<path d="M144,0V1060H280V597H801v463H937V0H801V504H280V0Z" 
id="f3_o"
transform="scale(0.001,-0.001)" />

<path d="M562,64c45,0,86,14,86,14L493,296H629L750,136C888,261,906,428,906,527C906,810,744,996,561,996C383,996,217,813,217,527C217,243,382,64,562,64ZM839,-190L707,-5C642,-31,585,-33,561,-33C312,-33,86,203,86,527c0,318,217,567,476,567c254,0,475,-246,475,-567C1037,367,981,180,814,50L996,-190Z" 
id="f3_1d"
transform="scale(0.001,-0.001)" />

<path d="M562,66c174,0,339,186,339,484C901,823,738,996,561,996C390,996,222,830,222,550C222,257,382,66,562,66Zm-1,-99C312,-33,86,203,86,527c0,318,217,567,476,567c254,0,475,-246,475,-567C1037,206,816,-33,561,-33Z" 
id="f3_13"
transform="scale(0.001,-0.001)" />

<path d="M509,86c165,0,299,88,299,203C808,411,658,504,497,504H275V86ZM452,597c211,0,320,104,320,196C772,894,637,975,468,975H275V597ZM148,0V1060H510c217,0,381,-125,381,-266C891,678,776,590,637,555C799,529,932,420,932,287C932,138,772,0,552,0Z" 
id="f3_4"
transform="scale(0.001,-0.001)" />

<path d="M438,0L21,1060H163L428,376c14,-37,79,-205,91,-266h2c14,70,128,365,153,428l203,522H996L579,0Z" 
id="f3_1u"
transform="scale(0.001,-0.001)" />

<path d="M231,0L21,678H138L217,414C241,330,292,157,299,84h2c6,78,58,254,75,307l87,287H570L669,353C695,266,733,130,739,83h2c8,65,53,216,70,271l98,324h112L811,0H677L565,379c-20,66,-46,171,-49,214h-1C510,536,468,385,446,315L351,0Z" 
id="f3_1x"
transform="scale(0.001,-0.001)" />

<path d="M138,0V1060H269V95h73l402,3V0Z" 
id="f0_f"
transform="scale(0.001,-0.001)" />

<path d="M374,-228c119,0,225,50,225,121C599,-2,431,-2,397,-2H264C148,-2,148,-101,148,-106c0,-75,107,-122,226,-122ZM333,284c47,0,133,28,133,164c0,116,-67,162,-134,162C284,610,199,582,199,446C199,330,266,284,333,284Zm40,-596c-187,0,-332,93,-332,205C41,-65,60,0,138,50C121,70,99,108,99,165c0,37,9,83,45,131C110,342,93,393,93,448c0,134,107,246,240,246c31,0,92,-8,142,-51c101,49,205,51,234,51l17,-94c-38,3,-74,3,-78,3c-57,0,-90,-4,-122,-7c-2,3,-5,6,-5,6c31,-43,50,-99,50,-154C571,309,463,200,332,200c-62,0,-112,26,-138,44c-9,-13,-15,-22,-15,-56c0,-81,65,-81,87,-81H396c62,0,310,0,310,-213C706,-222,559,-312,373,-312Z" 
id="f0_a"
transform="scale(0.001,-0.001)" />

<path d="M144,0V1056H804V956H535c-19,0,-37,2,-55,2H280V574H741V481H280V0Z" 
id="f3_g"
transform="scale(0.001,-0.001)" />

<path d="M712,362L567,791c-12,36,-12,39,-20,75h-2C533,811,513,753,490,686L380,362ZM124,0C102,0,64,0,64,41c0,8,0,11,8,31L394,995c23,65,67,65,98,65H626c31,0,75,0,98,-65L1047,72c7,-20,7,-23,7,-31C1054,0,1016,0,995,0H912C839,0,828,31,810,84L758,231H335L275,61C254,0,206,0,179,0Z" 
id="f2_1"
transform="scale(0.001,-0.001)" />

<path d="M17,295v88H422V295Z" 
id="f3_q"
transform="scale(0.001,-0.001)" />

<path d="M370,-33C309,-33,171,-17,90,125l37,92C173,113,281,60,387,60c117,0,209,97,233,217c17,76,14,218,-151,218H361l19,93c110,9,113,9,123,11c97,21,180,111,200,205c20,97,-45,143,-124,143C486,947,374,892,307,785l-37,83c88,107,211,168,329,168c151,0,257,-101,229,-232C807,707,732,603,602,541C700,509,787,414,756,275C723,115,556,-33,370,-33Z" 
id="f4_1f"
transform="scale(0.001,-0.001)" />

<path d="M35,-381c-17,0,-27,14,-24,31c0,0,1,7,13,27L851,1115c8,16,17,31,38,31c17,0,29,-14,25,-31c0,0,-2,-7,-14,-27L73,-350c-7,-16,-16,-31,-38,-31Z" 
id="f4_1c"
transform="scale(0.001,-0.001)" />


</defs>
</svg>