<?xml version="1.0" encoding="UTF-8" standalone="no"?>
<!DOCTYPE svg PUBLIC "-//W3C//DTD SVG 1.1//EN"
"http://www.w3.org/Graphics/SVG/1.1/DTD/svg11.dtd">
<svg viewBox="0 0 909 1286" version="1.1" xmlns="http://www.w3.org/2000/svg" xmlns:xlink="http://www.w3.org/1999/xlink">
<defs>
<style type="text/css"><![CDATA[
.g1_3{
fill: #3873B3;
}
]]></style>
</defs>
<path d="M113.7,142.7l95.9,0l0,-7l-95.9,0l0,7Z" class="g1_3" />
<path d="M113.7,399.7l95.9,0l0,-7l-95.9,0l0,7Z" class="g1_3" />
<path d="M113.7,517.9l95.9,0l0,-7.1l-95.9,0l0,7.1Z" class="g1_3" />
<path d="M113.7,613.9l95.9,0l0,-7.1l-95.9,0l0,7.1Z" class="g1_3" />
<path d="M113.7,828.9l95.9,0l0,-7.1l-95.9,0l0,7.1Z" class="g1_3" />
<path d="M113.7,949.7l95.9,0l0,-7l-95.9,0l0,7Z" class="g1_3" />
</svg>