<?xml version="1.0" encoding="UTF-8" standalone="no"?>
<!DOCTYPE svg PUBLIC "-//W3C//DTD SVG 1.1//EN"
"http://www.w3.org/Graphics/SVG/1.1/DTD/svg11.dtd">
<svg viewBox="0 0 935 1210" version="1.1" xmlns="http://www.w3.org/2000/svg" xmlns:xlink="http://www.w3.org/1999/xlink">
<defs>
<style type="text/css"><![CDATA[
.g1_19{
fill: none;
stroke: #000000;
stroke-width: 0.5683333;
stroke-linecap: butt;
stroke-linejoin: miter;
}
.g2_19{
}
]]></style>
</defs>
<path d="M615.6,307.1c0,1,-0.2,1.9,-0.4,2.8c-0.3,0.8,-0.7,1.4,-1.2,2c-0.5,0.5,-1.2,0.9,-1.9,1.2c-0.8,0.3,-1.7,0.4,-2.7,0.4l-2.5,0c-0.1,0,-0.3,0,-0.4,-0.1c-0.1,-0.1,-0.2,-0.3,-0.2,-0.5l0,-11.3c0,-0.3,0.1,-0.4,0.2,-0.5c0.1,-0.1,0.3,-0.1,0.4,-0.1l2.6,0c1.1,0,2,0.1,2.7,0.4c0.8,0.3,1.4,0.7,1.9,1.2c0.5,0.6,0.8,1.2,1.1,2c0.3,0.7,0.4,1.5,0.4,2.5Zm-1.3,0c0,-0.7,-0.1,-1.4,-0.3,-2c-0.2,-0.6,-0.4,-1.2,-0.8,-1.6c-0.4,-0.5,-0.9,-0.8,-1.5,-1.1c-0.6,-0.2,-1.3,-0.4,-2.2,-0.4l-2,0l0,10.5l2,0c0.8,0,1.6,-0.1,2.1,-0.3c0.6,-0.3,1.1,-0.6,1.5,-1c0.4,-0.5,0.7,-1,0.9,-1.7c0.2,-0.7,0.3,-1.4,0.3,-2.4Z" class="g1_19" />
<path d="M619.4,313.8c0,0.6,-0.1,1.1,-0.2,1.5c0,0.4,-0.2,0.7,-0.4,1c-0.2,0.2,-0.4,0.4,-0.7,0.5c-0.3,0.2,-0.7,0.3,-1.1,0.3c-0.2,0,-0.4,-0.1,-0.5,-0.1c-0.1,0,-0.2,0,-0.3,0c0,-0.1,-0.1,-0.1,-0.1,-0.1C616,316.8,616,316.8,616,316.8c0,-0.1,0,-0.1,0,-0.2c0,0,0,-0.1,0,-0.1c0,-0.1,0,-0.2,0,-0.2c0,-0.1,0,-0.1,0,-0.2c0.1,0,0.1,0,0.1,-0.1c0.1,0,0.1,0,0.1,0c0,0,0.1,0,0.3,0c0.1,0,0.2,0.1,0.4,0.1c0.2,0,0.4,-0.1,0.6,-0.2c0.2,0,0.3,-0.1,0.4,-0.3c0.1,-0.2,0.2,-0.4,0.2,-0.7c0.1,-0.2,0.1,-0.6,0.1,-1.1l0,-9.2c0,-0.1,0,-0.1,0,-0.2c0.1,0,0.1,0,0.1,0c0.1,-0.1,0.1,-0.1,0.2,-0.1c0.1,0,0.2,0,0.3,0c0.1,0,0.2,0,0.3,0c0.1,0,0.1,0,0.1,0.1c0.1,0,0.1,0,0.1,0c0.1,0.1,0.1,0.1,0.1,0.2Zm0.2,-12.2c0,0.3,-0.1,0.5,-0.2,0.6c-0.1,0.1,-0.3,0.2,-0.6,0.2c-0.3,0,-0.5,-0.1,-0.6,-0.2c-0.1,-0.1,-0.1,-0.3,-0.1,-0.6c0,-0.3,0,-0.5,0.1,-0.6c0.1,-0.1,0.3,-0.2,0.6,-0.2c0.3,0,0.5,0.1,0.6,0.2c0.1,0.1,0.2,0.3,0.2,0.6Zm9.2,11.7c0,0.1,0,0.2,-0.1,0.2c0,0,-0.1,0,-0.2,0.1c0,0,-0.1,0,-0.2,0c-0.1,0,-0.2,0,-0.3,0c-0.1,-0.1,-0.1,-0.1,-0.2,-0.1c0,0,0,-0.1,0,-0.2l0,-0.9c-0.4,0.4,-0.9,0.7,-1.4,1c-0.4,0.2,-0.9,0.3,-1.4,0.3c-0.5,0,-0.9,-0.1,-1.3,-0.2c-0.3,-0.1,-0.7,-0.3,-0.9,-0.5c-0.3,-0.2,-0.5,-0.5,-0.6,-0.8c-0.1,-0.3,-0.2,-0.7,-0.2,-1.1c0,-0.5,0.1,-0.9,0.3,-1.2c0.2,-0.4,0.5,-0.7,0.9,-1c0.3,-0.2,0.8,-0.4,1.3,-0.5c0.5,-0.1,1.1,-0.2,1.7,-0.2l1.4,0l0,-0.7c0,-0.4,0,-0.7,-0.1,-1c-0.1,-0.3,-0.2,-0.5,-0.4,-0.7c-0.1,-0.2,-0.4,-0.4,-0.7,-0.5c-0.2,-0.1,-0.6,-0.1,-1,-0.1c-0.4,0,-0.7,0,-1,0.1c-0.3,0.1,-0.6,0.2,-0.8,0.4c-0.3,0.1,-0.5,0.2,-0.6,0.3c-0.2,0,-0.3,0.1,-0.3,0.1c-0.1,0,-0.1,0,-0.1,0c-0.1,0,-0.1,-0.1,-0.1,-0.1c-0.1,0,-0.1,-0.1,-0.1,-0.1c0,-0.1,0,-0.2,0,-0.2c0,-0.2,0,-0.3,0,-0.4c0,0,0.1,-0.1,0.2,-0.2c0.1,-0.1,0.2,-0.2,0.4,-0.3c0.2,-0.1,0.5,-0.2,0.7,-0.3c0.3,-0.1,0.6,-0.2,0.9,-0.2c0.3,-0.1,0.6,-0.1,0.9,-0.1c0.6,0,1.1,0.1,1.6,0.2c0.4,0.2,0.7,0.4,1,0.6c0.2,0.3,0.4,0.6,0.5,1c0.1,0.4,0.2,0.9,0.2,1.4Zm-1.2,-4.1l-1.6,0c-0.5,0,-0.9,0,-1.2,0.1c-0.4,0.1,-0.6,0.2,-0.9,0.4c-0.2,0.1,-0.4,0.3,-0.5,0.6c-0.1,0.2,-0.2,0.5,-0.2,0.7c0,0.6,0.2,1,0.5,1.3c0.3,0.2,0.8,0.4,1.4,0.4c0.4,0,0.8,-0.1,1.2,-0.3c0.4,-0.3,0.9,-0.6,1.3,-1.1Z" class="g1_19" />
<path d="M639,313.3c0,0.1,0,0.1,0,0.1c0,0.1,-0.1,0.1,-0.1,0.1c-0.1,0,-0.1,0.1,-0.2,0.1c-0.1,0,-0.2,0,-0.3,0c-0.1,0,-0.2,0,-0.3,0c0,0,-0.1,-0.1,-0.1,-0.1c-0.1,0,-0.1,0,-0.1,-0.1l0,-0.1l0,-5.2c0,-0.5,-0.1,-1,-0.2,-1.3c-0.1,-0.3,-0.2,-0.6,-0.4,-0.9c-0.1,-0.2,-0.3,-0.4,-0.6,-0.5c-0.3,-0.2,-0.6,-0.3,-0.9,-0.3c-0.5,0,-0.9,0.2,-1.4,0.5c-0.4,0.3,-0.9,0.8,-1.4,1.4l0,6.3c0,0.1,0,0.1,0,0.1c0,0.1,0,0.1,-0.1,0.1c0,0,-0.1,0.1,-0.1,0.1c-0.1,0,-0.2,0,-0.3,0c-0.1,0,-0.2,0,-0.3,0c-0.1,0,-0.1,-0.1,-0.2,-0.1c0,0,-0.1,0,-0.1,-0.1l0,-0.1l0,-8.7c0,-0.1,0,-0.1,0,-0.2c0,0,0.1,0,0.1,0c0.1,-0.1,0.1,-0.1,0.2,-0.1c0,0,0.1,0,0.2,0c0.1,0,0.2,0,0.3,0c0.1,0,0.1,0,0.2,0.1l0.1,0c0,0.1,0,0.1,0,0.2l0,1.2c0.5,-0.6,1,-1,1.5,-1.2c0.5,-0.3,0.9,-0.4,1.4,-0.4c0.6,0,1.1,0.1,1.5,0.3c0.4,0.2,0.7,0.4,0.9,0.8c0.3,0.3,0.4,0.7,0.5,1.1c0.1,0.5,0.2,1,0.2,1.6Z" class="g1_19" />
<path d="M649.2,304.8c0,0.2,0,0.3,-0.1,0.4c-0.1,0.1,-0.1,0.1,-0.2,0.1l-1.4,0c0.3,0.3,0.5,0.6,0.6,0.9c0.1,0.4,0.1,0.7,0.1,1.1c0,0.5,-0.1,0.9,-0.2,1.3c-0.2,0.4,-0.4,0.7,-0.7,1c-0.3,0.3,-0.6,0.5,-1,0.6c-0.4,0.1,-0.9,0.2,-1.4,0.2c-0.4,0,-0.7,0,-1.1,-0.1c-0.3,-0.1,-0.6,-0.3,-0.8,-0.5c-0.2,0.2,-0.3,0.3,-0.3,0.5c-0.1,0.2,-0.2,0.4,-0.2,0.6c0,0.2,0.1,0.4,0.4,0.6c0.2,0.2,0.5,0.3,0.9,0.3l2.4,0.1c0.4,0,0.8,0,1.1,0.1c0.4,0.1,0.7,0.3,0.9,0.5c0.3,0.1,0.5,0.4,0.7,0.7c0.1,0.2,0.2,0.6,0.2,0.9c0,0.4,-0.1,0.8,-0.2,1.1c-0.2,0.4,-0.4,0.7,-0.8,1c-0.3,0.3,-0.7,0.5,-1.3,0.6c-0.5,0.2,-1.1,0.3,-1.8,0.3c-0.7,0,-1.3,-0.1,-1.8,-0.2c-0.4,-0.1,-0.8,-0.3,-1.1,-0.5c-0.3,-0.2,-0.6,-0.5,-0.7,-0.7c-0.2,-0.3,-0.2,-0.6,-0.2,-1c0,-0.2,0,-0.4,0,-0.6c0.1,-0.2,0.2,-0.4,0.3,-0.6c0.1,-0.2,0.2,-0.3,0.4,-0.5c0.1,-0.2,0.3,-0.3,0.5,-0.5c-0.3,-0.2,-0.5,-0.4,-0.7,-0.6c-0.1,-0.3,-0.2,-0.5,-0.2,-0.8c0,-0.4,0.1,-0.8,0.2,-1.1c0.2,-0.3,0.3,-0.6,0.6,-0.8c-0.2,-0.2,-0.4,-0.5,-0.5,-0.8c-0.1,-0.3,-0.1,-0.6,-0.1,-1.1c0,-0.4,0.1,-0.9,0.2,-1.3c0.2,-0.4,0.4,-0.7,0.7,-1c0.3,-0.2,0.6,-0.4,1,-0.6c0.4,-0.1,0.9,-0.2,1.3,-0.2c0.3,0,0.5,0,0.8,0c0.2,0.1,0.4,0.1,0.6,0.1l2.6,0c0.1,0,0.2,0.1,0.2,0.2c0.1,0.1,0.1,0.2,0.1,0.3Zm-2.2,2.5c0,-0.7,-0.2,-1.2,-0.5,-1.6c-0.4,-0.4,-0.9,-0.6,-1.6,-0.6c-0.3,0,-0.6,0.1,-0.9,0.2c-0.2,0.2,-0.5,0.3,-0.6,0.5c-0.2,0.2,-0.3,0.4,-0.4,0.7c-0.1,0.3,-0.1,0.6,-0.1,0.8c0,0.7,0.2,1.2,0.5,1.6c0.4,0.4,0.9,0.5,1.5,0.5c0.4,0,0.7,0,1,-0.1c0.2,-0.1,0.4,-0.3,0.6,-0.5c0.2,-0.2,0.3,-0.4,0.4,-0.7c0.1,-0.3,0.1,-0.5,0.1,-0.8Zm1,6.9c0,-0.4,-0.2,-0.7,-0.6,-1c-0.3,-0.2,-0.8,-0.3,-1.4,-0.3l-2.5,-0.1c-0.2,0.2,-0.4,0.3,-0.6,0.5c-0.1,0.2,-0.3,0.3,-0.4,0.4c0,0.2,-0.1,0.4,-0.1,0.5c-0.1,0.1,-0.1,0.3,-0.1,0.5c0,0.4,0.3,0.8,0.7,1c0.5,0.3,1.2,0.4,2.1,0.4c0.5,0,1,-0.1,1.3,-0.2c0.4,-0.1,0.7,-0.2,0.9,-0.4c0.3,-0.2,0.4,-0.4,0.5,-0.6c0.1,-0.2,0.2,-0.5,0.2,-0.7Z" class="g1_19" />
<path d="M659.2,308.8c0,0.8,-0.1,1.4,-0.3,2c-0.2,0.6,-0.4,1.1,-0.8,1.5c-0.4,0.4,-0.8,0.8,-1.3,1c-0.6,0.3,-1.2,0.4,-1.9,0.4c-0.7,0,-1.3,-0.1,-1.8,-0.3c-0.5,-0.2,-1,-0.5,-1.3,-0.9c-0.4,-0.5,-0.6,-1,-0.8,-1.5c-0.2,-0.6,-0.2,-1.3,-0.2,-2c0,-0.7,0,-1.3,0.2,-1.9c0.2,-0.6,0.5,-1.1,0.8,-1.5c0.4,-0.5,0.8,-0.8,1.4,-1c0.5,-0.3,1.1,-0.4,1.9,-0.4c0.6,0,1.2,0.1,1.7,0.3c0.6,0.2,1,0.5,1.3,0.9c0.4,0.4,0.6,0.9,0.8,1.5c0.2,0.6,0.3,1.2,0.3,1.9Zm-1.3,0.1c0,-0.4,0,-0.9,-0.1,-1.4c-0.1,-0.4,-0.3,-0.8,-0.5,-1.2c-0.2,-0.3,-0.5,-0.6,-0.9,-0.8c-0.4,-0.2,-0.8,-0.3,-1.4,-0.3c-0.5,0,-1,0.1,-1.4,0.3c-0.4,0.2,-0.7,0.4,-0.9,0.8c-0.2,0.3,-0.4,0.7,-0.6,1.1c-0.1,0.5,-0.1,1,-0.1,1.5c0,0.5,0,1,0.1,1.5c0.1,0.4,0.3,0.8,0.5,1.1c0.2,0.4,0.5,0.7,0.9,0.9c0.4,0.2,0.9,0.3,1.4,0.3c0.6,0,1,-0.1,1.4,-0.3c0.4,-0.2,0.7,-0.5,0.9,-0.8c0.3,-0.3,0.5,-0.7,0.6,-1.2c0.1,-0.4,0.1,-0.9,0.1,-1.5Z" class="g1_19" />
<path fill-rule="evenodd" d="M539.1,1022.5l220,0l0,1l-220,0l0,-1Z" class="g2_19" />
</svg>