<?xml version="1.0" encoding="UTF-8" standalone="no"?>
<!DOCTYPE svg PUBLIC "-//W3C//DTD SVG 1.1//EN"
"http://www.w3.org/Graphics/SVG/1.1/DTD/svg11.dtd">
<svg viewBox="0 0 935 1210" version="1.1" xmlns="http://www.w3.org/2000/svg" xmlns:xlink="http://www.w3.org/1999/xlink">
<defs>
<style type="text/css"><![CDATA[
.g1_32{
fill: none;
stroke: #000000;
stroke-width: 0.5683333;
stroke-linecap: butt;
stroke-linejoin: miter;
}
]]></style>
</defs>
<path d="M702.8,580.2c0,0.1,0,0.2,0,0.2c0,0.1,-0.1,0.2,-0.1,0.2c0,0.1,0,0.1,-0.1,0.1c0,0.1,0,0.1,-0.1,0.1c-0.1,0,-0.2,-0.1,-0.4,-0.2c-0.1,-0.2,-0.4,-0.3,-0.7,-0.4c-0.3,-0.2,-0.6,-0.3,-1.1,-0.5c-0.4,-0.1,-0.9,-0.2,-1.5,-0.2c-0.7,0,-1.4,0.2,-2,0.4c-0.5,0.3,-1,0.7,-1.4,1.2c-0.4,0.5,-0.8,1,-1,1.7c-0.2,0.6,-0.3,1.3,-0.3,2.1c0,0.9,0.2,1.6,0.4,2.3c0.2,0.6,0.6,1.2,1,1.7c0.4,0.4,0.9,0.8,1.5,1c0.6,0.2,1.2,0.4,1.9,0.4c0.5,0,0.9,-0.1,1.4,-0.2c0.4,-0.1,0.9,-0.3,1.3,-0.5l0,-4.1l-3.2,0c-0.1,0,-0.2,0,-0.3,-0.1c0,-0.1,0,-0.2,0,-0.4c0,-0.1,0,-0.2,0,-0.2c0,-0.1,0,-0.2,0,-0.2c0.1,0,0.1,-0.1,0.1,-0.1c0.1,0,0.1,0,0.2,0l3.8,0c0.1,0,0.1,0,0.2,0c0.1,0,0.1,0.1,0.2,0.1c0,0,0.1,0.1,0.1,0.2c0,0.1,0.1,0.2,0.1,0.3l0,4.6c0,0.2,-0.1,0.3,-0.1,0.4c-0.1,0.2,-0.2,0.3,-0.4,0.4c-0.1,0.1,-0.4,0.2,-0.7,0.3c-0.3,0.1,-0.6,0.2,-0.9,0.3c-0.3,0.1,-0.6,0.1,-0.9,0.2c-0.3,0,-0.6,0,-0.9,0c-1,0,-1.8,-0.1,-2.6,-0.4c-0.7,-0.3,-1.4,-0.8,-1.9,-1.3c-0.5,-0.6,-0.9,-1.2,-1.1,-2C693,586.8,692.8,586,692.8,585c0,-1,0.2,-1.8,0.5,-2.6c0.3,-0.9,0.7,-1.5,1.2,-2.1c0.6,-0.6,1.2,-1,2,-1.3c0.7,-0.3,1.5,-0.5,2.4,-0.5c0.5,0,0.9,0,1.3,0.1c0.4,0.1,0.8,0.2,1.1,0.3c0.3,0.1,0.6,0.3,0.8,0.4c0.2,0.1,0.4,0.3,0.5,0.3c0.1,0.1,0.1,0.2,0.2,0.3c0,0.1,0,0.2,0,0.3Z" class="g1_32" />
<path d="M707,591c0,0,0,0.1,0,0.1c0,0,-0.1,0.1,-0.1,0.1c0,0,-0.1,0,-0.2,0c-0.1,0,-0.2,0,-0.3,0c-0.1,0,-0.2,0,-0.3,0c0,0,-0.1,0,-0.1,0c-0.1,0,-0.1,-0.1,-0.1,-0.1c0,0,0,-0.1,0,-0.1l0,-8.8c0,0,0,-0.1,0,-0.1c0,0,0,-0.1,0.1,-0.1c0,0,0.1,0,0.1,0c0.1,0,0.2,0,0.3,0c0.1,0,0.2,0,0.3,0c0.1,0,0.2,0,0.2,0c0,0,0.1,0.1,0.1,0.1c0,0,0,0.1,0,0.1Zm0.2,-11.7c0,0.3,-0.1,0.5,-0.2,0.6c-0.1,0.1,-0.3,0.1,-0.6,0.1c-0.3,0,-0.5,0,-0.6,-0.1c-0.1,-0.1,-0.1,-0.3,-0.1,-0.6c0,-0.3,0,-0.6,0.1,-0.7c0.1,-0.1,0.3,-0.1,0.6,-0.1c0.3,0,0.5,0,0.6,0.1c0.1,0.1,0.2,0.3,0.2,0.7Zm7.3,11.2c0,0.1,0,0.2,-0.1,0.3c0,0.1,0,0.2,-0.1,0.2c0,0,-0.1,0.1,-0.2,0.1c-0.1,0.1,-0.2,0.1,-0.3,0.1c-0.1,0.1,-0.2,0.1,-0.4,0.1c-0.1,0,-0.2,0,-0.4,0c-0.4,0,-0.8,0,-1.1,-0.1c-0.3,-0.2,-0.5,-0.3,-0.7,-0.6c-0.2,-0.2,-0.4,-0.5,-0.5,-0.9c0,-0.3,-0.1,-0.8,-0.1,-1.3l0,-5.4l-1.3,0c-0.1,0,-0.2,-0.1,-0.2,-0.1C709,582.8,709,582.7,709,582.5c0,-0.1,0,-0.1,0,-0.2c0,-0.1,0.1,-0.1,0.1,-0.2c0,0,0.1,0,0.1,-0.1c0,0,0.1,0,0.1,0l1.3,0l0,-2.1c0,-0.1,0,-0.1,0,-0.2c0.1,0,0.1,0,0.1,0c0.1,-0.1,0.1,-0.1,0.2,-0.1c0.1,0,0.2,0,0.3,0c0.1,0,0.2,0,0.3,0c0.1,0,0.1,0,0.1,0.1c0.1,0,0.1,0,0.1,0c0.1,0.1,0.1,0.1,0.1,0.2l0,2.1l2.4,0c0,0,0.1,0,0.1,0c0,0.1,0.1,0.1,0.1,0.1c0,0.1,0.1,0.1,0.1,0.2c0,0.1,0,0.1,0,0.2c0,0.2,0,0.3,-0.1,0.4c-0.1,0,-0.1,0.1,-0.2,0.1l-2.4,0l0,5.3c0,0.7,0.1,1.2,0.3,1.5c0.1,0.4,0.5,0.6,1,0.6c0.2,0,0.3,-0.1,0.4,-0.1c0.2,0,0.3,-0.1,0.4,-0.1c0.1,0,0.1,-0.1,0.2,-0.1c0.1,0,0.1,-0.1,0.2,-0.1c0,0,0,0.1,0.1,0.1c0.1,0.1,0.1,0.1,0.1,0.2c0,0,0,0.1,0,0.2Z" class="g1_32" />
<image preserveAspectRatio="none" x="125" y="110" width="667" height="352" xlink:href="img/1.png" />
</svg>