<?xml version="1.0" encoding="UTF-8" standalone="no"?>
<!DOCTYPE svg PUBLIC "-//W3C//DTD SVG 1.1//EN"
"http://www.w3.org/Graphics/SVG/1.1/DTD/svg11.dtd">
<svg viewBox="0 0 935 1210" version="1.1" xmlns="http://www.w3.org/2000/svg" xmlns:xlink="http://www.w3.org/1999/xlink">
<defs>
<style type="text/css"><![CDATA[
.g1_30{
fill: none;
stroke: #000000;
stroke-width: 0.5683333;
stroke-linecap: butt;
stroke-linejoin: miter;
}
.g2_30{
}
]]></style>
</defs>
<path d="M653.2,725.9c0,0.6,-0.1,1.1,-0.3,1.6c-0.2,0.5,-0.5,0.9,-0.9,1.3c-0.3,0.3,-0.8,0.6,-1.3,0.8c-0.5,0.2,-1.2,0.3,-1.9,0.3l-1.7,0l0,4.8l0,0.1c0,0,-0.1,0,-0.1,0.1c0,0,-0.1,0,-0.2,0c-0.1,0,-0.1,0,-0.3,0c-0.1,0,-0.2,0,-0.2,0c-0.1,0,-0.2,0,-0.2,0C646,734.8,646,734.8,646,734.8c0,-0.1,0,-0.1,0,-0.1l0,-11.8c0,-0.2,0,-0.4,0.1,-0.5c0.1,0,0.3,-0.1,0.4,-0.1l2.6,0c0.2,0,0.4,0,0.7,0.1c0.2,0,0.5,0,0.8,0.1c0.3,0.1,0.7,0.2,1,0.4c0.3,0.2,0.6,0.5,0.8,0.8c0.3,0.3,0.5,0.6,0.6,1c0.1,0.3,0.2,0.8,0.2,1.2Zm-1.3,0.1c0,-0.5,-0.1,-1,-0.3,-1.4c-0.2,-0.4,-0.5,-0.6,-0.8,-0.8c-0.3,-0.2,-0.6,-0.3,-0.9,-0.4c-0.4,0,-0.7,0,-1,0l-1.8,0l0,5.4l1.7,0c0.6,0,1.1,0,1.4,-0.2c0.4,-0.1,0.7,-0.3,1,-0.6c0.2,-0.2,0.4,-0.5,0.5,-0.8c0.2,-0.4,0.2,-0.8,0.2,-1.2Z" class="g1_30" />
<path d="M659.1,734.9l-1.2,3.3c0,0,-0.1,0.1,-0.2,0.1c-0.1,0.1,-0.3,0.1,-0.5,0.1c-0.1,0,-0.2,0,-0.3,0c-0.1,0,-0.1,-0.1,-0.2,-0.1c0,0,0,-0.1,0,-0.1c0,-0.1,0,-0.2,0,-0.2l1.2,-3.1c0,-0.1,-0.1,-0.1,-0.1,-0.1c0,-0.1,-0.1,-0.1,-0.1,-0.2l-3.1,-8.5c-0.1,-0.1,-0.1,-0.2,-0.1,-0.3c0,0,0,-0.1,0.1,-0.1c0,0,0,-0.1,0.1,-0.1c0.1,0,0.2,0,0.4,0c0.1,0,0.2,0,0.3,0c0.1,0,0.1,0.1,0.2,0.1c0,0,0.1,0,0.1,0.1l0.1,0.1l2.7,7.6l2.7,-7.6c0.1,-0.1,0.1,-0.2,0.2,-0.2c0,0,0.1,-0.1,0.2,-0.1c0.1,0,0.2,0,0.3,0c0.2,0,0.3,0,0.3,0c0.1,0.1,0.2,0.1,0.2,0.1c0.1,0.1,0.1,0.1,0.1,0.2c0,0,0,0.1,-0.1,0.2Z" class="g1_30" />
<path d="M672.9,733.1c0,0.1,0,0.2,0,0.3c0,0,-0.1,0.1,-0.1,0.1c0,0,0,0.1,0,0.1c-0.1,0.1,-0.1,0.1,-0.2,0.2c0,0.1,-0.2,0.2,-0.4,0.3c-0.2,0.1,-0.4,0.3,-0.7,0.4c-0.4,0.1,-0.7,0.2,-1.1,0.3c-0.4,0.1,-0.9,0.2,-1.4,0.2c-0.8,0,-1.5,-0.2,-2.1,-0.4c-0.6,-0.3,-1.2,-0.7,-1.7,-1.2c-0.4,-0.6,-0.7,-1.2,-1,-2c-0.2,-0.8,-0.3,-1.7,-0.3,-2.6c0,-1.1,0.1,-2,0.3,-2.8c0.3,-0.8,0.7,-1.5,1.1,-2.1c0.5,-0.5,1.1,-1,1.7,-1.3c0.7,-0.3,1.4,-0.4,2.2,-0.4c0.4,0,0.7,0,1.1,0.1c0.3,0,0.7,0.1,1,0.2c0.3,0.2,0.5,0.3,0.8,0.4c0.2,0.2,0.4,0.3,0.5,0.4c0,0.1,0.1,0.1,0.1,0.2c0,0,0.1,0,0.1,0.1c0,0,0,0.1,0,0.2c0,0,0,0.1,0,0.2c0,0.1,0,0.1,0,0.2c0,0.1,0,0.1,-0.1,0.2c0,0,0,0.1,0,0.1c-0.1,0,-0.1,0,-0.1,0c-0.1,0,-0.3,0,-0.4,-0.2c-0.2,-0.1,-0.4,-0.2,-0.7,-0.4c-0.3,-0.2,-0.6,-0.3,-1,-0.4c-0.4,-0.2,-0.8,-0.2,-1.4,-0.2c-0.6,0,-1.1,0.1,-1.6,0.3c-0.5,0.2,-0.9,0.6,-1.3,1c-0.3,0.5,-0.6,1.1,-0.8,1.8c-0.2,0.6,-0.3,1.4,-0.3,2.3c0,0.8,0.1,1.5,0.3,2.2c0.2,0.6,0.4,1.2,0.8,1.6c0.3,0.5,0.8,0.8,1.3,1c0.5,0.3,1,0.4,1.7,0.4c0.5,0,1,-0.1,1.3,-0.2c0.4,-0.1,0.8,-0.3,1,-0.4c0.3,-0.2,0.6,-0.4,0.7,-0.5c0.2,-0.1,0.4,-0.2,0.4,-0.2c0.1,0,0.1,0,0.1,0c0.1,0.1,0.1,0.1,0.1,0.1c0,0.1,0,0.1,0,0.2c0,0.1,0.1,0.1,0.1,0.2Z" class="g1_30" />
<path d="M682.1,734.7l0,0.1c-0.1,0,-0.1,0,-0.1,0.1c-0.1,0,-0.1,0,-0.2,0c-0.1,0,-0.2,0,-0.3,0c-0.1,0,-0.2,0,-0.3,0c0,0,-0.1,0,-0.1,0C681,734.8,681,734.8,681,734.8c-0.1,-0.1,-0.1,-0.1,-0.1,-0.1l0,-5.3c0,-0.5,0,-0.9,-0.1,-1.3c-0.1,-0.3,-0.2,-0.6,-0.4,-0.8c-0.1,-0.3,-0.4,-0.5,-0.6,-0.6c-0.3,-0.1,-0.6,-0.2,-0.9,-0.2c-0.5,0,-0.9,0.1,-1.4,0.5c-0.4,0.3,-0.9,0.7,-1.4,1.4l0,6.3l0,0.1c0,0,-0.1,0,-0.1,0.1c0,0,-0.1,0,-0.2,0c-0.1,0,-0.1,0,-0.3,0c-0.1,0,-0.2,0,-0.2,0c-0.1,0,-0.2,0,-0.2,0C675,734.8,675,734.8,675,734.8c0,-0.1,0,-0.1,0,-0.1l0,-13.1c0,-0.1,0,-0.1,0,-0.1c0,-0.1,0,-0.1,0.1,-0.1c0,0,0.1,-0.1,0.2,-0.1c0,0,0.1,0,0.2,0c0.2,0,0.2,0,0.3,0c0.1,0,0.2,0.1,0.2,0.1c0,0,0.1,0,0.1,0.1l0,0.1l0,5.5c0.5,-0.6,1,-1,1.5,-1.2c0.4,-0.2,0.9,-0.4,1.4,-0.4c0.6,0,1.1,0.1,1.5,0.3c0.4,0.2,0.7,0.5,0.9,0.8c0.3,0.3,0.4,0.7,0.5,1.2c0.1,0.4,0.2,0.9,0.2,1.5Z" class="g1_30" />
<path d="M691.4,734.7c0,0,0,0.1,-0.1,0.1c0,0,-0.1,0.1,-0.1,0.1c-0.1,0,-0.2,0,-0.3,0c-0.1,0,-0.2,0,-0.3,0c-0.1,0,-0.1,-0.1,-0.2,-0.1c0,0,0,-0.1,0,-0.1l0,-1c-0.4,0.4,-0.9,0.8,-1.3,1c-0.5,0.2,-1,0.3,-1.5,0.3c-0.5,0,-0.9,0,-1.3,-0.1c-0.3,-0.2,-0.6,-0.3,-0.9,-0.6c-0.3,-0.2,-0.4,-0.5,-0.6,-0.8c-0.1,-0.3,-0.2,-0.6,-0.2,-1c0,-0.5,0.1,-0.9,0.3,-1.3c0.2,-0.4,0.5,-0.7,0.9,-0.9c0.4,-0.3,0.8,-0.4,1.3,-0.5c0.5,-0.2,1.1,-0.2,1.7,-0.2l1.4,0l0,-0.8c0,-0.4,0,-0.7,-0.1,-1c-0.1,-0.3,-0.2,-0.5,-0.3,-0.7c-0.2,-0.2,-0.5,-0.4,-0.7,-0.5c-0.3,0,-0.7,-0.1,-1.1,-0.1c-0.4,0,-0.7,0.1,-1,0.1c-0.3,0.1,-0.6,0.3,-0.8,0.4c-0.3,0.1,-0.4,0.2,-0.6,0.3c-0.1,0.1,-0.3,0.1,-0.3,0.1c-0.1,0,-0.1,0,-0.1,0c-0.1,0,-0.1,0,-0.1,-0.1c0,0,-0.1,-0.1,-0.1,-0.1c0,-0.1,0,-0.1,0,-0.2c0,-0.1,0,-0.2,0,-0.3c0.1,-0.1,0.1,-0.2,0.2,-0.3c0.1,0,0.2,-0.1,0.4,-0.3c0.2,-0.1,0.5,-0.2,0.7,-0.3c0.3,-0.1,0.6,-0.1,0.9,-0.2c0.3,0,0.6,-0.1,1,-0.1c0.6,0,1.1,0.1,1.5,0.2c0.4,0.2,0.7,0.4,1,0.7c0.2,0.2,0.4,0.6,0.5,1c0.1,0.4,0.2,0.8,0.2,1.3Zm-1.2,-4.2l-1.6,0c-0.4,0,-0.8,0.1,-1.2,0.2c-0.3,0,-0.6,0.2,-0.9,0.3c-0.2,0.2,-0.4,0.4,-0.5,0.6c-0.1,0.2,-0.1,0.5,-0.1,0.8c0,0.5,0.1,0.9,0.4,1.2c0.4,0.3,0.8,0.4,1.4,0.4c0.4,0,0.9,-0.1,1.3,-0.3c0.4,-0.2,0.8,-0.6,1.2,-1.1Z" class="g1_30" />
<path d="M699.4,726.3c0,0.1,-0.1,0.2,-0.1,0.3c0,0,0,0.1,0,0.1c0,0.1,0,0.1,-0.1,0.1c0,0.1,0,0.1,0,0.1c-0.1,0,-0.2,0,-0.2,-0.1c-0.1,0,-0.2,0,-0.3,-0.1c-0.1,0,-0.2,0,-0.3,-0.1c-0.2,0,-0.3,0,-0.4,0c-0.2,0,-0.4,0,-0.6,0.1c-0.1,0.1,-0.3,0.2,-0.5,0.4c-0.2,0.1,-0.4,0.4,-0.6,0.6c-0.2,0.3,-0.4,0.6,-0.7,1l0,6l0,0.1l-0.1,0.1c0,0,-0.1,0,-0.2,0c0,0,-0.1,0,-0.2,0c-0.2,0,-0.2,0,-0.3,0c-0.1,0,-0.1,0,-0.2,0c0,-0.1,-0.1,-0.1,-0.1,-0.1c0,-0.1,0,-0.1,0,-0.1l0,-8.8c0,-0.1,0,-0.1,0,-0.1c0,-0.1,0.1,-0.1,0.1,-0.1c0.1,0,0.1,-0.1,0.2,-0.1c0,0,0.1,0,0.2,0c0.1,0,0.2,0,0.3,0c0.1,0,0.1,0.1,0.2,0.1l0.1,0.1l0,0.1l0,1.4c0.2,-0.4,0.5,-0.7,0.7,-0.9c0.2,-0.3,0.4,-0.4,0.6,-0.6c0.2,-0.1,0.4,-0.2,0.5,-0.2c0.2,0,0.4,-0.1,0.6,-0.1c0.1,0,0.2,0,0.3,0.1c0.1,0,0.3,0,0.4,0c0.1,0,0.2,0,0.3,0.1c0.1,0,0.2,0.1,0.2,0.1c0.1,0,0.1,0,0.1,0.1l0,0.1c0,0,0.1,0,0.1,0.1c0,0,0,0.1,0,0.2Z" class="g1_30" />
<path d="M713.8,734.7l0,0.1c-0.1,0,-0.1,0,-0.1,0.1c-0.1,0,-0.1,0,-0.2,0c-0.1,0,-0.2,0,-0.3,0c-0.1,0,-0.2,0,-0.3,0c0,0,-0.1,0,-0.1,0c-0.1,-0.1,-0.1,-0.1,-0.1,-0.1c-0.1,-0.1,-0.1,-0.1,-0.1,-0.1l0,-5.4c0,-0.5,0,-0.8,-0.1,-1.2c0,-0.3,-0.2,-0.6,-0.3,-0.8c-0.2,-0.3,-0.4,-0.5,-0.6,-0.6c-0.3,-0.1,-0.6,-0.2,-0.9,-0.2c-0.4,0,-0.8,0.1,-1.2,0.5c-0.4,0.3,-0.9,0.7,-1.4,1.4l0,6.3l0,0.1c0,0,-0.1,0,-0.1,0.1c-0.1,0,-0.1,0,-0.2,0c-0.1,0,-0.2,0,-0.3,0c-0.1,0,-0.2,0,-0.3,0c0,0,-0.1,0,-0.1,0C707,734.8,707,734.8,707,734.8c0,-0.1,0,-0.1,0,-0.1l0,-5.4c0,-0.5,-0.1,-0.8,-0.2,-1.2c0,-0.3,-0.1,-0.6,-0.3,-0.8c-0.2,-0.3,-0.4,-0.5,-0.6,-0.6c-0.3,-0.1,-0.5,-0.2,-0.9,-0.2c-0.4,0,-0.8,0.1,-1.2,0.5c-0.4,0.3,-0.9,0.7,-1.4,1.4l0,6.3l0,0.1c0,0,-0.1,0,-0.1,0.1c0,0,-0.1,0,-0.2,0c-0.1,0,-0.1,0,-0.3,0c-0.1,0,-0.2,0,-0.2,0c-0.1,0,-0.2,0,-0.2,0c-0.1,-0.1,-0.1,-0.1,-0.1,-0.1c0,-0.1,0,-0.1,0,-0.1l0,-8.8c0,-0.1,0,-0.1,0,-0.1c0,-0.1,0,-0.1,0.1,-0.1c0,0,0.1,-0.1,0.2,-0.1c0,0,0.1,0,0.2,0c0.1,0,0.2,0,0.3,0c0.1,0,0.1,0.1,0.2,0.1l0,0.1c0.1,0,0.1,0,0.1,0.1l0,1.2c0.5,-0.5,1,-1,1.4,-1.2c0.5,-0.2,0.9,-0.4,1.4,-0.4c0.3,0,0.7,0.1,0.9,0.2c0.3,0.1,0.6,0.2,0.8,0.3c0.2,0.2,0.4,0.4,0.6,0.6c0.1,0.2,0.2,0.4,0.3,0.7c0.3,-0.3,0.6,-0.6,0.9,-0.8c0.3,-0.3,0.5,-0.4,0.8,-0.6c0.2,-0.1,0.5,-0.2,0.7,-0.3c0.2,0,0.4,-0.1,0.6,-0.1c0.6,0,1.1,0.1,1.4,0.3c0.4,0.2,0.7,0.5,0.9,0.8c0.3,0.3,0.4,0.7,0.5,1.2c0.1,0.4,0.2,0.9,0.2,1.4Z" class="g1_30" />
<path fill-rule="evenodd" d="M539.1,1050.2l220,0l0,1l-220,0l0,-1Z" class="g2_30" />
</svg>