<?xml version="1.0" encoding="UTF-8" standalone="no"?>
<!DOCTYPE svg PUBLIC "-//W3C//DTD SVG 1.1//EN"
"http://www.w3.org/Graphics/SVG/1.1/DTD/svg11.dtd">
<svg viewBox="0 0 935 1210" version="1.1" xmlns="http://www.w3.org/2000/svg" xmlns:xlink="http://www.w3.org/1999/xlink">
<defs>
<style type="text/css"><![CDATA[
.g1_24{
}
]]></style>
</defs>
<path fill-rule="evenodd" d="M80.7,110l1.4,0l0,1.6l-1.4,0l0,-1.6Z" class="g1_24" />
<path fill-rule="evenodd" d="M80.7,110l1.4,0l0,1.5l-1.4,0l0,-1.5Z" class="g1_24" />
<path fill-rule="evenodd" d="M82.1,110l170.5,0l0,1.5l-170.5,0l0,-1.5Z" class="g1_24" />
<path fill-rule="evenodd" d="M252.6,111.5l1.4,0l0,0.1l-1.4,0l0,-0.1Z" class="g1_24" />
<path fill-rule="evenodd" d="M252.6,110l1.4,0l0,1.5l-1.4,0l0,-1.5Z" class="g1_24" />
<path fill-rule="evenodd" d="M254,110l418,0l0,1.5l-418,0l0,-1.5Z" class="g1_24" />
<path fill-rule="evenodd" d="M672,111.5l1.4,0l0,0.1l-1.4,0l0,-0.1Z" class="g1_24" />
<path fill-rule="evenodd" d="M672,110l1.4,0l0,1.5l-1.4,0l0,-1.5Z" class="g1_24" />
<path fill-rule="evenodd" d="M673.4,110l177.3,0l0,1.5l-177.3,0l0,-1.5Z" class="g1_24" />
<path fill-rule="evenodd" d="M850.7,110l1.5,0l0,1.6l-1.5,0l0,-1.6Z" class="g1_24" />
<path fill-rule="evenodd" d="M850.7,110l1.5,0l0,1.5l-1.5,0l0,-1.5Z" class="g1_24" />
<path fill-rule="evenodd" d="M80.7,111.6l1.4,0l0,22.8l-1.4,0l0,-22.8Z" class="g1_24" />
<path fill-rule="evenodd" d="M80.7,134.4l1.4,0l0,1.5l-1.4,0l0,-1.5Z" class="g1_24" />
<path fill-rule="evenodd" d="M80.7,134.4l1.4,0l0,1.5l-1.4,0l0,-1.5Z" class="g1_24" />
<path fill-rule="evenodd" d="M82.1,134.4l170.5,0l0,1.5l-170.5,0l0,-1.5Z" class="g1_24" />
<path fill-rule="evenodd" d="M252.6,111.6l1.4,0l0,22.8l-1.4,0l0,-22.8Z" class="g1_24" />
<path fill-rule="evenodd" d="M252.6,134.4l1.4,0l0,1.5l-1.4,0l0,-1.5Z" class="g1_24" />
<path fill-rule="evenodd" d="M254,134.4l418,0l0,1.5l-418,0l0,-1.5Z" class="g1_24" />
<path fill-rule="evenodd" d="M672,111.6l1.4,0l0,22.8l-1.4,0l0,-22.8Z" class="g1_24" />
<path fill-rule="evenodd" d="M672,134.4l1.4,0l0,1.5l-1.4,0l0,-1.5Z" class="g1_24" />
<path fill-rule="evenodd" d="M673.4,134.4l177.3,0l0,1.5l-177.3,0l0,-1.5Z" class="g1_24" />
<path fill-rule="evenodd" d="M850.7,111.6l1.5,0l0,22.8l-1.5,0l0,-22.8Z" class="g1_24" />
<path fill-rule="evenodd" d="M850.7,134.4l1.5,0l0,1.5l-1.5,0l0,-1.5Z" class="g1_24" />
<path fill-rule="evenodd" d="M850.7,134.4l1.5,0l0,1.5l-1.5,0l0,-1.5Z" class="g1_24" />
</svg>